SplineFontDB: 3.0
FontName: Celtica-BookOblique
FullName: Celtica Book Oblique
FamilyName: Celtica
Weight: Book
Copyright: Copyright (c) 2020-2024 by Wojciech Kalinowski "wmk69" with Reserved Font Name "Celtica-BookOblique".\nThis Font Software is licensed under the SIL Open Font License, Version 1.1.
Version: 1.1.0; 2021-05-14
ItalicAngle: -12
UnderlinePosition: -80
UnderlineWidth: 200
Ascent: 1638
Descent: 410
InvalidEm: 0
LayerCount: 2
Layer: 0 1 "Warstwa t+AUIA-a" 1
Layer: 1 1 "Plan pierwszy" 0
XUID: [1021 783 23647091 2952791]
StyleMap: 0x0001
FSType: 0
OS2Version: 3
OS2_WeightWidthSlopeOnly: 0
OS2_UseTypoMetrics: 1
CreationTime: 1260698820
ModificationTime: 1620981681
PfmFamily: 17
TTFWeight: 400
TTFWidth: 5
LineGap: 300
VLineGap: 0
Panose: 2 14 5 2 5 5 8 13 7 4
OS2TypoAscent: 2000
OS2TypoAOffset: 0
OS2TypoDescent: -500
OS2TypoDOffset: 0
OS2TypoLinegap: 300
OS2WinAscent: 2000
OS2WinAOffset: 0
OS2WinDescent: 500
OS2WinDOffset: 0
HheadAscent: 2000
HheadAOffset: 0
HheadDescent: -500
HheadDOffset: 0
OS2SubXSize: 1434
OS2SubYSize: 1331
OS2SubXOff: 0
OS2SubYOff: 287
OS2SupXSize: 1434
OS2SupYSize: 1331
OS2SupXOff: 0
OS2SupYOff: 977
OS2StrikeYSize: 102
OS2StrikeYPos: 512
OS2CapHeight: 1530
OS2XHeight: 1120
OS2Vendor: '    '
OS2CodePages: 20000093.00000000
OS2UnicodeRanges: 8000002f.4000204b.00000000.00000000
Lookup: 258 0 0 "'kern' Horizontal Kerning lookup 0" { "'kern' Horizontal Kerning lookup 0-1" [307,0,4] } ['kern' ('DFLT' <'dflt' > 'grek' <'dflt' > 'latn' <'dflt' > ) ]
MarkAttachClasses: 1
DEI: 91125
KernClass2: 64 45 "'kern' Horizontal Kerning lookup 0-1"
 84 A Agrave Aacute Acircumflex Atilde Adieresis Aring Amacron Abreve Aogonek Aringacute
 28 B germandbls uni1E02 uni1E9E
 140 C E AE Ccedilla Egrave Eacute Ecircumflex Edieresis Cacute Ccircumflex Cdotaccent Ccaron Emacron Ebreve Edotaccent Eogonek Ecaron OE AEacute
 134 D M O P Q Eth Ograve Oacute Ocircumflex Otilde Odieresis Oslash Dcaron Dcroat Omacron Obreve Ohungarumlaut Oslashacute uni1E0A uni1E56

StartChar: .notdef
Encoding: 65536 -1 0
Width: 994
Flags: W
HStem: 0 68<274 748> 1442 68<567 1041>
VStem: 150 694<0 694> 471 694<816 1510>
DStem2: 150 0 259.546 0 0.207912 0.978148<92.2951 1497.19> 733.546 0 844 0 0.207912 0.978148<69.5192 1474.41>
LayerCount: 2
Fore
SplineSet
150 0 m 5,0,-1
 471 1510 l 5,1,-1
 1165 1510 l 5,2,-1
 844 0 l 5,3,-1
 150 0 l 5,0,-1
274 68 m 5,4,-1
 748 68 l 5,5,-1
 1041 1442 l 5,6,-1
 567 1442 l 5,7,-1
 274 68 l 5,4,-1
EndSplineSet
Validated: 1
EndChar

StartChar: exclam
Encoding: 33 33 4
Width: 692
GlyphClass: 2
Flags: W
HStem: -20 264<271.398 428.602>
VStem: 217 266<33.5176 190.482> 334 172<350 522> 546 221<1191.94 1510>
LayerCount: 2
Fore
SplineSet
546 1510 m 1,0,1
 767 1510 l 1,2,3
 748 1304 748 1304 699 1068 c 0,4,5
 621 701 621 701 506 350 c 1,6,-1
 334 350 l 1,7,8
 407 589 407 589 455 815 c 0,9,10
 532 1178 532 1178 546 1510 c 1,0,1
322 -20 m 128,-1,12
 268 -20 268 -20 238 18 c 0,13,14
 217 46 217 46 217 82 c 0,15,16
 217 96 217 96 220 112 c 0,17,18
 232 167 232 167 278 205.5 c 128,-1,19
 324 244 324 244 378 244 c 128,-1,20
 432 244 432 244 462 206 c 0,21,22
 483 178 483 178 483 142 c 0,23,24
 483 128 483 128 480 112 c 0,25,26
 468 57 468 57 422 18.5 c 128,-1,11
 376 -20 376 -20 322 -20 c 128,-1,12
EndSplineSet
Validated: 1
EndChar

StartChar: quotedbl
Encoding: 34 34 5
Width: 592
GlyphClass: 2
Flags: W
HStem: 1120 454
VStem: 378 179<1284.7 1518.7> 677 179<1284.7 1518.7>
LayerCount: 2
Fore
SplineSet
671 1516 m 1,0,-1
 856 1574 l 1,1,2
 854 1468 854 1468 833 1369 c 0,3,4
 812 1269 812 1269 769 1168 c 1,5,-1
 617 1120 l 1,6,7
 644 1196 644 1196 659 1266 c 0,8,9
 677 1352 677 1352 677 1429 c 0,10,11
 677 1474 677 1474 671 1516 c 1,0,-1
372 1516 m 1,12,-1
 557 1574 l 1,13,14
 555 1468 555 1468 534 1369 c 0,15,16
 513 1269 513 1269 470 1168 c 1,17,-1
 318 1120 l 1,18,19
 345 1196 345 1196 360 1266 c 0,20,21
 378 1352 378 1352 378 1429 c 0,22,23
 378 1474 378 1474 372 1516 c 1,12,-1
EndSplineSet
Validated: 1
EndChar

StartChar: numbersign
Encoding: 35 35 6
Width: 1370
GlyphClass: 2
Flags: W
HStem: 513 126<348.16 559 712 903 1056 1260.84> 857 126<421.16 632 785 976 1129 1333.84>
VStem: 535 98<270 336.993> 709 99<1152.05 1220> 879 98<270 336.993> 1053 99<1152.05 1220>
DStem2: 504.677 257 630.586 257 0.207912 0.978148<112.986 261.7 416.757 613.36 768.418 911.055> 848.677 257 974.586 257 0.207912 0.978148<112.986 261.7 416.757 613.36 768.418 911.055>
LayerCount: 2
Fore
SplineSet
751 1233 m 1,0,1
 808 1209 808 1209 808 1125 c 0,2,3
 808 1091 808 1091 799 1048 c 2,4,-1
 785 983 l 1,5,-1
 1003 983 l 1,6,-1
 1053 1220 l 1,7,-1
 1095 1233 l 1,8,9
 1152 1209 1152 1209 1152 1125 c 0,10,11
 1152 1091 1152 1091 1143 1048 c 2,12,-1
 1129 983 l 1,13,-1
 1366 983 l 1,14,-1
 1371 944 l 1,15,16
 1319 857 1319 857 1167 857 c 2,17,-1
 1102 857 l 1,18,-1
 1056 639 l 1,19,-1
 1293 639 l 1,20,-1
 1298 600 l 1,21,22
 1246 513 1246 513 1094 513 c 2,23,-1
 1029 513 l 1,24,-1
 977 270 l 1,25,-1
 936 257 l 1,26,27
 879 281 879 281 879 365 c 0,28,29
 879 399 879 399 888 442 c 2,30,-1
 903 513 l 1,31,-1
 685 513 l 1,32,-1
 633 270 l 1,33,-1
 592 257 l 1,34,35
 535 281 535 281 535 365 c 0,36,37
 535 399 535 399 544 442 c 2,38,-1
 559 513 l 1,39,-1
 316 513 l 1,40,-1
 311 552 l 1,41,42
 363 639 363 639 515 639 c 2,43,-1
 586 639 l 1,44,-1
 632 857 l 1,45,-1
 389 857 l 1,46,-1
 384 896 l 1,47,48
 436 983 436 983 588 983 c 2,49,-1
 659 983 l 1,50,-1
 709 1220 l 1,51,-1
 751 1233 l 1,0,1
712 639 m 1,52,-1
 930 639 l 1,53,-1
 976 857 l 1,54,-1
 758 857 l 1,55,-1
 712 639 l 1,52,-1
EndSplineSet
Validated: 1
EndChar

StartChar: dollar
Encoding: 36 36 7
Width: 1241
GlyphClass: 2
Flags: W
HStem: -20 125<314.654 578> 770 122<872 971.56> 1415 114<1007 1158.43>
VStem: 376 215<943.403 1214.99> 565 79<-180 -112.582> 941 79<1621.69 1690> 1034 217<411.588 706.616>
DStem2: 541.653 -189 642.102 -189 0.207912 0.978148<90.5963 174.82 369.381 985.628 1126.06 1625.6 1777.21 1859.48>
LayerCount: 2
Fore
SplineSet
517 -20 m 0,0,1
 271 -20 271 -20 125 117 c 1,2,-1
 208 270 l 1,3,4
 292 105 292 105 484 105 c 0,5,6
 546 105 546 105 607 118 c 1,7,-1
 747 775 l 1,8,9
 565 782 565 782 466 874 c 0,10,11
 377 956 377 956 376 1073 c 0,12,13
 376 1108 376 1108 385 1146 c 0,14,15
 420 1313 420 1313 583 1422 c 0,16,17
 721 1514 721 1514 907 1528 c 1,18,-1
 941 1690 l 1,19,-1
 971 1699 l 1,20,21
 1020 1674 1020 1674 1020 1611 c 0,22,23
 1020 1590 1020 1590 1015 1565 c 2,24,-1
 1007 1529 l 1,25,26
 1217 1522 1217 1522 1315 1430 c 1,27,-1
 1231 1277 l 1,28,29
 1180 1415 1180 1415 983 1415 c 1,30,-1
 872 892 l 1,31,32
 1052 880 1052 880 1149 793 c 0,33,34
 1251 701 1251 701 1251 562 c 0,35,36
 1251 518 1251 518 1241 470 c 0,37,38
 1195 252 1195 252 989 117 c 0,39,40
 847 24 847 24 681 -6 c 1,41,-1
 644 -180 l 1,42,-1
 614 -189 l 1,43,44
 565 -165 565 -165 565 -102 c 0,45,46
 565 -81 565 -81 570 -55 c 2,47,-1
 578 -18 l 1,48,49
 548 -20 548 -20 517 -20 c 0,0,1
772 895 m 1,50,-1
 880 1401 l 1,51,52
 849 1394 849 1394 821 1382 c 0,53,54
 723 1342 723 1342 662 1258 c 0,55,56
 614 1192 614 1192 597 1108 c 0,57,58
 591 1080 591 1080 591 1056 c 0,59,60
 591 998 591 998 619 959 c 0,61,62
 661 903 661 903 772 895 c 1,50,-1
846 770 m 1,63,-1
 714 152 l 1,64,65
 736 161 736 161 758 172 c 0,66,67
 895 241 895 241 965 364 c 0,68,69
 1011 444 1011 444 1028 525 c 0,70,71
 1034 552 1034 552 1034 584 c 0,72,73
 1034 664 1034 664 992 708 c 0,74,75
 946 757 946 757 846 770 c 1,63,-1
EndSplineSet
Validated: 1
EndChar

StartChar: percent
Encoding: 37 37 8
Width: 1646
GlyphClass: 2
Flags: W
HStem: -20 88<1050.41 1271.14> 0 21G<558 644.541> 539 91<1185.05 1410.2> 880 88<558.397 778.636> 1439 91<692.549 917.696>
VStem: 398 135<990.294 1262.17> 890 135<90.2943 362.173> 941 136<1144.24 1415.79> 1433 136<244.41 515.948>
DStem2: 600 238 633 0 0.499801 0.86614<-169.181 1448.12>
LayerCount: 2
Fore
SplineSet
654 968 m 0,0,1
 720 968 720 968 788 1017 c 0,2,3
 854 1065 854 1065 895 1141 c 0,4,5
 922 1191 922 1191 934 1249 c 0,6,7
 941 1285 941 1285 941 1313.5 c 128,-1,8
 941 1342 941 1342 934 1363 c 0,9,10
 907 1439 907 1439 820 1439 c 0,11,12
 754 1439 754 1439 686 1390 c 0,13,14
 623 1344 623 1344 579 1266 c 0,15,16
 551 1216 551 1216 539 1158 c 0,17,18
 533 1128 533 1128 533 1102 c 0,19,20
 533 1069 533 1069 542 1042 c 0,21,22
 567 968 567 968 654 968 c 0,0,1
1146 68 m 0,23,24
 1212 68 1212 68 1280 117 c 0,25,26
 1346 165 1346 165 1387 241 c 0,27,28
 1414 291 1414 291 1426 349 c 0,29,30
 1433 385 1433 385 1433 413.5 c 128,-1,31
 1433 442 1433 442 1426 463 c 0,32,33
 1399 539 1399 539 1312 539 c 0,34,35
 1246 539 1246 539 1178 490 c 0,36,37
 1115 444 1115 444 1071 366 c 0,38,39
 1043 316 1043 316 1031 258 c 0,40,41
 1025 228 1025 228 1025 202 c 0,42,43
 1025 169 1025 169 1034 142 c 0,44,45
 1059 68 1059 68 1146 68 c 0,23,24
1161 -20 m 0,46,47
 1015 -20 1015 -20 947 66 c 0,48,49
 890 135 890 135 890 229 c 0,50,51
 890 265 890 265 899 305 c 0,52,53
 930 449 930 449 1049 544 c 0,54,55
 1158 630 1158 630 1299 630 c 0,56,57
 1442 630 1442 630 1513 544 c 0,58,59
 1569 477 1569 477 1569 382 c 0,60,61
 1569 346 1569 346 1561 305 c 0,62,63
 1531 162 1531 162 1411 66 c 0,64,65
 1303 -20 1303 -20 1161 -20 c 0,46,47
806 1530 m 0,66,67
 949 1530 949 1530 1020 1444 c 0,68,69
 1077 1376 1077 1376 1077 1282 c 0,70,71
 1077 1246 1077 1246 1068 1205 c 0,72,73
 1038 1061 1038 1061 918 966 c 0,74,75
 810 880 810 880 668 880 c 0,76,77
 524 880 524 880 454 966 c 0,78,79
 398 1035 398 1035 398 1129 c 0,80,81
 398 1165 398 1165 406 1205 c 0,82,83
 437 1349 437 1349 556 1444 c 0,84,85
 665 1530 665 1530 806 1530 c 0,66,67
573 0 m 1,86,87
 543 28 543 28 543 75 c 0,88,89
 543 93 543 93 547 113 c 0,90,91
 558 167 558 167 600 238 c 2,92,-1
 1334 1510 l 1,93,-1
 1394 1510 l 1,94,95
 1424 1482 1424 1482 1424 1435 c 0,96,97
 1424 1417 1424 1417 1420 1397 c 0,98,99
 1409 1343 1409 1343 1367 1272 c 2,100,-1
 633 0 l 1,101,-1
 573 0 l 1,86,87
EndSplineSet
Validated: 1
EndChar

StartChar: quotesingle
Encoding: 39 39 9
Width: 293
GlyphClass: 2
Flags: W
HStem: 1120 454
VStem: 378 179<1284.7 1518.7>
LayerCount: 2
Fore
SplineSet
372 1516 m 1,0,-1
 557 1574 l 1,1,2
 555 1468 555 1468 534 1369 c 0,3,4
 513 1269 513 1269 470 1168 c 1,5,-1
 318 1120 l 1,6,7
 345 1196 345 1196 360 1266 c 0,8,9
 378 1352 378 1352 378 1429 c 0,10,11
 378 1474 378 1474 372 1516 c 1,0,-1
EndSplineSet
Validated: 1
EndChar

StartChar: parenleft
Encoding: 40 40 10
Width: 817
GlyphClass: 2
Flags: W
VStem: 323 184<132.433 780.914>
LayerCount: 2
Fore
SplineSet
754 -250 m 1,0,1
 477 -250 l 1,2,3
 323 63 323 63 323 407 c 0,4,5
 323 577 323 577 360 755 c 0,6,7
 474 1292 474 1292 904 1760 c 1,8,-1
 1181 1760 l 1,9,10
 664 1343 664 1343 540 755 c 0,11,12
 507 599 507 599 507 450 c 0,13,14
 507 54 507 54 754 -250 c 1,0,1
EndSplineSet
Validated: 1
EndChar

StartChar: parenright
Encoding: 41 41 11
Width: 817
GlyphClass: 2
Flags: W
VStem: 631 184<737.436 1377.57>
LayerCount: 2
Fore
SplineSet
-43 -250 m 1,0,1
 472 166 472 166 597 755 c 0,2,3
 631 914 631 914 631 1060 c 0,4,5
 631 1456 631 1456 384 1760 c 1,6,-1
 661 1760 l 1,7,8
 815 1447 815 1447 815 1103 c 0,9,10
 815 933 815 933 777 755 c 0,11,12
 663 218 663 218 234 -250 c 1,13,-1
 -43 -250 l 1,0,1
EndSplineSet
Validated: 1
EndChar

StartChar: asterisk
Encoding: 42 42 12
Width: 1080
GlyphClass: 2
Flags: W
HStem: 1510 20G<799 869.5>
VStem: 651 98<689 756.269> 799 99<1448.68 1517>
DStem2: 735 1212 417 1255 0.835133 -0.550048<-243.077 -12.7014 197.752 428.962> 519 1037 392 841 0.889353 0.457222<-179.296 130.64 384.172 694.077> 620.677 676 746.407 676 0.207912 0.978148<112.986 325.048 574.253 786.315>
LayerCount: 2
Fore
SplineSet
841 1530 m 1,0,1
 898 1506 898 1506 898 1422 c 0,2,3
 898 1388 898 1388 889 1345 c 2,4,-1
 861 1212 l 1,5,-1
 1157 1365 l 1,6,-1
 1182 1337 l 1,7,8
 1181 1328 1181 1328 1180 1320 c 0,9,10
 1163 1238 1163 1238 1029 1169 c 2,11,-1
 900 1103 l 1,12,-1
 1132 951 l 1,13,-1
 1115 910 l 1,14,15
 1078 885 1078 885 1035 885 c 0,16,17
 980 885 980 885 915 927 c 2,18,-1
 814 994 l 1,19,-1
 749 689 l 1,20,-1
 708 676 l 1,21,22
 651 700 651 700 651 784 c 0,23,24
 651 818 651 818 660 861 c 2,25,-1
 688 994 l 1,26,-1
 392 841 l 1,27,-1
 367 869 l 1,28,29
 368 878 368 878 369 886 c 0,30,31
 386 968 386 968 519 1037 c 2,32,-1
 648 1103 l 1,33,-1
 417 1255 l 1,34,-1
 433 1296 l 1,35,36
 470 1321 470 1321 514 1321 c 0,37,38
 569 1321 569 1321 634 1279 c 2,39,-1
 735 1212 l 1,40,-1
 799 1517 l 1,41,-1
 841 1530 l 1,0,1
EndSplineSet
Validated: 1
EndChar

StartChar: plus
Encoding: 43 43 13
Width: 1158
GlyphClass: 2
Flags: W
HStem: 665 160<356.152 640 834 1117.85>
VStem: 601 129<335 402.584> 745 129<1088.37 1155>
DStem2: 566.513 316 725.818 316 0.207912 0.978148<128.678 356.652 553.491 781.673>
LayerCount: 2
Fore
SplineSet
806 1174 m 1,0,1
 874 1150 874 1150 874 1051 c 0,2,3
 874 1012 874 1012 863 960 c 2,4,-1
 834 825 l 1,5,-1
 1164 825 l 1,6,-1
 1171 768 l 1,7,8
 1115 665 1115 665 935 665 c 2,9,-1
 800 665 l 1,10,-1
 730 335 l 1,11,-1
 669 316 l 1,12,13
 601 340 601 340 601 439 c 0,14,15
 601 478 601 478 612 530 c 2,16,-1
 640 665 l 1,17,-1
 310 665 l 1,18,-1
 303 722 l 1,19,20
 359 825 359 825 539 825 c 2,21,-1
 674 825 l 1,22,-1
 745 1155 l 1,23,-1
 806 1174 l 1,0,1
EndSplineSet
Validated: 1
EndChar

StartChar: comma
Encoding: 44 44 14
Width: 427
GlyphClass: 2
Flags: W
HStem: -292 572
VStem: 206 186<-50.1953 149.359>
LayerCount: 2
Fore
SplineSet
314 280 m 1,0,1
 392 193 392 193 392 96 c 0,2,3
 392 71 392 71 387 45 c 0,4,5
 357 -94 357 -94 169 -251 c 1,6,-1
 37 -292 l 1,7,8
 176 -142 176 -142 201 -24 c 0,9,10
 206 2 206 2 206 26 c 0,11,12
 206 135 206 135 95 211 c 1,13,-1
 314 280 l 1,0,1
EndSplineSet
Validated: 1
EndChar

StartChar: hyphen
Encoding: 45 45 15
Width: 1158
GlyphClass: 2
Flags: W
HStem: 665 160<356.152 1117.85>
LayerCount: 2
Fore
SplineSet
303 722 m 1,0,1
 359 825 359 825 539 825 c 2,2,-1
 1164 825 l 1,3,-1
 1171 768 l 1,4,5
 1115 665 1115 665 935 665 c 2,6,-1
 310 665 l 1,7,-1
 303 722 l 1,0,1
EndSplineSet
Validated: 1
EndChar

StartChar: period
Encoding: 46 46 16
Width: 360
GlyphClass: 2
Flags: W
HStem: -20 264<125.398 282.602>
VStem: 71 266<33.5176 190.482>
LayerCount: 2
Fore
SplineSet
176 -20 m 128,-1,1
 122 -20 122 -20 92 18 c 0,2,3
 71 46 71 46 71 82 c 0,4,5
 71 96 71 96 74 112 c 0,6,7
 86 167 86 167 132 205.5 c 128,-1,8
 178 244 178 244 232 244 c 128,-1,9
 286 244 286 244 316 206 c 0,10,11
 337 178 337 178 337 142 c 0,12,13
 337 128 337 128 334 112 c 0,14,15
 322 57 322 57 276 18.5 c 128,-1,0
 230 -20 230 -20 176 -20 c 128,-1,1
EndSplineSet
Validated: 1
EndChar

StartChar: slash
Encoding: 47 47 17
Width: 830
GlyphClass: 2
Flags: W
DStem2: 1029 1690 122 -180 0.499508 0.866309<-2053.05 -20.0063>
LayerCount: 2
Fore
SplineSet
62 -180 m 1,0,1
 31 -152 31 -152 31 -105 c 0,2,3
 31 -87 31 -87 36 -67 c 0,4,5
 47 -14 47 -14 88 58 c 2,6,-1
 1029 1690 l 1,7,-1
 1089 1690 l 1,8,9
 1120 1661 1120 1661 1120 1615 c 0,10,11
 1120 1597 1120 1597 1115 1577 c 0,12,13
 1104 1524 1104 1524 1063 1452 c 2,14,-1
 122 -180 l 1,15,-1
 62 -180 l 1,0,1
EndSplineSet
Validated: 1
EndChar

StartChar: zero
Encoding: 48 48 18
Width: 1726
GlyphClass: 2
Flags: W
HStem: -20 130<599.684 1026.03> 1398 132<1019.63 1445.42>
VStem: 239 187<329.68 744.255> 1620 188<761.36 1178.6>
LayerCount: 2
Fore
SplineSet
798 110 m 0,0,1
 996 110 996 110 1189 239 c 0,2,3
 1384 369 1384 369 1496 576 c 0,4,5
 1572 715 1572 715 1604 872 c 0,6,7
 1620 950 1620 950 1620 1016 c 0,8,9
 1620 1110 1620 1110 1590 1185 c 0,10,11
 1504 1398 1504 1398 1248 1398 c 0,12,13
 1050 1398 1050 1398 858 1268 c 0,14,15
 661 1135 661 1135 550 931 c 0,16,17
 476 796 476 796 442 636 c 16,18,19
 426 560 426 560 426 493 c 0,20,21
 426 400 426 400 457 323 c 0,22,23
 540 110 540 110 798 110 c 0,0,1
858 -20 m 128,-1,25
 552 -20 552 -20 374 183 c 0,26,27
 239 337 239 337 239 563 c 0,28,29
 239 653 239 653 260 755 c 0,30,31
 336 1111 336 1111 617 1327 c 0,32,33
 881 1530 881 1530 1187 1530 c 128,-1,34
 1493 1530 1493 1530 1671 1327 c 0,35,36
 1808 1171 1808 1171 1808 944 c 0,37,38
 1808 855 1808 855 1786 755 c 0,39,40
 1711 401 1711 401 1428 183 c 0,41,24
 1164 -20 1164 -20 858 -20 c 128,-1,25
EndSplineSet
Validated: 1
EndChar

StartChar: one
Encoding: 49 49 19
Width: 700
GlyphClass: 2
Flags: W
HStem: -20 21G<330.5 436.609> 1412 34<378.735 423.08> 1510 20G<582.714 691>
VStem: 287 159<3 70.6207> 538 197<1154.64 1461.46>
DStem2: 250.875 -20 440.387 -20 0.207912 0.978148<139.685 1398.26>
LayerCount: 2
Fore
SplineSet
374 -20 m 1,0,1
 287 6 287 6 287 114 c 0,2,3
 287 150 287 150 296 194 c 2,4,-1
 534 1312 l 2,5,6
 538 1332 538 1332 538 1349 c 0,7,8
 538 1421 538 1421 455 1421 c 0,9,10
 417 1421 417 1421 380 1412 c 1,11,-1
 377 1446 l 1,12,-1
 647 1530 l 1,13,14
 735 1503 735 1503 735 1397 c 0,15,16
 735 1362 735 1362 725 1319 c 2,17,-1
 446 3 l 1,18,-1
 374 -20 l 1,0,1
EndSplineSet
Validated: 1
EndChar

StartChar: two
Encoding: 50 50 20
Width: 1400
GlyphClass: 2
Flags: W
HStem: 0 128<438 1187.69> 559 120<640.938 765> 1410 120<867.08 1177.08>
VStem: 385 193<749.784 1087.12> 1234 191<1010.39 1340.45>
LayerCount: 2
Fore
SplineSet
185 0 m 1,0,-1
 171 101 l 1,1,2
 933 483 933 483 1160 941 c 24,3,4
 1205 1032 1205 1032 1223 1115 c 0,5,6
 1234 1167 1234 1167 1234 1210 c 0,7,8
 1234 1264 1234 1264 1217 1306 c 0,9,10
 1175 1410 1175 1410 1045 1410 c 0,11,12
 927 1410 927 1410 827 1343 c 0,13,14
 714 1267 714 1267 650 1148 c 0,15,16
 605 1063 605 1063 587 974 c 0,17,18
 578 928 578 928 578 888 c 0,19,20
 578 834 578 834 595 791 c 0,21,22
 642 679 642 679 765 679 c 1,23,-1
 782 559 l 1,24,25
 584 559 584 559 470 691 c 0,26,27
 385 789 385 789 385 929 c 0,28,29
 385 984 385 984 398 1045 c 0,30,31
 444 1263 444 1263 620 1398 c 0,32,33
 793 1530 793 1530 1017 1530 c 24,34,35
 1226 1530 1226 1530 1340 1398 c 0,36,37
 1425 1300 1425 1300 1425 1160 c 0,38,39
 1425 1105 1425 1105 1412 1044 c 0,40,41
 1305 541 1305 541 438 128 c 1,42,-1
 1100 128 l 2,43,44
 1191 128 1191 128 1280 239 c 1,45,-1
 1301 239 l 1,46,-1
 1211 74 l 2,47,48
 1170 0 1170 0 1066 0 c 2,49,-1
 185 0 l 1,0,-1
EndSplineSet
Validated: 1
EndChar

StartChar: three
Encoding: 51 51 21
Width: 1248
GlyphClass: 2
Flags: W
HStem: -20 120<431.992 727.438> 1382 128<587.313 1095>
VStem: 170 194<170.19 331> 1017 193<422.657 760.216>
LayerCount: 2
Fore
SplineSet
578 -20 m 0,0,1
 369 -20 369 -20 255 112 c 0,2,3
 176 204 176 204 170 331 c 1,4,-1
 372 395 l 1,5,6
 364 356 364 356 364 320 c 0,7,8
 364 264 364 264 384 215 c 0,9,10
 431 100 431 100 550 100 c 0,11,12
 667 100 667 100 767 167 c 0,13,14
 881 243 881 243 945 362 c 0,15,16
 990 446 990 446 1008 536 c 0,17,18
 1017 580 1017 580 1017 619 c 0,19,20
 1017 673 1017 673 1000 719 c 0,21,22
 960 831 960 831 830 831 c 0,23,24
 734 831 734 831 649 785 c 1,25,-1
 634 885 l 1,26,27
 964 1106 964 1106 1095 1382 c 1,28,-1
 675 1382 l 2,29,30
 584 1382 584 1382 495 1271 c 1,31,-1
 474 1271 l 1,32,-1
 564 1436 l 2,33,34
 605 1510 605 1510 709 1510 c 2,35,-1
 1308 1510 l 1,36,-1
 1321 1409 l 1,37,38
 1177 1115 1177 1115 874 947 c 1,39,40
 1032 927 1032 927 1125 819 c 0,41,42
 1210 721 1210 721 1210 581 c 0,43,44
 1210 526 1210 526 1197 465 c 0,45,46
 1151 247 1151 247 975 112 c 0,47,48
 802 -20 802 -20 578 -20 c 0,0,1
EndSplineSet
Validated: 1
EndChar

StartChar: five
Encoding: 53 53 22
Width: 1248
GlyphClass: 2
Flags: W
HStem: -20 120<432.227 727.438> 831 120<649.125 952.385> 1382 128<756.094 1298.19>
VStem: 409 173<919.795 1128.75> 1018 192<424.646 760.292>
LayerCount: 2
Fore
SplineSet
578 -20 m 0,0,1
 369 -20 369 -20 255 112 c 0,2,3
 177 204 177 204 170 331 c 1,4,-1
 372 395 l 1,5,6
 364 356 364 356 364 320 c 0,7,8
 364 264 364 264 384 215 c 0,9,10
 432 100 432 100 550 100 c 0,11,12
 667 100 667 100 767 167 c 0,13,14
 880 243 880 243 945 362 c 0,15,16
 988 443 988 443 1008 536 c 0,17,18
 1018 586 1018 586 1018 628 c 0,19,20
 1018 682 1018 682 1001 720 c 0,21,22
 952 831 952 831 830 831 c 0,23,24
 709 831 709 831 612 764 c 0,25,26
 562 729 562 729 515 680 c 1,27,28
 409 828 409 828 409 990 c 0,29,30
 409 1043 409 1043 420 1098 c 0,31,32
 462 1294 462 1294 651 1510 c 1,33,-1
 1211 1510 l 2,34,35
 1301 1510 1301 1510 1391 1621 c 1,36,-1
 1412 1621 l 1,37,-1
 1321 1456 l 2,38,39
 1280 1382 1280 1382 1177 1382 c 2,40,-1
 790 1382 l 1,41,42
 628 1196 628 1196 594 1028 c 0,43,44
 582 969 582 969 582 915 c 1,45,46
 688 951 688 951 802 951 c 0,47,48
 1011 951 1011 951 1125 819 c 0,49,50
 1210 720 1210 720 1210 580 c 0,51,52
 1210 525 1210 525 1197 465 c 0,53,54
 1151 247 1151 247 975 112 c 0,55,56
 802 -20 802 -20 578 -20 c 0,0,1
EndSplineSet
Validated: 1
EndChar

StartChar: six
Encoding: 54 54 23
Width: 1374
GlyphClass: 2
Flags: W
HStem: -20 120<546.97 853.59> 831 120<956 1080.06> 1510 20G<779.5 1186.76>
VStem: 262 190<231.223 630.604> 1143 193<422.657 761.292>
LayerCount: 2
Fore
SplineSet
704 -20 m 24,0,1
 491 -20 491 -20 381 112 c 0,2,3
 262 254 262 254 262 450 c 0,4,5
 262 526 262 526 280 611 c 0,6,7
 392 1139 392 1139 1167 1530 c 1,8,-1
 1250 1446 l 1,9,10
 970 1273 970 1273 748 1044 c 0,11,12
 529 817 529 817 469 540 c 0,13,14
 452 462 452 462 452 394 c 0,15,16
 452 286 452 286 495 209 c 0,17,18
 555 100 555 100 676 100 c 0,19,20
 794 100 794 100 893 167 c 0,21,22
 1007 243 1007 243 1071 362 c 0,23,24
 1116 446 1116 446 1134 536 c 0,25,26
 1143 582 1143 582 1143 622 c 0,27,28
 1143 676 1143 676 1126 718 c 0,29,30
 1079 831 1079 831 956 831 c 1,31,-1
 939 951 l 1,32,33
 1137 951 1137 951 1251 819 c 0,34,35
 1336 721 1336 721 1336 581 c 0,36,37
 1336 526 1336 526 1323 465 c 0,38,39
 1277 247 1277 247 1101 112 c 0,40,41
 928 -20 928 -20 704 -20 c 24,0,1
EndSplineSet
Validated: 1
EndChar

StartChar: seven
Encoding: 55 55 24
Width: 1000
GlyphClass: 2
Flags: W
HStem: 1382 128<403.313 1033>
LayerCount: 2
Fore
SplineSet
249 -40 m 1,0,1
 553 916 553 916 1033 1382 c 1,2,-1
 491 1382 l 2,3,4
 400 1382 400 1382 311 1271 c 1,5,-1
 290 1271 l 1,6,-1
 380 1436 l 2,7,8
 420 1510 420 1510 525 1510 c 2,9,-1
 1266 1510 l 1,10,-1
 1279 1409 l 1,11,12
 746 895 746 895 465 27 c 1,13,-1
 249 -40 l 1,0,1
EndSplineSet
Validated: 1
EndChar

StartChar: eight
Encoding: 56 56 25
Width: 1341
GlyphClass: 2
Flags: W
HStem: -20 120<496.236 809.397> 774 120<678.094 1025.59> 1410 120<836.389 1147.65>
VStem: 226 200<167.478 469.484> 427 203<940.422 1211.27> 1094 207<408.98 708.008> 1196 199<1089.5 1361.67>
LayerCount: 2
Fore
SplineSet
617 -20 m 0,0,1
 439 -20 439 -20 328 81 c 0,2,3
 226 174 226 174 226 312 c 0,4,5
 226 356 226 356 236 404 c 0,6,7
 282 622 282 622 488 757 c 1,8,-1
 682 690 l 1,9,10
 573 630 573 630 505 530 c 0,11,12
 452 454 452 454 432 353 c 0,13,14
 426 321 426 321 426 293 c 0,15,16
 426 214 426 214 475 162 c 0,17,18
 534 100 534 100 647 100 c 0,19,20
 769 100 769 100 888 197 c 0,21,22
 973 266 973 266 1020 349 c 0,23,24
 1071 439 1071 439 1088 525 c 0,25,26
 1094 555 1094 555 1094 587 c 0,27,28
 1094 663 1094 663 1048 711 c 0,29,30
 989 774 989 774 828 774 c 0,31,32
 624 774 624 774 516 874 c 0,33,34
 427 956 427 956 427 1073 c 0,35,36
 427 1108 427 1108 435 1146 c 0,37,38
 470 1313 470 1313 633 1422 c 0,39,40
 795 1530 795 1530 1004 1530 c 0,41,42
 1198 1530 1198 1530 1306 1430 c 0,43,44
 1395 1348 1395 1348 1395 1231 c 0,45,46
 1395 1196 1395 1196 1387 1158 c 0,47,48
 1357 1015 1357 1015 1232 914 c 1,49,-1
 1057 976 l 1,50,51
 1097 1008 1097 1008 1124 1046 c 0,52,53
 1173 1114 1173 1114 1190 1196 c 0,54,55
 1196 1224 1196 1224 1196 1249 c 0,56,57
 1196 1306 1196 1306 1166 1346 c 0,58,59
 1118 1410 1118 1410 1015 1410 c 0,60,61
 937 1410 937 1410 871 1382 c 0,62,63
 767 1338 767 1338 714 1272 c 0,64,65
 655 1197 655 1197 637 1108 c 0,66,67
 630 1073 630 1073 630 1050 c 0,68,69
 630 995 630 995 657 959 c 0,70,71
 706 894 706 894 859 894 c 0,72,73
 1088 894 1088 894 1199 793 c 0,74,75
 1301 700 1301 700 1301 562 c 0,76,77
 1301 518 1301 518 1291 470 c 0,78,79
 1245 252 1245 252 1039 117 c 0,80,81
 830 -20 830 -20 617 -20 c 0,0,1
EndSplineSet
Validated: 1
EndChar

StartChar: nine
Encoding: 57 57 26
Width: 1374
GlyphClass: 2
Flags: W
HStem: -20 21G<508.238 915.5> 559 120<614.938 739> 1410 120<841.41 1148.03>
VStem: 359 193<748.708 1087.34> 1243 190<879.396 1278.78>
LayerCount: 2
Fore
SplineSet
528 -20 m 1,0,-1
 445 64 l 1,1,2
 725 237 725 237 947 466 c 0,3,4
 1166 693 1166 693 1226 970 c 0,5,6
 1243 1048 1243 1048 1243 1116 c 0,7,8
 1243 1224 1243 1224 1200 1301 c 0,9,10
 1140 1410 1140 1410 1019 1410 c 0,11,12
 901 1410 901 1410 802 1343 c 0,13,14
 688 1267 688 1267 624 1148 c 0,15,16
 579 1064 579 1064 561 974 c 0,17,18
 552 928 552 928 552 888 c 0,19,20
 552 834 552 834 569 792 c 0,21,22
 616 679 616 679 739 679 c 1,23,-1
 756 559 l 1,24,25
 558 559 558 559 444 691 c 0,26,27
 359 789 359 789 359 929 c 0,28,29
 359 984 359 984 372 1045 c 0,30,31
 418 1263 418 1263 594 1398 c 0,32,33
 767 1530 767 1530 991 1530 c 24,34,35
 1204 1530 1204 1530 1314 1398 c 0,36,37
 1433 1256 1433 1256 1433 1060 c 0,38,39
 1433 984 1433 984 1415 899 c 0,40,41
 1303 371 1303 371 528 -20 c 1,0,-1
EndSplineSet
Validated: 1
EndChar

StartChar: colon
Encoding: 58 58 27
Width: 362
GlyphClass: 2
Flags: W
HStem: -20 264<127.398 284.602> 622 264<261.398 418.306>
VStem: 73 266<33.5176 190.482> 207 267<677.33 831.78>
LayerCount: 2
Fore
SplineSet
178 -20 m 128,-1,1
 124 -20 124 -20 94 18 c 0,2,3
 73 46 73 46 73 82 c 0,4,5
 73 96 73 96 76 112 c 0,6,7
 88 167 88 167 134 205.5 c 128,-1,8
 180 244 180 244 234 244 c 128,-1,9
 288 244 288 244 318 206 c 0,10,11
 339 178 339 178 339 142 c 0,12,13
 339 128 339 128 336 112 c 0,14,15
 324 57 324 57 278 18.5 c 128,-1,0
 232 -20 232 -20 178 -20 c 128,-1,1
368 886 m 0,16,17
 424 886 424 886 452 848 c 0,18,19
 474 818 474 818 474 784 c 0,20,21
 474 770 474 770 470 754 c 0,22,23
 458 699 458 699 412 660.5 c 128,-1,24
 366 622 366 622 312 622 c 128,-1,25
 258 622 258 622 228 660 c 0,26,27
 207 688 207 688 207 724 c 0,28,29
 207 738 207 738 210 754 c 0,30,31
 222 809 222 809 268 847.5 c 128,-1,32
 314 886 314 886 368 886 c 0,16,17
EndSplineSet
Validated: 1
EndChar

StartChar: semicolon
Encoding: 59 59 28
Width: 378
GlyphClass: 2
Flags: W
HStem: 622 264<261.398 418.602>
VStem: 186 186<-50.1953 149.359> 207 267<677.33 832.482>
LayerCount: 2
Fore
SplineSet
294 280 m 1,0,1
 372 193 372 193 372 96 c 0,2,3
 372 71 372 71 367 45 c 0,4,5
 337 -94 337 -94 149 -251 c 1,6,-1
 17 -292 l 1,7,8
 156 -142 156 -142 181 -24 c 0,9,10
 186 2 186 2 186 26 c 0,11,12
 186 135 186 135 75 211 c 1,13,-1
 294 280 l 1,0,1
368 886 m 128,-1,15
 422 886 422 886 452 848 c 0,16,17
 474 820 474 820 474 784 c 0,18,19
 474 770 474 770 470 754 c 0,20,21
 458 699 458 699 412 660.5 c 128,-1,22
 366 622 366 622 312 622 c 128,-1,23
 258 622 258 622 228 660 c 0,24,25
 207 688 207 688 207 724 c 0,26,27
 207 739 207 739 210 754 c 0,28,29
 222 809 222 809 268 847.5 c 128,-1,14
 314 886 314 886 368 886 c 128,-1,15
EndSplineSet
Validated: 1
EndChar

StartChar: less
Encoding: 60 60 29
Width: 1250
GlyphClass: 2
Flags: W
DStem2: 565 726 296 685 0.888027 -0.459791<0 569.625> 485 869 565 726 0.920363 0.391066<17.7066 791.982>
LayerCount: 2
Fore
SplineSet
1264 1200 m 1,0,-1
 1296 1156 l 1,1,2
 1272 1023 1272 1023 1108 954 c 2,3,-1
 565 726 l 1,4,-1
 1144 442 l 1,5,-1
 1124 382 l 1,6,7
 1072 345 1072 345 1011 345 c 0,8,9
 953 345 953 345 887 379 c 2,10,-1
 296 685 l 1,11,12
 320 799 320 799 485 869 c 2,13,-1
 1264 1200 l 1,0,-1
EndSplineSet
Validated: 1
EndChar

StartChar: equal
Encoding: 61 61 30
Width: 1158
GlyphClass: 2
Flags: W
HStem: 484 160<318.152 1079.85> 846 160<395.152 1156.85>
LayerCount: 2
Fore
SplineSet
1126 644 m 1,0,-1
 1133 587 l 1,1,2
 1077 484 1077 484 897 484 c 2,3,-1
 272 484 l 1,4,-1
 265 541 l 1,5,6
 321 644 321 644 501 644 c 2,7,-1
 1126 644 l 1,0,-1
1203 1006 m 1,8,-1
 1210 949 l 1,9,10
 1154 846 1154 846 974 846 c 2,11,-1
 349 846 l 1,12,-1
 342 903 l 1,13,14
 398 1006 398 1006 578 1006 c 2,15,-1
 1203 1006 l 1,8,-1
EndSplineSet
Validated: 1
EndChar

StartChar: greater
Encoding: 62 62 31
Width: 1250
GlyphClass: 2
Flags: W
DStem2: 471 591 315 345 0.920363 0.391066<-181.848 588.92>
LayerCount: 2
Fore
SplineSet
568 1200 m 0,0,1
 626 1200 626 1200 692 1166 c 2,2,-1
 1283 860 l 1,3,4
 1259 746 1259 746 1094 676 c 2,5,-1
 315 345 l 1,6,-1
 283 389 l 1,7,8
 307 522 307 522 471 591 c 2,9,-1
 1014 819 l 1,10,-1
 435 1103 l 1,11,-1
 455 1163 l 1,12,13
 507 1200 507 1200 568 1200 c 0,0,1
EndSplineSet
Validated: 1
EndChar

StartChar: question
Encoding: 63 63 32
Width: 1314
GlyphClass: 2
Flags: W
HStem: -20 264<578.398 735.602> 1410 120<841.08 1151.52>
VStem: 524 266<33.5176 190.482> 1207 192<1009.79 1339.55>
LayerCount: 2
Fore
SplineSet
991 1530 m 24,0,1
 1200 1530 1200 1530 1314 1398 c 0,2,3
 1399 1300 1399 1300 1399 1160 c 0,4,5
 1399 1105 1399 1105 1386 1044 c 0,6,7
 1308 678 1308 678 830 360 c 1,8,-1
 589 360 l 1,9,10
 981 633 981 633 1134 941 c 0,11,12
 1183 1040 1183 1040 1197 1115 c 0,13,14
 1207 1170 1207 1170 1207 1215 c 0,15,16
 1207 1269 1207 1269 1192 1308 c 0,17,18
 1150 1410 1150 1410 1019 1410 c 0,19,20
 901 1410 901 1410 801 1343 c 0,21,22
 688 1267 688 1267 624 1148 c 0,23,24
 581 1067 581 1067 561 974 c 1,25,-1
 360 911 l 1,26,27
 359 921 359 921 359 930 c 0,28,29
 359 986 359 986 372 1045 c 0,30,31
 418 1263 418 1263 594 1398 c 0,32,33
 767 1530 767 1530 991 1530 c 24,0,1
629 -20 m 128,-1,35
 575 -20 575 -20 545 18 c 0,36,37
 524 46 524 46 524 82 c 0,38,39
 524 96 524 96 527 112 c 0,40,41
 539 167 539 167 585 205.5 c 128,-1,42
 631 244 631 244 685 244 c 128,-1,43
 739 244 739 244 769 206 c 0,44,45
 790 178 790 178 790 142 c 0,46,47
 790 128 790 128 787 112 c 0,48,49
 775 57 775 57 729 18.5 c 128,-1,34
 683 -20 683 -20 629 -20 c 128,-1,35
EndSplineSet
Validated: 1
EndChar

StartChar: at
Encoding: 64 64 33
Width: 1595
GlyphClass: 2
Flags: W
HStem: -430 98<513.751 931.35> -20 21G<1435.5 1530.74> 0 30<900.022 936> 1012 108<904.274 1167.77>
VStem: 152 158<-80.2266 328.073> 535 204<124.512 353.348> 1398 191<13.571 376.829>
LayerCount: 2
Fore
SplineSet
1466 -20 m 1,0,1
 1405 4 1405 4 1398 67 c 0,2,3
 1343 653 1343 653 1180 953 c 0,4,5
 1148 1012 1148 1012 1063 1012 c 0,6,7
 945 1012 945 1012 762 884 c 0,8,9
 551 736 551 736 439 530 c 0,10,11
 361 387 361 387 326 220 c 0,12,13
 310 142 310 142 310 72 c 0,14,15
 310 -26 310 -26 341 -108 c 0,16,17
 427 -332 427 -332 700 -332 c 0,18,19
 908 -332 908 -332 1110 -197 c 1,20,-1
 1341 -227 l 1,21,22
 1077 -430 1077 -430 771 -430 c 128,-1,23
 465 -430 465 -430 287 -227 c 0,24,25
 152 -73 152 -73 152 153 c 0,26,27
 152 243 152 243 173 345 c 0,28,29
 249 701 249 701 530 917 c 0,30,31
 794 1120 794 1120 1100 1120 c 0,32,33
 1302 1120 1302 1120 1374 982 c 0,34,35
 1533 674 1533 674 1589 18 c 1,36,-1
 1466 -20 l 1,0,1
936 0 m 1,37,38
 535 0 535 0 535 204 c 0,39,40
 535 229 535 229 540 256 c 0,41,42
 594 511 594 511 1089 815 c 1,43,-1
 1102 791 l 1,44,45
 789 508 789 508 745 302 c 0,46,47
 739 272 739 272 739 244 c 0,48,49
 739 90 739 90 942 30 c 1,50,-1
 936 0 l 1,37,38
EndSplineSet
Validated: 1
EndChar

StartChar: A
Encoding: 65 65 34
Width: 1548
GlyphClass: 2
Flags: W
HStem: -20 21G<1369 1465> 0 30<635.995 682> 1100 20G<601 961.833> 1415 34<848.735 893.725> 1510 20G<1045.81 1141.5>
VStem: 168 229<166.476 462.833>
LayerCount: 2
Fore
SplineSet
1400 -20 m 1,0,1
 1338 4 1338 4 1332 67 c 0,2,3
 1269 834 1269 834 1009 1378 c 0,4,5
 987 1424 987 1424 925 1424 c 0,6,7
 887 1424 887 1424 850 1415 c 1,8,-1
 847 1449 l 1,9,-1
 1111 1530 l 1,10,11
 1172 1506 1172 1506 1201 1445 c 0,12,13
 1470 867 1470 867 1543 24 c 1,14,-1
 1400 -20 l 1,0,1
682 0 m 1,15,16
 168 0 168 0 168 284 c 0,17,18
 168 322 168 322 178 365 c 0,19,20
 251 708 251 708 951 1120 c 1,21,-1
 964 1096 l 1,22,23
 466 649 466 649 405 388 c 0,24,25
 397 354 397 354 397 310 c 0,26,27
 397 98 397 98 688 30 c 1,28,-1
 682 0 l 1,15,16
EndSplineSet
Validated: 1
EndChar

StartChar: C
Encoding: 67 67 35
Width: 1489
GlyphClass: 2
Flags: W
HStem: -20 130<599.684 1030.32> 1398 132<1019.63 1437.57>
VStem: 239 187<329.68 744.255>
LayerCount: 2
Fore
SplineSet
858 -20 m 128,-1,1
 552 -20 552 -20 374 183 c 0,2,3
 239 337 239 337 239 563 c 0,4,5
 239 653 239 653 260 755 c 0,6,7
 336 1111 336 1111 617 1327 c 0,8,9
 881 1530 881 1530 1187 1530 c 128,-1,10
 1493 1530 1493 1530 1671 1327 c 1,11,-1
 1588 1174 l 1,12,13
 1500 1398 1500 1398 1248 1398 c 0,14,15
 1050 1398 1050 1398 858 1268 c 0,16,17
 661 1135 661 1135 550 931 c 0,18,19
 476 796 476 796 442 636 c 0,20,21
 426 560 426 560 426 493 c 0,22,23
 426 400 426 400 457 323 c 0,24,25
 540 110 540 110 798 110 c 0,26,27
 1021 110 1021 110 1217 258 c 1,28,-1
 1428 183 l 1,29,0
 1164 -20 1164 -20 858 -20 c 128,-1,1
EndSplineSet
Validated: 1
EndChar

StartChar: E
Encoding: 69 69 36
Width: 1489
GlyphClass: 2
Flags: W
HStem: -20 130<599.684 1030.32> 636 126<476 1314.5> 1398 132<1019.63 1437.57>
VStem: 239 187<329.68 634.385>
LayerCount: 2
Fore
SplineSet
858 -20 m 128,-1,1
 552 -20 552 -20 374 183 c 0,2,3
 239 337 239 337 239 563 c 0,4,5
 239 653 239 653 260 755 c 0,6,7
 336 1111 336 1111 617 1327 c 0,8,9
 881 1530 881 1530 1187 1530 c 128,-1,10
 1493 1530 1493 1530 1671 1327 c 1,11,-1
 1588 1174 l 1,12,13
 1500 1398 1500 1398 1248 1398 c 0,14,15
 1050 1398 1050 1398 858 1268 c 0,16,17
 662 1135 662 1135 550 931 c 0,18,19
 506 851 506 851 476 762 c 1,20,-1
 1224 762 l 2,21,22
 1315 762 1315 762 1404 873 c 1,23,-1
 1425 873 l 1,24,-1
 1334 708 l 2,25,26
 1294 634 1294 634 1190 634 c 2,27,-1
 442 636 l 17,28,29
 426 560 426 560 426 493 c 0,30,31
 426 400 426 400 457 323 c 0,32,33
 540 110 540 110 798 110 c 0,34,35
 1021 110 1021 110 1217 258 c 1,36,-1
 1428 183 l 1,37,0
 1164 -20 1164 -20 858 -20 c 128,-1,1
EndSplineSet
Validated: 1
EndChar

StartChar: F
Encoding: 70 70 37
Width: 1399
GlyphClass: 2
Flags: W
HStem: -430 21G<188.5 293.739> 334 128<488 1144.69> 1398 132<1008.52 1439.05> 1412 34<323.735 368.08>
VStem: 145 158<-407 -339.766> 483 195<1340.5 1462.33>
DStem2: 108.513 -430 298.607 -430 0.207912 0.978148<139.761 820.591 951.407 1579.79>
LayerCount: 2
Fore
SplineSet
232 -430 m 1,0,1
 145 -404 145 -404 145 -296 c 0,2,3
 145 -260 145 -260 154 -216 c 2,4,-1
 479 1312 l 2,5,6
 483 1332 483 1332 483 1349 c 0,7,8
 483 1421 483 1421 400 1421 c 0,9,10
 362 1421 362 1421 325 1412 c 1,11,-1
 322 1446 l 1,12,-1
 592 1530 l 1,13,14
 678 1504 678 1504 678 1394 c 0,15,16
 678 1383 678 1383 677 1371 c 1,17,18
 889 1530 889 1530 1187 1530 c 0,19,20
 1493 1530 1493 1530 1671 1327 c 1,21,-1
 1588 1175 l 1,22,23
 1506 1398 1506 1398 1248 1398 c 0,24,25
 1036 1398 1036 1398 857 1273 c 0,26,27
 627 1112 627 1112 566 830 c 2,28,-1
 488 462 l 1,29,-1
 1057 462 l 2,30,31
 1148 462 1148 462 1237 573 c 1,32,-1
 1258 573 l 1,33,-1
 1168 408 l 2,34,35
 1127 334 1127 334 1023 334 c 2,36,-1
 461 334 l 1,37,-1
 303 -407 l 1,38,-1
 232 -430 l 1,0,1
EndSplineSet
Validated: 1
EndChar

StartChar: G
Encoding: 71 71 38
Width: 1689
GlyphClass: 2
Flags: W
HStem: -430 21G<1282 1384.08> -20 130<599.684 1032.05> 1398 132<1019.63 1437.57>
VStem: 239 187<329.68 744.255>
DStem2: 1207.88 -430 1397.47 -430 0.207912 0.978148<134.649 548.993 660.393 1008.98>
LayerCount: 2
Fore
SplineSet
858 -20 m 0,0,1
 552 -20 552 -20 374 183 c 0,2,3
 239 337 239 337 239 563 c 0,4,5
 239 653 239 653 260 755 c 0,6,7
 336 1111 336 1111 617 1327 c 0,8,9
 881 1530 881 1530 1187 1530 c 128,-1,10
 1493 1530 1493 1530 1671 1327 c 1,11,-1
 1588 1174 l 1,12,13
 1500 1398 1500 1398 1248 1398 c 0,14,15
 1050 1398 1050 1398 858 1268 c 0,16,17
 661 1135 661 1135 550 931 c 0,18,19
 476 796 476 796 442 636 c 0,20,21
 426 560 426 560 426 493 c 0,22,23
 426 400 426 400 457 323 c 0,24,25
 540 110 540 110 798 110 c 0,26,27
 1021 110 1021 110 1217 258 c 1,28,-1
 1345 216 l 1,29,-1
 1433 632 l 1,30,-1
 1505 655 l 1,31,32
 1592 629 1592 629 1592 521 c 0,33,34
 1592 485 1592 485 1583 441 c 2,35,-1
 1403 -404 l 1,36,-1
 1321 -430 l 1,37,38
 1243 -404 1243 -404 1243 -301 c 0,39,40
 1243 -263 1243 -263 1254 -213 c 2,41,-1
 1322 107 l 1,42,43
 1102 -20 1102 -20 858 -20 c 0,0,1
EndSplineSet
Validated: 1
EndChar

StartChar: I
Encoding: 73 73 39
Width: 600
GlyphClass: 2
Flags: W
HStem: -20 21G<280.5 386.609> 1412 34<328.735 373.08> 1510 20G<532.714 640.5>
VStem: 237 159<3 70.503> 488 196<1151.58 1462.16>
DStem2: 200.875 -20 390.875 -20 0.207912 0.978148<139.685 1398.26>
LayerCount: 2
Fore
SplineSet
324 -20 m 1,0,1
 237 6 237 6 237 114 c 0,2,3
 237 150 237 150 246 194 c 2,4,-1
 484 1312 l 2,5,6
 488 1332 488 1332 488 1349 c 0,7,8
 488 1421 488 1421 405 1421 c 0,9,10
 367 1421 367 1421 330 1412 c 1,11,-1
 327 1446 l 1,12,-1
 597 1530 l 1,13,14
 684 1503 684 1503 684 1395 c 0,15,16
 684 1358 684 1358 674 1312 c 2,17,-1
 396 3 l 1,18,-1
 324 -20 l 1,0,1
EndSplineSet
Validated: 1
EndChar

StartChar: J
Encoding: 74 74 40
Width: 600
GlyphClass: 2
Flags: W
HStem: 1412 34<328.735 373.08> 1510 20G<532.714 640.5>
VStem: 488 196<1157.84 1462.36>
DStem2: 118.257 -410 307.895 -410 0.207912 0.978148<167.279 1796.91>
LayerCount: 2
Fore
SplineSet
-62 -410 m 1,0,-1
 -60 -400 l 1,1,2
 138 -317 138 -317 185 -96 c 2,3,-1
 484 1312 l 2,4,5
 488 1332 488 1332 488 1349 c 0,6,7
 488 1421 488 1421 405 1421 c 0,8,9
 367 1421 367 1421 330 1412 c 1,10,-1
 327 1446 l 1,11,-1
 597 1530 l 1,12,13
 684 1504 684 1504 684 1395 c 0,14,15
 684 1358 684 1358 674 1312 c 2,16,-1
 374 -99 l 2,17,18
 308 -410 308 -410 -62 -410 c 1,0,-1
EndSplineSet
Validated: 1
EndChar

StartChar: L
Encoding: 76 76 41
Width: 974
GlyphClass: 2
Flags: W
HStem: 0 128<428.002 901.687> 1412 34<323.735 368.08> 1510 20G<527.714 635.5>
VStem: 232 196<74.5 352.938> 483 196<1155.06 1462.16>
DStem2: 199.764 0 389.914 0 0.207912 0.978148<210.285 1377.89>
LayerCount: 2
Fore
SplineSet
278 0 m 1,0,1
 232 35 232 35 232 114 c 0,2,3
 232 150 232 150 241 194 c 2,4,-1
 479 1312 l 2,5,6
 483 1332 483 1332 483 1349 c 0,7,8
 483 1421 483 1421 400 1421 c 0,9,10
 362 1421 362 1421 325 1412 c 1,11,-1
 322 1446 l 1,12,-1
 592 1530 l 1,13,14
 679 1503 679 1503 679 1395 c 0,15,16
 679 1358 679 1358 669 1312 c 2,17,-1
 432 198 l 2,18,19
 428 181 428 181 428 166 c 0,20,21
 428 144 428 144 436 128 c 1,22,-1
 814 128 l 2,23,24
 905 128 905 128 994 239 c 1,25,-1
 1015 239 l 1,26,-1
 925 74 l 2,27,28
 884 0 884 0 780 0 c 2,29,-1
 278 0 l 1,0,1
EndSplineSet
Validated: 1
EndChar

StartChar: O
Encoding: 79 79 42
Width: 1726
GlyphClass: 2
Flags: W
HStem: -20 130<599.684 1026.03> 1398 132<1019.63 1445.42>
VStem: 239 187<329.68 744.255> 1620 188<763.263 1178.6>
LayerCount: 2
Fore
SplineSet
798 110 m 0,0,1
 996 110 996 110 1189 239 c 0,2,3
 1384 369 1384 369 1496 576 c 0,4,5
 1571 713 1571 713 1604 872 c 0,6,7
 1620 949 1620 949 1620 1016 c 0,8,9
 1620 1110 1620 1110 1590 1185 c 0,10,11
 1504 1398 1504 1398 1248 1398 c 0,12,13
 1050 1398 1050 1398 858 1268 c 0,14,15
 661 1135 661 1135 550 931 c 0,16,17
 476 796 476 796 442 636 c 16,18,19
 426 560 426 560 426 493 c 0,20,21
 426 400 426 400 457 323 c 0,22,23
 540 110 540 110 798 110 c 0,0,1
858 -20 m 128,-1,25
 552 -20 552 -20 374 183 c 0,26,27
 239 337 239 337 239 563 c 0,28,29
 239 653 239 653 260 755 c 0,30,31
 336 1111 336 1111 617 1327 c 0,32,33
 881 1530 881 1530 1187 1530 c 128,-1,34
 1493 1530 1493 1530 1671 1327 c 0,35,36
 1808 1171 1808 1171 1808 944 c 0,37,38
 1808 855 1808 855 1786 755 c 0,39,40
 1711 401 1711 401 1428 183 c 0,41,24
 1164 -20 1164 -20 858 -20 c 128,-1,25
EndSplineSet
Validated: 1
EndChar

StartChar: Q
Encoding: 81 81 43
Width: 1726
GlyphClass: 2
Flags: W
HStem: -430 24<1301.95 1315> -20 130<614.75 841> 1398 132<1019.63 1445.67>
VStem: 239 186<329.771 740.303> 893 189<-301.54 -68.8516> 1620 188<763.263 1178.36>
LayerCount: 2
Fore
SplineSet
858 -20 m 1,0,1
 552 -20 552 -20 374 183 c 0,2,3
 239 337 239 337 239 563 c 0,4,5
 239 653 239 653 260 755 c 0,6,7
 336 1111 336 1111 617 1327 c 0,8,9
 881 1530 881 1530 1187 1530 c 128,-1,10
 1493 1530 1493 1530 1671 1327 c 0,11,12
 1808 1170 1808 1170 1808 944 c 0,13,14
 1808 855 1808 855 1786 755 c 0,15,16
 1710 393 1710 393 1428 183 c 0,17,18
 1187 3 1187 3 1147 -42 c 0,19,20
 1102 -93 1102 -93 1087 -161 c 0,21,22
 1082 -183 1082 -183 1082 -202 c 0,23,24
 1082 -347 1082 -347 1338 -406 c 9,25,-1
 1315 -430 l 1,26,27
 894 -409 894 -409 893 -176 c 0,28,29
 893 -145 893 -145 900 -111 c 0,30,31
 925 4 925 4 1001 83 c 0,32,33
 1068 153 1068 153 1189 239 c 0,34,35
 1392 383 1392 383 1496 576 c 0,36,37
 1571 713 1571 713 1604 872 c 0,38,39
 1620 948 1620 948 1620 1016 c 0,40,41
 1620 1110 1620 1110 1590 1185 c 0,42,43
 1505 1398 1505 1398 1248 1398 c 0,44,45
 1050 1398 1050 1398 858 1268 c 0,46,47
 661 1135 661 1135 550 931 c 0,48,49
 476 796 476 796 442 636 c 0,50,51
 425 555 425 555 425 493 c 0,52,53
 425 403 425 403 457 323 c 0,54,55
 543 110 543 110 841 110 c 1,56,-1
 858 -20 l 1,0,1
EndSplineSet
Validated: 1
EndChar

StartChar: T
Encoding: 84 84 44
Width: 1529
GlyphClass: 2
Flags: W
HStem: -20 130<642.305 1070.32> 1382 128<393.313 810 1033.47 1710.38>
VStem: 278 188<332.26 744.393>
LayerCount: 2
Fore
SplineSet
898 -20 m 0,0,1
 587 -20 587 -20 414 183 c 0,2,3
 278 341 278 341 278 567 c 0,4,5
 278 656 278 656 299 755 c 0,6,7
 375 1111 375 1111 676 1313 c 0,8,9
 736 1353 736 1353 810 1382 c 1,10,-1
 481 1382 l 2,11,12
 390 1382 390 1382 301 1271 c 1,13,-1
 280 1271 l 1,14,-1
 370 1436 l 2,15,16
 411 1510 411 1510 515 1510 c 2,17,-1
 1623 1510 l 2,18,19
 1714 1510 1714 1510 1803 1621 c 1,20,-1
 1824 1621 l 1,21,-1
 1733 1456 l 2,22,23
 1692 1382 1692 1382 1589 1382 c 2,24,-1
 1298 1382 l 2,25,26
 1067 1382 1067 1382 898 1268 c 0,27,28
 701 1135 701 1135 590 931 c 0,29,30
 516 796 516 796 482 636 c 0,31,32
 466 560 466 560 466 493 c 0,33,34
 466 400 466 400 497 323 c 0,35,36
 580 110 580 110 838 110 c 0,37,38
 1061 110 1061 110 1257 258 c 1,39,-1
 1468 183 l 1,40,41
 1204 -20 1204 -20 898 -20 c 0,0,1
EndSplineSet
Validated: 1
EndChar

StartChar: V
Encoding: 86 86 45
Width: 1802
GlyphClass: 2
Flags: W
HStem: -20 21G<906 1001.58> 1413 34<318.735 363.981> 1480 30<1376 1409.72> 1510 20G<523.458 628.5>
VStem: 479 190<1006 1418.36> 1698 234<910.525 1292.96>
LayerCount: 2
Fore
SplineSet
937 -20 m 1,0,1
 875 -1 875 -1 841 58 c 0,2,3
 516 609 516 609 479 1376 c 4,4,5
 477 1422 477 1422 395 1422 c 0,6,7
 357 1422 357 1422 320 1413 c 1,8,-1
 317 1447 l 1,9,-1
 589 1530 l 1,10,11
 668 1513 668 1513 669 1419 c 0,12,13
 681 711 681 711 1092 28 c 1,14,-1
 937 -20 l 1,0,1
1376 1510 m 1,15,16
 1932 1510 1932 1510 1932 1142 c 0,17,18
 1932 1080 1932 1080 1916 1008 c 0,19,20
 1818 556 1818 556 1129 116 c 1,21,-1
 1109 135 l 1,22,23
 1604 627 1604 627 1685 1009 c 0,24,25
 1698 1069 1698 1069 1698 1122 c 0,26,27
 1698 1390 1698 1390 1370 1480 c 1,28,-1
 1376 1510 l 1,15,16
EndSplineSet
Validated: 1
EndChar

StartChar: Y
Encoding: 89 89 46
Width: 1772
GlyphClass: 2
Flags: W
HStem: -430 21G<297 1034.5> 1415 34<319.735 365.079> 1480 30<1346 1380.69> 1510 20G<518.321 624.5>
VStem: 480 185<958.894 1420.36> 1676 234<958.57 1300.56>
LayerCount: 2
Fore
SplineSet
584 1530 m 1,0,1
 665 1513 665 1513 665 1420 c 0,2,3
 665 810 665 810 955 236 c 5,4,-1
 815 193 l 1,5,6
 748 215 748 215 720 271 c 0,7,8
 480 739 480 739 480 1378 c 0,9,10
 480 1424 480 1424 396 1424 c 0,11,12
 358 1424 358 1424 321 1415 c 1,13,-1
 318 1449 l 1,14,-1
 584 1530 l 1,0,1
1346 1510 m 1,15,16
 1910 1510 1910 1510 1910 1168 c 0,17,18
 1910 1117 1910 1117 1897 1058 c 0,19,20
 1752 377 1752 377 317 -430 c 1,21,-1
 297 -411 l 1,22,23
 1557 544 1557 544 1666 1059 c 0,24,25
 1676 1105 1676 1105 1676 1146 c 0,26,27
 1676 1388 1676 1388 1340 1480 c 1,28,-1
 1346 1510 l 1,15,16
EndSplineSet
Validated: 1
EndChar

StartChar: bracketleft
Encoding: 91 91 47
Width: 816
GlyphClass: 2
Flags: W
HStem: -250 124<373 694.824> 1636 124<748 1095.02>
DStem2: 147 -250 346.643 -250 0.207912 0.978148<168.278 1969.74>
LayerCount: 2
Fore
SplineSet
147 -250 m 9,0,-1
 569 1734 l 1,1,-1
 651 1760 l 9,2,-1
 1127 1760 l 1,3,-1
 1132 1721 l 1,4,5
 1082 1636 1082 1636 920 1636 c 2,6,-1
 748 1636 l 9,7,-1
 373 -126 l 1,8,-1
 726 -126 l 1,9,-1
 731 -165 l 1,10,11
 683 -250 683 -250 519 -250 c 2,12,-1
 147 -250 l 9,0,-1
EndSplineSet
Validated: 1
EndChar

StartChar: backslash
Encoding: 92 92 48
Width: 815
GlyphClass: 2
Flags: W
VStem: 379 378
DStem2: 504 1690 385 1452 0.149644 -0.98874<152.165 1715.93>
LayerCount: 2
Fore
SplineSet
692 -180 m 1,0,1
 632 -180 l 1,2,-1
 385 1452 l 2,3,4
 379 1492 379 1492 379 1518 c 128,-1,5
 379 1544 379 1544 385 1577 c 0,6,7
 401 1666 401 1666 444 1690 c 1,8,-1
 504 1690 l 1,9,-1
 751 58 l 2,10,11
 757 18 757 18 757 -8 c 128,-1,12
 757 -34 757 -34 751 -67 c 0,13,14
 735 -156 735 -156 692 -180 c 1,0,1
EndSplineSet
Validated: 1
EndChar

StartChar: bracketright
Encoding: 93 93 49
Width: 816
GlyphClass: 2
Flags: W
HStem: -250 124<41.9844 389> 1636 124<442.176 764>
DStem2: 362.643 -250 562.474 -250 0.207912 0.978148<126.77 1928.23>
LayerCount: 2
Fore
SplineSet
990 1760 m 9,0,-1
 568 -224 l 1,1,-1
 486 -250 l 9,2,-1
 10 -250 l 1,3,-1
 5 -211 l 1,4,5
 55 -126 55 -126 217 -126 c 2,6,-1
 389 -126 l 9,7,-1
 764 1636 l 1,8,-1
 411 1636 l 1,9,-1
 406 1675 l 1,10,11
 454 1760 454 1760 618 1760 c 2,12,-1
 990 1760 l 9,0,-1
EndSplineSet
Validated: 1
EndChar

StartChar: asciicircum
Encoding: 94 94 50
Width: 788
GlyphClass: 2
Flags: W
HStem: 1180 370
LayerCount: 2
Fore
SplineSet
811 1550 m 1,0,1
 859 1363 859 1363 1003 1249 c 1,2,-1
 785 1180 l 1,3,4
 720 1286 720 1286 706 1418 c 1,5,6
 647 1279 647 1279 505 1180 c 1,7,-1
 315 1249 l 1,8,9
 487 1346 487 1346 582 1479 c 1,10,-1
 811 1550 l 1,0,1
EndSplineSet
Validated: 1
EndChar

StartChar: underscore
Encoding: 95 95 51
Width: 1152
GlyphClass: 2
Flags: W
HStem: -194 124<153.984 942.016>
LayerCount: 2
Fore
SplineSet
974 -70 m 1,0,-1
 979 -109 l 1,1,2
 929 -194 929 -194 767 -194 c 2,3,-1
 122 -194 l 1,4,-1
 117 -155 l 1,5,6
 167 -70 167 -70 329 -70 c 2,7,-1
 974 -70 l 1,0,-1
EndSplineSet
Validated: 1
EndChar

StartChar: grave
Encoding: 96 96 52
Width: 479
GlyphClass: 2
Flags: W
HStem: 1190 370
VStem: 572 118<1222.5 1288.93>
LayerCount: 2
Fore
SplineSet
573 1560 m 1,0,1
 663 1410 663 1410 690 1227 c 1,2,-1
 572 1190 l 1,3,4
 507 1376 507 1376 368 1495 c 1,5,-1
 573 1560 l 1,0,1
EndSplineSet
Validated: 1
EndChar

StartChar: a
Encoding: 97 97 53
Width: 1203
GlyphClass: 2
Flags: W
HStem: -20 21G<1040 1135.62> 0 30<514.022 550> 1010 34<614.735 659.781> 1100 20G<795.737 891.5>
VStem: 148 205<123.901 350.172>
LayerCount: 2
Fore
SplineSet
1071 -20 m 1,0,1
 1009 4 1009 4 1003 67 c 0,2,3
 952 604 952 604 775 973 c 0,4,5
 753 1019 753 1019 691 1019 c 0,6,7
 653 1019 653 1019 616 1010 c 1,8,-1
 613 1044 l 1,9,-1
 861 1120 l 1,10,11
 922 1096 922 1096 951 1035 c 0,12,13
 1150 612 1150 612 1197 19 c 1,14,-1
 1071 -20 l 1,0,1
550 0 m 1,15,16
 148 0 148 0 148 203 c 0,17,18
 148 228 148 228 154 256 c 0,19,20
 208 500 208 500 719 820 c 1,21,-1
 732 796 l 1,22,23
 402 497 402 497 359 302 c 0,24,25
 353 275 353 275 353 244 c 0,26,27
 353 90 353 90 556 30 c 1,28,-1
 550 0 l 1,15,16
EndSplineSet
Validated: 1
EndChar

StartChar: b
Encoding: 98 98 54
Width: 1328
GlyphClass: 2
Flags: W
HStem: -20 99<488.661 793.495> 1021 99<739.871 1098.7> 1416 34<324.735 369.413> 1510 20G<517.25 625.5>
VStem: 287 162<143.922 527.766> 485 184<1148.02 1418.97> 1188 172<526.208 883.146>
DStem2: 195.809 -20 375.809 -20 0.207912 0.978148<374.153 1402.69>
LayerCount: 2
Fore
SplineSet
660 -20 m 0,0,1
 407 -20 407 -20 325 156 c 0,2,3
 287 238 287 238 287 341 c 0,4,5
 287 409 287 409 304 489 c 2,6,-1
 480 1316 l 2,7,8
 485 1339 485 1339 485 1353 c 0,9,10
 485 1425 485 1425 401 1425 c 0,11,12
 363 1425 363 1425 326 1416 c 1,13,-1
 323 1450 l 1,14,-1
 582 1530 l 1,15,16
 669 1504 669 1504 669 1396 c 0,17,18
 669 1358 669 1358 660 1316 c 2,19,-1
 484 489 l 2,20,21
 449 325 449 325 449 242 c 0,22,23
 449 79 449 79 619 79 c 0,24,25
 748 79 748 79 883 177 c 0,26,27
 1015 273 1015 273 1097 425 c 0,28,29
 1152 526 1152 526 1176 641 c 24,30,31
 1188 698 1188 698 1188 760 c 0,32,33
 1188 821 1188 821 1173 869 c 0,34,35
 1123 1021 1123 1021 946 1021 c 0,36,37
 860 1021 860 1021 772 979 c 1,38,-1
 689 1085 l 1,39,40
 791 1120 791 1120 902 1120 c 0,41,42
 1130 1120 1130 1120 1257 972 c 0,43,44
 1360 851 1360 851 1360 684 c 0,45,46
 1360 620 1360 620 1345 550 c 0,47,48
 1291 295 1291 295 1077 128 c 0,49,50
 888 -20 888 -20 660 -20 c 0,0,1
EndSplineSet
Validated: 1
EndChar

StartChar: c
Encoding: 99 99 55
Width: 1150
GlyphClass: 2
Flags: W
HStem: -20 99<462.803 794.685> 1021 99<764.413 1089.37>
VStem: 202 171<216.854 560.474>
LayerCount: 2
Fore
SplineSet
660 -20 m 0,0,1
 432 -20 432 -20 305 128 c 0,2,3
 202 249 202 249 202 416 c 0,4,5
 202 480 202 480 217 550 c 0,6,7
 271 805 271 805 485 972 c 0,8,9
 674 1120 674 1120 902 1120 c 128,-1,10
 1130 1120 1130 1120 1257 972 c 1,11,-1
 1178 830 l 1,12,13
 1127 1021 1127 1021 946 1021 c 0,14,15
 809 1021 809 1021 680 924 c 0,16,17
 552 827 552 827 469 675 c 0,18,19
 407 559 407 559 386 459 c 0,20,21
 373 396 373 396 373 342 c 0,22,23
 373 282 373 282 389 231 c 0,24,25
 437 79 437 79 616 79 c 0,26,27
 768 79 768 79 897 192 c 1,28,-1
 1077 128 l 1,29,30
 889 -20 889 -20 660 -20 c 0,0,1
EndSplineSet
Validated: 1
EndChar

StartChar: e
Encoding: 101 101 56
Width: 1150
GlyphClass: 2
Flags: W
HStem: -20 99<462.803 794.685> 459 107<418 994.39> 1021 99<764.526 1089.37>
VStem: 202 171<216.854 458.646>
LayerCount: 2
Fore
SplineSet
660 -20 m 0,0,1
 432 -20 432 -20 305 128 c 0,2,3
 202 249 202 249 202 416 c 0,4,5
 202 480 202 480 217 550 c 0,6,7
 271 805 271 805 485 972 c 0,8,9
 674 1120 674 1120 902 1120 c 128,-1,10
 1130 1120 1130 1120 1257 972 c 1,11,-1
 1178 830 l 1,12,13
 1127 1021 1127 1021 946 1021 c 0,14,15
 809 1021 809 1021 680.5 924 c 128,-1,16
 552 827 552 827 469 675 c 0,17,18
 439 619 439 619 418 566 c 1,19,-1
 893 566 l 2,20,21
 984 566 984 566 1073 677 c 1,22,-1
 1094 677 l 1,23,-1
 1015 532 l 2,24,25
 975 458 975 458 870 458 c 2,26,-1
 386 459 l 17,27,28
 373 396 373 396 373 342 c 0,29,30
 373 282 373 282 389 231 c 0,31,32
 437 79 437 79 616 79 c 0,33,34
 768 79 768 79 897 192 c 1,35,-1
 1077 128 l 1,36,37
 889 -20 889 -20 660 -20 c 0,0,1
EndSplineSet
Validated: 1
EndChar

StartChar: h
Encoding: 104 104 57
Width: 1328
GlyphClass: 2
Flags: W
HStem: -20 99<628 791.422> 1021 99<767.332 1098.17> 1419 34<325.735 370.173> 1510 20G<507.584 616>
VStem: 232 137<1.11133 63.4895> 485 175<1157.52 1422.7> 1188 172<531.198 883.146>
DStem2: 195.513 -20 365.514 -20 0.207912 0.978148<139.821 899.332 1112.99 1405.72>
LayerCount: 2
Fore
SplineSet
319 -20 m 1,0,1
 232 6 232 6 232 114 c 0,2,3
 232 152 232 152 241 194 c 2,4,-1
 480 1319 l 2,5,6
 485 1343 485 1343 485 1356 c 0,7,8
 485 1428 485 1428 402 1428 c 0,9,10
 364 1428 364 1428 327 1419 c 1,11,-1
 324 1453 l 1,12,-1
 572 1530 l 1,13,14
 660 1504 660 1504 660 1397 c 0,15,16
 660 1366 660 1366 650 1319 c 2,17,-1
 590 1034 l 1,18,19
 725 1120 725 1120 898 1120 c 0,20,21
 1130 1120 1130 1120 1257 972 c 0,22,23
 1360 851 1360 851 1360 684 c 0,24,25
 1360 620 1360 620 1345 550 c 0,26,27
 1292 297 1292 297 1077 128 c 0,28,29
 889 -20 889 -20 628 -20 c 1,30,-1
 616 79 l 1,31,32
 748 79 748 79 883 177 c 0,33,34
 1017 274 1017 274 1097 425 c 0,35,36
 1153 530 1153 530 1176 641 c 24,37,38
 1188 698 1188 698 1188 760 c 0,39,40
 1188 821 1188 821 1173 869 c 0,41,42
 1123 1021 1123 1021 946 1021 c 0,43,44
 804 1021 804 1021 686 922 c 0,45,46
 540 800 540 800 499 608 c 2,47,-1
 369 -4 l 1,48,-1
 319 -20 l 1,0,1
EndSplineSet
Validated: 1
EndChar

StartChar: i
Encoding: 105 105 58
Width: 580
GlyphClass: 2
Flags: W
HStem: -20 21G<280.5 388.416> 57 34<525.827 570.265> 1009 34<243.157 288.173> 1100 20G<425.584 533.5> 1260 264<487.398 644.602>
VStem: 237 175<87.7512 361.578> 433 266<1313.52 1470.48>
DStem2: 200.513 -20 370.513 -20 0.207912 0.978148<216.676 986.463>
LayerCount: 2
Fore
SplineSet
324 -20 m 1,0,1
 237 6 237 6 237 114 c 0,2,3
 237 150 237 150 246 194 c 2,4,-1
 398 909 l 2,5,6
 402 929 402 929 403 946 c 0,7,8
 403 1018 403 1018 319 1018 c 0,9,10
 281 1018 281 1018 244 1009 c 1,11,-1
 242 1043 l 1,12,-1
 490 1120 l 1,13,14
 577 1094 577 1094 577 987 c 0,15,16
 577 952 577 952 568 909 c 2,17,-1
 416 194 l 2,18,19
 412 174 412 174 412 156 c 0,20,21
 412 82 412 82 494 82 c 0,22,23
 532 82 532 82 569 91 c 1,24,-1
 572 57 l 1,25,-1
 324 -20 l 1,0,1
594 1524 m 128,-1,27
 648 1524 648 1524 678 1486 c 0,28,29
 699 1458 699 1458 699 1422 c 0,30,31
 699 1408 699 1408 696 1392 c 0,32,33
 684 1337 684 1337 638 1298.5 c 128,-1,34
 592 1260 592 1260 538 1260 c 128,-1,35
 484 1260 484 1260 454 1298 c 0,36,37
 433 1326 433 1326 433 1362 c 0,38,39
 433 1376 433 1376 436 1392 c 0,40,41
 448 1447 448 1447 494 1485.5 c 128,-1,26
 540 1524 540 1524 594 1524 c 128,-1,27
EndSplineSet
Validated: 1
EndChar

StartChar: j
Encoding: 106 106 59
Width: 580
GlyphClass: 2
Flags: W
HStem: -430 21G<-49 131.5> 1009 34<243.157 288.173> 1100 20G<425.584 533.5> 1260 264<487.398 644.602>
VStem: 403 174<739.898 1012.39> 433 266<1313.52 1470.48>
DStem2: 114.021 -430 283.659 -430 0.207912 0.978148<305.476 1405.49>
LayerCount: 2
Fore
SplineSet
594 1524 m 128,-1,1
 648 1524 648 1524 678 1486 c 0,2,3
 699 1458 699 1458 699 1422 c 0,4,5
 699 1408 699 1408 696 1392 c 0,6,7
 684 1337 684 1337 638 1298.5 c 128,-1,8
 592 1260 592 1260 538 1260 c 128,-1,9
 484 1260 484 1260 454 1298 c 0,10,11
 433 1326 433 1326 433 1362 c 0,12,13
 433 1376 433 1376 436 1392 c 0,14,15
 448 1447 448 1447 494 1485.5 c 128,-1,0
 540 1524 540 1524 594 1524 c 128,-1,1
-51 -430 m 1,16,-1
 -49 -420 l 1,17,18
 160 -214 160 -214 222 78 c 2,19,-1
 398 909 l 2,20,21
 402 929 402 929 403 946 c 0,22,23
 403 1018 403 1018 319 1018 c 0,24,25
 281 1018 281 1018 244 1009 c 1,26,-1
 242 1043 l 1,27,-1
 490 1120 l 1,28,29
 577 1094 577 1094 577 987 c 0,30,31
 577 952 577 952 568 909 c 2,32,-1
 391 75 l 2,33,34
 314 -287 314 -287 -51 -430 c 1,16,-1
EndSplineSet
Validated: 1
EndChar

StartChar: l
Encoding: 108 108 60
Width: 580
GlyphClass: 2
Flags: W
HStem: -20 21G<280.5 388.416> 57 34<525.827 570.265> 1419 34<330.735 375.173> 1510 20G<512.584 621>
VStem: 237 175<87.7512 352.203> 490 175<1160.8 1422.7>
DStem2: 200.513 -20 370.513 -20 0.207912 0.978148<216.676 1405.66>
LayerCount: 2
Fore
SplineSet
324 -20 m 1,0,1
 237 6 237 6 237 114 c 0,2,3
 237 150 237 150 246 194 c 2,4,-1
 485 1319 l 2,5,6
 490 1341 490 1341 490 1356 c 0,7,8
 490 1428 490 1428 407 1428 c 0,9,10
 369 1428 369 1428 332 1419 c 1,11,-1
 329 1453 l 1,12,-1
 577 1530 l 1,13,14
 665 1504 665 1504 665 1397 c 0,15,16
 665 1362 665 1362 655 1319 c 2,17,-1
 416 194 l 2,18,19
 412 174 412 174 412 156 c 0,20,21
 412 82 412 82 494 82 c 0,22,23
 532 82 532 82 569 91 c 1,24,-1
 572 57 l 1,25,-1
 324 -20 l 1,0,1
EndSplineSet
Validated: 1
EndChar

StartChar: m
Encoding: 109 109 61
Width: 2076
GlyphClass: 2
Flags: W
HStem: -18 99<469.815 648 1376 1546.81> 1021 99<769.532 1071.39 1514.68 1846.43>
VStem: 202 171<219.079 569.364> 980 148<1.11133 66.4895> 1936 172<531.107 883.146>
DStem2: 943.877 -20 1123.88 -20 0.207912 0.978148<139.685 891.508>
LayerCount: 2
Fore
SplineSet
1067 -20 m 1,0,1
 980 6 980 6 980 114 c 0,2,3
 980 150 980 150 989 194 c 2,4,-1
 1078 611 l 2,5,6
 1113 778 1113 778 1113 858 c 0,7,8
 1113 1021 1113 1021 943 1021 c 0,9,10
 814 1021 814 1021 679 923 c 0,11,12
 547 827 547 827 464 675 c 0,13,14
 410 574 410 574 386 461 c 0,15,16
 373 398 373 398 373 344 c 0,17,18
 373 284 373 284 389 233 c 0,19,20
 437 81 437 81 648 81 c 1,21,-1
 660 -18 l 1,22,23
 432 -18 432 -18 306 130 c 0,24,25
 202 252 202 252 202 418 c 0,26,27
 202 482 202 482 217 552 c 0,28,29
 271 805 271 805 485 972 c 0,30,31
 673 1120 673 1120 907 1120 c 0,32,33
 1155 1120 1155 1120 1237 944 c 1,34,35
 1417 1120 1417 1120 1648 1120 c 0,36,37
 1878 1120 1878 1120 2005 972 c 0,38,39
 2108 851 2108 851 2108 684 c 0,40,41
 2108 620 2108 620 2093 550 c 0,42,43
 2038 294 2038 294 1825 128 c 0,44,45
 1637 -20 1637 -20 1376 -20 c 1,46,-1
 1364 79 l 1,47,48
 1496 79 1496 79 1631 177 c 0,49,50
 1767 276 1767 276 1845 425 c 0,51,52
 1901 530 1901 530 1924 641 c 24,53,54
 1936 698 1936 698 1936 760 c 0,55,56
 1936 821 1936 821 1921 869 c 0,57,58
 1871 1021 1871 1021 1694 1021 c 0,59,60
 1552 1021 1552 1021 1434 922 c 0,61,62
 1300 810 1300 810 1258 611 c 2,63,-1
 1128 -1 l 1,64,-1
 1067 -20 l 1,0,1
EndSplineSet
Validated: 1
EndChar

StartChar: n
Encoding: 110 110 62
Width: 1368
GlyphClass: 2
Flags: W
HStem: -20 21G<244 327 811 1043.92> 1010 34<238.735 283.403 1130.39 1141.43> 1100 20G<418.263 511.5 1267.56 1358>
VStem: 218 109<-3 64.6509> 1250 134<810.094 1072.1>
DStem2: 196.095 -20 322.921 -20 0.207912 0.978148<87.3916 781.878> 1035.82 -20 1164.03 -20 0.207912 0.978148<145.172 1039>
LayerCount: 2
Fore
SplineSet
270 -20 m 1,0,1
 218 0 218 0 218 64 c 0,2,3
 218 86 218 86 223 109 c 2,4,-1
 401 944 l 1,5,6
 387 1019 387 1019 315 1019 c 0,7,8
 277 1019 277 1019 240 1010 c 1,9,-1
 237 1044 l 1,10,-1
 483 1120 l 1,11,12
 540 1108 540 1108 563 1009 c 0,13,14
 701 417 701 417 1066 122 c 1,15,-1
 1249 982 l 2,16,17
 1250 987 1250 987 1250 997 c 0,18,19
 1250 1032 1250 1032 1206 1032 c 0,20,21
 1168 1032 1168 1032 1131 1023 c 1,22,-1
 1129 1057 l 1,23,-1
 1332 1120 l 1,24,25
 1384 1100 1384 1100 1384 1036 c 0,26,27
 1384 1015 1384 1015 1379 991 c 2,28,-1
 1177 41 l 1,29,-1
 979 -20 l 1,30,31
 643 246 643 246 480 719 c 1,32,-1
 327 -3 l 1,33,-1
 270 -20 l 1,0,1
EndSplineSet
Validated: 1
EndChar

StartChar: o
Encoding: 111 111 63
Width: 1328
GlyphClass: 2
Flags: W
HStem: -20 99<462.803 792.916> 1021 99<769.084 1098.95>
VStem: 201 172<216.854 568.206> 1188 173<525.975 883.146>
LayerCount: 2
Fore
SplineSet
616 79 m 0,0,1
 748 79 748 79 883 177 c 0,2,3
 1015 273 1015 273 1097 425 c 0,4,5
 1155 532 1155 532 1176 641 c 0,6,7
 1188 706 1188 706 1188 760 c 0,8,9
 1188 821 1188 821 1173 869 c 0,10,11
 1123 1021 1123 1021 946 1021 c 0,12,13
 814 1021 814 1021 679 923 c 128,-1,14
 544 825 544 825 464 675 c 0,15,16
 410 574 410 574 386 459 c 16,17,18
 373 396 373 396 373 342 c 0,19,20
 373 282 373 282 389 231 c 0,21,22
 437 79 437 79 616 79 c 0,0,1
660 -20 m 0,23,24
 432 -20 432 -20 305 128 c 0,25,26
 201 249 201 249 201 416 c 0,27,28
 201 483 201 483 216 550 c 0,29,30
 271 806 271 806 485 972 c 0,31,32
 676 1120 676 1120 902 1120 c 0,33,34
 1131 1120 1131 1120 1257 972 c 0,35,36
 1361 851 1361 851 1361 684 c 0,37,38
 1361 616 1361 616 1346 550 c 0,39,40
 1291 294 1291 294 1077 128 c 0,41,42
 886 -20 886 -20 660 -20 c 0,23,24
EndSplineSet
Validated: 1
EndChar

StartChar: p
Encoding: 112 112 64
Width: 1328
GlyphClass: 2
Flags: W
HStem: -430 21G<188.5 282> -20 99<628 791.422> 1009 34<238.157 283.173> 1021 99<767.714 1098.17>
VStem: 145 137<-408.889 -346.482> 1188 172<531.448 883.146>
DStem2: 108.387 -430 278.366 -430 0.207912 0.978148<139.847 1318.49>
LayerCount: 2
Fore
SplineSet
232 -430 m 1,0,1
 145 -404 145 -404 145 -296 c 0,2,3
 145 -258 145 -258 154 -216 c 2,4,-1
 393 909 l 2,5,6
 399 936 399 936 399 946 c 0,7,8
 399 1018 399 1018 314 1018 c 0,9,10
 276 1018 276 1018 239 1009 c 1,11,-1
 237 1043 l 1,12,-1
 485 1120 l 1,13,14
 556 1099 556 1099 569 1020 c 1,15,16
 711 1120 711 1120 898 1120 c 0,17,18
 1130 1120 1130 1120 1257 972 c 0,19,20
 1360 851 1360 851 1360 684 c 0,21,22
 1360 620 1360 620 1345 550 c 0,23,24
 1292 297 1292 297 1077 128 c 0,25,26
 889 -20 889 -20 628 -20 c 1,27,-1
 616 79 l 1,28,29
 748 79 748 79 883 177 c 0,30,31
 1017 274 1017 274 1097 425 c 0,32,33
 1153 531 1153 531 1176 641 c 24,34,35
 1188 698 1188 698 1188 760 c 0,36,37
 1188 821 1188 821 1173 869 c 0,38,39
 1123 1021 1123 1021 946 1021 c 0,40,41
 804 1021 804 1021 686 922 c 0,42,43
 540 800 540 800 499 608 c 2,44,-1
 282 -414 l 1,45,-1
 232 -430 l 1,0,1
EndSplineSet
Validated: 1
EndChar

StartChar: v
Encoding: 118 118 65
Width: 1390
GlyphClass: 2
Flags: W
HStem: -20 21G<691.5 788.5> 1008 34<233.157 278.5> 1070 30<1010 1037.5> 1100 20G<420.128 524>
VStem: 1243 214<634.455 945.312>
LayerCount: 2
Fore
SplineSet
725 -20 m 1,0,1
 658 0 658 0 629 58 c 0,2,3
 434 439 434 439 394 971 c 0,4,5
 390 1017 390 1017 309 1017 c 0,6,7
 271 1017 271 1017 234 1008 c 1,8,-1
 232 1042 l 1,9,-1
 485 1120 l 1,10,11
 563 1104 563 1104 565 1009 c 0,12,13
 580 520 580 520 852 20 c 1,14,-1
 725 -20 l 1,0,1
1010 1100 m 1,15,16
 1457 1100 1457 1100 1457 825 c 0,17,18
 1457 783 1457 783 1446 735 c 0,19,20
 1375 407 1375 407 871 85 c 1,21,-1
 858 109 l 1,22,23
 1170 398 1170 398 1231 689 c 0,24,25
 1243 744 1243 744 1243 791 c 0,26,27
 1243 1006 1243 1006 1003 1070 c 1,28,-1
 1010 1100 l 1,15,16
EndSplineSet
Validated: 1
EndChar

StartChar: w
Encoding: 119 119 66
Width: 1875
GlyphClass: 2
Flags: W
HStem: -20 21G<691.5 788.5 1176.5 1273.5> 1008 34<233.157 278.5 718.157 763.5> 1070 30<1495 1522.5> 1100 20G<420.128 524 905.128 1009>
VStem: 1728 214<634.455 945.312>
LayerCount: 2
Fore
SplineSet
725 -20 m 1,0,1
 658 0 658 0 629 58 c 0,2,3
 434 439 434 439 394 971 c 0,4,5
 390 1017 390 1017 309 1017 c 0,6,7
 271 1017 271 1017 234 1008 c 1,8,-1
 232 1042 l 1,9,-1
 485 1120 l 1,10,11
 563 1104 563 1104 565 1009 c 0,12,13
 580 520 580 520 852 20 c 1,14,-1
 725 -20 l 1,0,1
1210 -20 m 1,15,16
 1143 0 1143 0 1114 58 c 0,17,18
 919 439 919 439 879 971 c 0,19,20
 875 1017 875 1017 794 1017 c 0,21,22
 756 1017 756 1017 719 1008 c 1,23,-1
 717 1042 l 1,24,-1
 970 1120 l 1,25,26
 1048 1104 1048 1104 1050 1009 c 0,27,28
 1065 520 1065 520 1337 20 c 1,29,-1
 1210 -20 l 1,15,16
1495 1100 m 1,30,31
 1942 1100 1942 1100 1942 825 c 0,32,33
 1942 783 1942 783 1931 735 c 0,34,35
 1860 407 1860 407 1356 85 c 1,36,-1
 1343 109 l 1,37,38
 1655 398 1655 398 1716 689 c 0,39,40
 1728 744 1728 744 1728 791 c 0,41,42
 1728 1006 1728 1006 1488 1070 c 1,43,-1
 1495 1100 l 1,30,31
EndSplineSet
Validated: 1
EndChar

StartChar: braceleft
Encoding: 123 123 67
Width: 801
GlyphClass: 2
Flags: W
HStem: -170 34<618.587 663.265> 724 62<325.73 458.432>
VStem: 319 185<-138.644 27.488> 470 180<421.734 718.585>
DStem2: 282.513 -250 462.513 -250 0.207912 0.978148<219.702 920.749 1089.74 1980.87>
LayerCount: 2
Fore
SplineSet
406 -250 m 1,0,1
 319 -224 319 -224 319 -116 c 0,2,3
 319 -80 319 -80 328 -36 c 2,4,-1
 466 615 l 2,5,6
 470 635 470 635 470 652 c 0,7,8
 470 724 470 724 387 724 c 0,9,10
 349 724 349 724 312 715 c 1,11,-1
 310 755 l 1,12,-1
 329 795 l 1,13,14
 362 786 362 786 400 786 c 0,15,16
 502 786 502 786 525 895 c 2,17,-1
 664 1546 l 2,18,19
 702 1725 702 1725 832 1760 c 1,20,-1
 1057 1680 l 1,21,-1
 1040 1646 l 1,22,23
 1007 1655 1007 1655 969 1655 c 0,24,25
 867 1655 867 1655 844 1546 c 2,26,-1
 705 895 l 2,27,28
 680 776 680 776 553 755 c 1,29,30
 650 733 650 733 650 652 c 0,31,32
 650 635 650 635 646 615 c 2,33,-1
 508 -36 l 2,34,35
 504 -56 504 -56 504 -73 c 0,36,37
 504 -145 504 -145 587 -145 c 0,38,39
 625 -145 625 -145 662 -136 c 1,40,-1
 665 -170 l 1,41,-1
 406 -250 l 1,0,1
EndSplineSet
Validated: 1
EndChar

StartChar: bar
Encoding: 124 124 68
Width: 660
GlyphClass: 2
Flags: W
VStem: 246 130<-161 -93.5631> 605 130<1603.56 1671>
LayerCount: 2
Fore
SplineSet
315 -180 m 1,0,1
 246 -155 246 -155 246 -57 c 0,2,3
 246 -18 246 -18 257 34 c 2,4,-1
 605 1671 l 1,5,-1
 666 1690 l 1,6,7
 735 1666 735 1666 735 1567 c 0,8,9
 735 1528 735 1528 724 1476 c 2,10,-1
 376 -161 l 1,11,-1
 315 -180 l 1,0,1
EndSplineSet
Validated: 1
EndChar

StartChar: braceright
Encoding: 125 125 69
Width: 801
GlyphClass: 2
Flags: W
HStem: 724 62<663.568 796.098> 1646 34<459.735 504.413>
VStem: 472 180<791.277 1078.09> 619 185<1383.25 1649.28>
DStem2: 231.513 -250 411.513 -250 0.207912 0.978148<111.399 1000.68 1171.73 1872.99>
LayerCount: 2
Fore
SplineSet
289 -250 m 1,0,1
 64 -170 l 1,2,-1
 81 -136 l 1,3,4
 114 -145 114 -145 152 -145 c 0,5,6
 254 -145 254 -145 277 -36 c 2,7,-1
 417 615 l 2,8,9
 441 730 441 730 568 755 c 5,10,11
 472 771 472 771 472 856 c 0,12,13
 472 874 472 874 476 895 c 2,14,-1
 615 1546 l 2,15,16
 619 1566 619 1566 619 1583 c 0,17,18
 619 1655 619 1655 536 1655 c 0,19,20
 498 1655 498 1655 461 1646 c 1,21,-1
 458 1680 l 1,22,-1
 717 1760 l 1,23,24
 804 1734 804 1734 804 1626 c 0,25,26
 804 1590 804 1590 795 1546 c 2,27,-1
 656 895 l 2,28,29
 652 875 652 875 652 858 c 0,30,31
 652 786 652 786 735 786 c 0,32,33
 773 786 773 786 810 795 c 1,34,-1
 811 755 l 1,35,-1
 793 715 l 1,36,37
 760 724 760 724 722 724 c 0,38,39
 620 724 620 724 597 615 c 2,40,-1
 457 -36 l 2,41,42
 419 -215 419 -215 289 -250 c 1,0,1
EndSplineSet
Validated: 1
EndChar

StartChar: asciitilde
Encoding: 126 126 70
Width: 1230
GlyphClass: 2
Flags: W
HStem: 543 166<832.727 1064.33> 769 166<479.67 707.524>
LayerCount: 2
Fore
SplineSet
1277 927 m 1,0,-1
 1090 585 l 1,1,2
 1016 543 1016 543 932 543 c 0,3,4
 780 543 780 543 737 668 c 2,5,-1
 731 684 l 2,6,7
 701 769 701 769 602 769 c 256,8,9
 464 769 464 769 339 551 c 1,10,-1
 267 551 l 1,11,-1
 454 893 l 1,12,13
 528 935 528 935 612 935 c 0,14,15
 762 935 762 935 808 802 c 2,16,-1
 814 786 l 2,17,18
 841 709 841 709 942 709 c 256,19,20
 1080 709 1080 709 1205 927 c 1,21,-1
 1277 927 l 1,0,-1
EndSplineSet
Validated: 1
EndChar

StartChar: exclamdown
Encoding: 161 161 72
Width: 692
GlyphClass: 2
Flags: W
HStem: 856 264<497.398 654.602>
VStem: 159 221<-410 -91.9385> 420 172<578 750> 443 266<909.518 1066.48>
LayerCount: 2
Fore
SplineSet
380 -410 m 1,0,1
 159 -410 l 1,2,3
 178 -204 178 -204 227 32 c 0,4,5
 305 399 305 399 420 750 c 1,6,-1
 592 750 l 1,7,8
 519 511 519 511 471 285 c 0,9,10
 394 -78 394 -78 380 -410 c 1,0,1
604 1120 m 128,-1,12
 658 1120 658 1120 688 1082 c 0,13,14
 709 1054 709 1054 709 1018 c 0,15,16
 709 1004 709 1004 706 988 c 0,17,18
 694 933 694 933 648 894.5 c 128,-1,19
 602 856 602 856 548 856 c 128,-1,20
 494 856 494 856 464 894 c 0,21,22
 443 922 443 922 443 958 c 0,23,24
 443 972 443 972 446 988 c 0,25,26
 458 1043 458 1043 504 1081.5 c 128,-1,11
 550 1120 550 1120 604 1120 c 128,-1,12
EndSplineSet
Validated: 1
EndChar

StartChar: cent
Encoding: 162 162 73
Width: 1150
GlyphClass: 2
Flags: W
HStem: -19 98<468.678 618> 1021 97<960 1084.46>
VStem: 202 172<216.399 566.115> 605 79<-180 -111.693> 894 79<1212.11 1280>
DStem2: 581.865 -189 681.653 -189 0.207912 0.978148<90.5522 173.798 316.186 1220.75 1357.06 1440.3>
LayerCount: 2
Fore
SplineSet
618 -19 m 1,0,1
 420 -6 420 -6 305 128 c 0,2,3
 202 249 202 249 202 416 c 0,4,5
 202 480 202 480 217 550 c 0,6,7
 271 805 271 805 485 972 c 0,8,9
 656 1106 656 1106 860 1119 c 1,10,-1
 894 1280 l 1,11,-1
 924 1289 l 1,12,13
 973 1264 973 1264 973 1201 c 0,14,15
 973 1180 973 1180 968 1155 c 2,16,-1
 960 1118 l 1,17,18
 1147 1101 1147 1101 1257 972 c 1,19,-1
 1178 830 l 1,20,21
 1127 1021 1127 1021 939 1021 c 9,22,-1
 743 100 l 1,23,24
 824 128 824 128 897 192 c 1,25,-1
 1077 128 l 1,26,27
 913 -1 913 -1 718 -18 c 1,28,-1
 684 -180 l 1,29,-1
 654 -189 l 1,30,31
 605 -165 605 -165 605 -102 c 0,32,33
 605 -81 605 -81 610 -55 c 2,34,-1
 618 -19 l 1,0,1
639 80 m 1,35,-1
 836 1005 l 1,36,37
 756 982 756 982 680 924 c 0,38,39
 552 827 552 827 469 675 c 0,40,41
 407 559 407 559 386 459 c 0,42,43
 374 402 374 402 374 355 c 0,44,45
 374 289 374 289 394 230 c 0,46,47
 446 79 446 79 616 79 c 0,48,49
 628 79 628 79 639 80 c 1,35,-1
EndSplineSet
Validated: 1
EndChar

StartChar: sterling
Encoding: 163 163 74
Width: 1213
GlyphClass: 2
Flags: W
HStem: 0 128<439.002 1100.69> 495 99<189.655 305 526 973.345> 720 99<237.655 353 574 1021.35> 1431 99<872.377 1180.53>
VStem: 232 207<80 362.547>
DStem2: 199.764 0 400.276 0 0.207912 0.978148<215.506 506.063 648.848 736.126 878.911 1313.9>
LayerCount: 2
Fore
SplineSet
278 0 m 1,0,1
 232 41 232 41 232 119 c 0,2,3
 232 153 232 153 241 194 c 2,4,-1
 305 495 l 1,5,-1
 161 495 l 1,6,-1
 159 513 l 1,7,8
 209 594 209 594 317 594 c 2,9,-1
 326 594 l 1,10,-1
 353 720 l 1,11,-1
 209 720 l 1,12,-1
 207 738 l 1,13,14
 257 819 257 819 365 819 c 2,15,-1
 374 819 l 1,16,-1
 417 1021 l 2,17,18
 465 1245 465 1245 589 1368 c 0,19,20
 752 1530 752 1530 984.5 1530 c 128,-1,21
 1217 1530 1217 1530 1344 1382 c 1,22,-1
 1266 1240 l 1,23,24
 1215 1431 1215 1431 1045 1431 c 0,25,26
 911 1431 911 1431 793 1332 c 0,27,28
 659 1220 659 1220 617 1021 c 2,29,-1
 574 819 l 1,30,-1
 1050 819 l 1,31,-1
 1052 801 l 1,32,33
 1002 720 1002 720 894 720 c 2,34,-1
 553 720 l 1,35,-1
 526 594 l 1,36,-1
 1002 594 l 1,37,-1
 1004 576 l 1,38,39
 954 495 954 495 846 495 c 2,40,-1
 505 495 l 1,41,-1
 443 201 l 2,42,43
 439 184 439 184 439 169 c 0,44,45
 439 147 439 147 446 128 c 1,46,-1
 1013 128 l 2,47,48
 1104 128 1104 128 1193 239 c 1,49,-1
 1214 239 l 1,50,-1
 1124 74 l 2,51,52
 1083 0 1083 0 979 0 c 2,53,-1
 278 0 l 1,0,1
EndSplineSet
Validated: 1
EndChar

StartChar: currency
Encoding: 164 164 75
Width: 1594
GlyphClass: 2
Flags: W
HStem: 191 99<650.603 981.543> 1232 99<956.985 1287.55>
VStem: 390 171<404.369 780.104> 1376 172<739.19 1115.7>
DStem2: 194 209 283 96 0.769494 0.638654<0 326.281 1572.71 1861.18> 562 1401 424 1287 0.613482 -0.789709<5.36631 244.196 1261.13 1509.42>
LayerCount: 2
Fore
SplineSet
804 290 m 0,0,1
 936 290 936 290 1071 388 c 0,2,3
 1203 484 1203 484 1285 636 c 0,4,5
 1343 743 1343 743 1364 852 c 0,6,7
 1376 917 1376 917 1376 971 c 0,8,9
 1376 1032 1376 1032 1361 1080 c 0,10,11
 1311 1232 1311 1232 1134 1232 c 0,12,13
 1002 1232 1002 1232 867 1134 c 128,-1,14
 732 1036 732 1036 652 886 c 0,15,16
 598 785 598 785 574 670 c 16,17,18
 561 607 561 607 561 553 c 0,19,20
 561 493 561 493 577 442 c 0,21,22
 625 290 625 290 804 290 c 0,0,1
1090 1331 m 0,23,24
 1289 1331 1289 1331 1409 1219 c 1,25,-1
 1628 1401 l 1,26,-1
 1718 1287 l 1,27,-1
 1498 1104 l 1,28,29
 1548 1010 1548 1010 1548 894 c 0,30,31
 1548 831 1548 831 1533 761 c 0,32,33
 1489 553 1489 553 1338 403 c 1,34,-1
 1488 209 l 1,35,-1
 1351 96 l 1,36,-1
 1199 292 l 1,37,38
 1037 191 1037 191 848 191 c 0,39,40
 651 191 651 191 530 301 c 1,41,-1
 283 96 l 1,42,-1
 194 209 l 1,43,-1
 441 414 l 1,44,45
 390 509 390 509 390 627 c 0,46,47
 390 691 390 691 405 761 c 0,48,49
 445 951 445 951 574 1093 c 1,50,-1
 424 1287 l 1,51,-1
 562 1401 l 1,52,-1
 710 1211 l 1,53,54
 885 1331 885 1331 1090 1331 c 0,23,24
EndSplineSet
Validated: 1
EndChar

StartChar: yen
Encoding: 165 165 76
Width: 1559
GlyphClass: 2
Flags: W
HStem: -20 21G<855 950.186> 229 99<392.655 789 1001 1334.35> 454 99<440.115 751 970 1374.35> 1411 34<318.735 362.875> 1480 30<1266 1294.18> 1510 20G<525 619.5>
VStem: 1492 232<1113.49 1372.25>
DStem2: 953 553 751 553 0.157991 -0.987441<-471.26 -31.9141 100.442 196.264>
LayerCount: 2
Fore
SplineSet
1266 1510 m 1,0,1
 1724 1510 1724 1510 1724 1275 c 0,2,3
 1724 1244 1724 1244 1716 1208 c 0,4,5
 1645 901 1645 901 1020 582 c 1,6,-1
 1007 606 l 1,7,8
 1429 935 1429 935 1485 1197 c 0,9,10
 1491 1226 1491 1226 1492 1253 c 0,11,12
 1492 1415 1492 1415 1260 1480 c 1,13,-1
 1266 1510 l 1,0,1
886 -20 m 1,14,15
 824 4 824 4 818 67 c 0,16,17
 812 149 812 149 802 229 c 1,18,-1
 364 229 l 1,19,-1
 362 247 l 1,20,21
 412 328 412 328 520 328 c 2,22,-1
 789 328 l 1,23,24
 779 392 779 392 769 454 c 1,25,-1
 412 454 l 1,26,-1
 409 472 l 1,27,28
 460 553 460 553 568 553 c 2,29,-1
 751 553 l 1,30,31
 669 975 669 975 482 1375 c 0,32,33
 461 1420 461 1420 395 1420 c 0,34,35
 357 1420 357 1420 320 1411 c 1,36,-1
 317 1445 l 1,37,-1
 589 1530 l 1,38,39
 650 1506 650 1506 679 1445 c 0,40,41
 860 1054 860 1054 953 553 c 1,42,-1
 1403 553 l 1,43,-1
 1405 535 l 1,44,45
 1355 454 1355 454 1247 454 c 2,46,-1
 970 454 l 1,47,48
 980 392 980 392 989 328 c 1,49,-1
 1363 328 l 1,50,-1
 1365 310 l 1,51,52
 1315 229 1315 229 1207 229 c 2,53,-1
 1001 229 l 1,54,55
 1019 88 1019 88 1024 23 c 1,56,-1
 886 -20 l 1,14,15
EndSplineSet
Validated: 1
EndChar

StartChar: brokenbar
Encoding: 166 166 77
Width: 660
GlyphClass: 2
Flags: W
VStem: 246 130<-161 -93.3022> 384 129<561.835 629> 468 129<881 948.165> 605 130<1603.3 1671>
LayerCount: 2
Fore
SplineSet
315 -180 m 1,0,1
 246 -156 246 -156 246 -57 c 0,2,3
 246 -18 246 -18 257 34 c 2,4,-1
 384 629 l 1,5,-1
 445 648 l 1,6,7
 513 624 513 624 513 525 c 0,8,9
 513 486 513 486 502 434 c 2,10,-1
 376 -161 l 1,11,-1
 315 -180 l 1,0,1
536 862 m 1,12,13
 468 886 468 886 468 985 c 0,14,15
 468 1024 468 1024 479 1076 c 2,16,-1
 605 1671 l 1,17,-1
 666 1690 l 1,18,19
 735 1665 735 1665 735 1567 c 0,20,21
 735 1528 735 1528 724 1476 c 2,22,-1
 597 881 l 1,23,-1
 536 862 l 1,12,13
EndSplineSet
Validated: 1
EndChar

StartChar: section
Encoding: 167 167 78
Width: 1139
GlyphClass: 2
Flags: W
HStem: -20 93<392.009 675.657> 435 108<534.265 788.688> 967 108<675.536 924.673> 1437 93<784.343 1067.99>
VStem: 302 198<584.005 813.002> 467 186<1097.9 1311.36> 807 186<198.959 412.319> 960 198<696.998 923.964>
LayerCount: 2
Fore
SplineSet
531 -20 m 0,0,1
 366 -20 366 -20 257 60 c 1,2,-1
 340 210 l 1,3,4
 378 73 378 73 509 73 c 0,5,6
 577 73 577 73 640 99 c 0,7,8
 706 126 706 126 746 176 c 0,9,10
 791 231 791 231 803 292 c 0,11,12
 807 312 807 312 807 330 c 0,13,14
 807 368 807 368 788 392 c 0,15,16
 754 435 754 435 648 435 c 0,17,18
 468 435 468 435 380 514 c 0,19,20
 302 584 302 584 302 685 c 0,21,22
 302 716 302 716 309 749 c 0,23,24
 336 876 336 876 442 966 c 1,25,-1
 612 905 l 1,26,27
 581 872 581 872 557 834 c 0,28,29
 518 773 518 773 505 711 c 0,30,31
 500 688 500 688 500 668 c 0,32,33
 500 615 500 615 533 583 c 0,34,35
 573 543 573 543 676 543 c 0,36,37
 842 543 842 543 924 467 c 0,38,39
 993 404 993 404 993 317 c 0,40,41
 993 292 993 292 987 266 c 0,42,43
 960 141 960 141 838 62 c 0,44,45
 713 -20 713 -20 531 -20 c 0,0,1
929 1530 m 0,46,47
 1094 1530 1094 1530 1203 1450 c 1,48,-1
 1120 1300 l 1,49,50
 1082 1437 1082 1437 951 1437 c 0,51,52
 883 1437 883 1437 820 1411 c 0,53,54
 754 1384 754 1384 714 1334 c 0,55,56
 671 1281 671 1281 657 1218 c 0,57,58
 653 1199 653 1199 653 1182 c 0,59,60
 653 1143 653 1143 674 1117 c 0,61,62
 707 1075 707 1075 811 1075 c 0,63,64
 991 1075 991 1075 1080 996 c 0,65,66
 1158 926 1158 926 1158 825 c 0,67,68
 1158 794 1158 794 1151 761 c 0,69,70
 1124 634 1124 634 1018 544 c 1,71,-1
 848 605 l 1,72,73
 879 638 879 638 903 676 c 0,74,75
 942 737 942 737 955 799 c 0,76,77
 960 821 960 821 960 840 c 0,78,79
 960 892 960 892 926 925 c 0,80,81
 884 967 884 967 784 967 c 0,82,83
 618 967 618 967 536 1043 c 0,84,85
 467 1106 467 1106 467 1193 c 0,86,87
 467 1218 467 1218 473 1244 c 0,88,89
 500 1369 500 1369 622 1448 c 0,90,91
 747 1530 747 1530 929 1530 c 0,46,47
EndSplineSet
Validated: 1
EndChar

StartChar: dieresis
Encoding: 168 168 79
Width: 654
GlyphClass: 2
Flags: W
HStem: 1250 238<382.568 533.432 702.927 853.597>
VStem: 338 240<1294.51 1443.49> 658 240<1294.51 1443.49>
LayerCount: 2
Fore
SplineSet
804 1488 m 128,-1,1
 852 1488 852 1488 879 1454 c 0,2,3
 898 1429 898 1429 898 1396 c 0,4,5
 898 1383 898 1383 895 1369 c 0,6,7
 884 1319 884 1319 843 1284.5 c 128,-1,8
 802 1250 802 1250 754 1250 c 128,-1,9
 706 1250 706 1250 678 1284 c 0,10,11
 658 1309 658 1309 658 1342 c 0,12,13
 658 1355 658 1355 661 1369 c 0,14,15
 672 1419 672 1419 714 1453.5 c 128,-1,0
 756 1488 756 1488 804 1488 c 128,-1,1
483 1488 m 128,-1,17
 532 1488 532 1488 559 1454 c 0,18,19
 578 1429 578 1429 578 1396 c 0,20,21
 578 1383 578 1383 575 1369 c 0,22,23
 564 1319 564 1319 523 1284.5 c 128,-1,24
 482 1250 482 1250 433 1250 c 128,-1,25
 384 1250 384 1250 357 1284 c 0,26,27
 338 1309 338 1309 338 1342 c 0,28,29
 338 1355 338 1355 341 1369 c 0,30,31
 352 1419 352 1419 393 1453.5 c 128,-1,16
 434 1488 434 1488 483 1488 c 128,-1,17
EndSplineSet
Validated: 1
EndChar

StartChar: copyright
Encoding: 169 169 80
Width: 1418
GlyphClass: 2
Flags: W
HStem: 386 77<624.878 999.312> 547 105<699.053 969.973> 1255 106<883.095 1158.08> 1453 77<825.688 1200.37>
VStem: 343 82<659.426 1055.31> 512 140<696.985 1010.74> 1400 82<860.688 1256.57>
LayerCount: 2
Fore
SplineSet
1018 1530 m 0,0,1
 1260 1530 1260 1530 1387 1368 c 0,2,3
 1482 1247 1482 1247 1482 1097 c 0,4,5
 1482 1019 1482 1019 1473 964 c 0,6,7
 1433 718 1433 718 1234 553 c 0,8,9
 1032 386 1032 386 807 386 c 0,10,11
 565 386 565 386 438 548 c 0,12,13
 343 669 343 669 343 819 c 0,14,15
 343 897 343 897 352 952 c 0,16,17
 392 1199 392 1199 591 1363 c 0,18,19
 793 1530 793 1530 1018 1530 c 0,0,1
1017 1453 m 0,20,21
 827 1453 827 1453 655 1312 c 0,22,23
 477 1166 477 1166 436 953 c 0,24,25
 425 896 425 896 425 849 c 0,26,27
 425 701 425 701 501 602 c 0,28,29
 608 463 608 463 808 463 c 0,30,31
 998 463 998 463 1170 604 c 0,32,33
 1348 750 1348 750 1389 963 c 0,34,35
 1400 1020 1400 1020 1400 1067 c 0,36,37
 1400 1213 1400 1213 1324 1314 c 0,38,39
 1218 1453 1218 1453 1017 1453 c 0,20,21
1011 1361 m 128,-1,41
 1172 1361 1172 1361 1273 1245 c 1,42,-1
 1200 1123 l 1,43,44
 1171 1255 1171 1255 1050 1255 c 0,45,46
 944 1255 944 1255 846 1188 c 0,47,48
 697 1087 697 1087 659 895 c 0,49,50
 652 860 652 860 652 828 c 0,51,52
 652 784 652 784 666 748 c 0,53,54
 704 652 704 652 808 652 c 0,55,56
 909 652 909 652 1007 718 c 1,57,-1
 1170 679 l 1,58,59
 1010 547 1010 547 836 547 c 0,60,61
 676 548 676 548 580 658 c 0,62,63
 512 736 512 736 512 851 c 0,64,65
 512 898 512 898 524 954 c 0,66,67
 564 1140 564 1140 707 1250.5 c 128,-1,40
 850 1361 850 1361 1011 1361 c 128,-1,41
EndSplineSet
Validated: 1
EndChar

StartChar: ordfeminine
Encoding: 170 170 81
Width: 692
GlyphClass: 2
Flags: W
HStem: 715 124<243.771 777.229> 929 30<475.791 511> 1449 31<504.451 540.562> 1510 20G<594.6 680>
VStem: 275 141<983.355 1160.12> 707 136<940.499 1240.25>
LayerCount: 2
Fore
SplineSet
659 1530 m 1,0,1
 701 1514 701 1514 718 1478 c 0,2,3
 817 1269 817 1269 843 945 c 1,4,-1
 757 918 l 1,5,6
 711 937 711 937 707 976 c 0,7,8
 683 1254 683 1254 592 1424 c 0,9,10
 576 1454 576 1454 541 1454 c 0,11,12
 527 1454 527 1454 510 1449 c 1,13,-1
 498 1480 l 1,14,-1
 659 1530 l 1,0,1
518 959 m 1,15,-1
 511 929 l 1,16,17
 275 929 275 929 275 1044 c 0,18,19
 275 1057 275 1057 278 1072 c 0,20,21
 308 1213 308 1213 549 1354 c 1,22,-1
 562 1328 l 1,23,24
 444 1211 444 1211 420 1100 c 0,25,26
 416 1082 416 1082 416 1066 c 0,27,28
 416 984 416 984 518 959 c 1,15,-1
805 839 m 1,29,-1
 810 796 l 1,30,31
 760 715 760 715 622 715 c 2,32,-1
 216 715 l 1,33,-1
 211 758 l 1,34,35
 261 839 261 839 399 839 c 2,36,-1
 805 839 l 1,29,-1
EndSplineSet
Validated: 1
EndChar

StartChar: guillemotleft
Encoding: 171 171 82
Width: 1174
GlyphClass: 2
Flags: W
DStem2: 467 732 313 668 0.440462 -0.897771<0 403.737> 867 732 713 668 0.440462 -0.897771<0 403.737> 738 1270 467 732 0.675362 0.737487<-579.791 -25.5362> 1138 1270 867 732 0.675362 0.737487<-579.791 -25.5362>
LayerCount: 2
Fore
SplineSet
1138 1270 m 1,0,-1
 1192 1253 l 1,1,2
 1209 1204 1209 1204 1209 1186 c 0,3,4
 1209 1171 1209 1171 1206 1154 c 0,5,6
 1191 1084 1191 1084 1112 998 c 2,7,-1
 867 732 l 1,8,-1
 1050 359 l 1,9,-1
 1004 311 l 1,10,11
 989 308 989 308 975 308 c 0,12,13
 891 308 891 308 832 427 c 2,14,-1
 713 668 l 1,15,16
 705 690 705 690 705 713 c 0,17,18
 705 729 705 729 709 747 c 0,19,20
 724 818 724 818 801 902 c 2,21,-1
 1138 1270 l 1,0,-1
738 1270 m 1,22,-1
 792 1253 l 1,23,24
 809 1204 809 1204 809 1186 c 0,25,26
 809 1171 809 1171 806 1154 c 0,27,28
 791 1084 791 1084 712 998 c 2,29,-1
 467 732 l 1,30,-1
 650 359 l 1,31,-1
 604 311 l 1,32,33
 589 308 589 308 575 308 c 0,34,35
 491 308 491 308 432 427 c 2,36,-1
 313 668 l 1,37,38
 305 690 305 690 305 713 c 0,39,40
 305 729 305 729 309 747 c 0,41,42
 324 818 324 818 401 902 c 2,43,-1
 738 1270 l 1,22,-1
EndSplineSet
Validated: 1
EndChar

StartChar: logicalnot
Encoding: 172 172 83
Width: 1158
GlyphClass: 2
Flags: W
HStem: 665 160<344 1006.12>
LayerCount: 2
Fore
SplineSet
344 825 m 1,0,-1
 969 825 l 2,1,2
 1148 825 1148 825 1157 702 c 1,3,-1
 1015 440 l 1,4,-1
 983 450 l 1,5,6
 999 485 999 485 1007 523 c 0,7,8
 1013 553 1013 553 1014 577 c 0,9,10
 1014 665 1014 665 925 665 c 2,11,-1
 505 665 l 2,12,13
 325 665 325 665 313 768 c 1,14,-1
 344 825 l 1,0,-1
EndSplineSet
Validated: 1
EndChar

StartChar: uni00AD
Encoding: 173 173 84
Width: 1158
GlyphClass: 2
Flags: W
HStem: 665 160<356.152 1117.85>
LayerCount: 2
Fore
SplineSet
303 722 m 1,0,1
 359 825 359 825 539 825 c 2,2,-1
 1164 825 l 1,3,-1
 1171 768 l 1,4,5
 1115 665 1115 665 935 665 c 2,6,-1
 310 665 l 1,7,-1
 303 722 l 1,0,1
EndSplineSet
Validated: 1
EndChar

StartChar: registered
Encoding: 174 174 85
Width: 1401
GlyphClass: 2
Flags: W
HStem: 386 77<624.878 1000.46> 1249 100<919.713 1091.65> 1269 30<668.566 701.562> 1453 77<825.688 1200.37>
VStem: 343 82<659.426 1055.31> 623 123<553 620.602> 1101 132<1029.38 1221.21> 1400 82<860.251 1256.57>
DStem2: 569.547 386 710.503 386 0.207912 0.978148<239.604 866.595>
LayerCount: 2
Fore
SplineSet
1017 1453 m 0,0,1
 827 1453 827 1453 655 1312 c 0,2,3
 477 1166 477 1166 436 953 c 0,4,5
 425 896 425 896 425 849 c 0,6,7
 425 701 425 701 501 602 c 0,8,9
 608 463 608 463 808 463 c 0,10,11
 959 463 959 463 1099 552 c 1,12,13
 940 700 940 700 860 918 c 1,14,15
 1002 937 1002 937 1061 1035 c 0,16,17
 1091 1084 1091 1084 1097 1120 c 0,18,19
 1101 1143 1101 1143 1101 1161 c 0,20,21
 1101 1185 1101 1185 1094 1202 c 0,22,23
 1074 1249 1074 1249 1017 1249 c 0,24,25
 969 1249 969 1249 928 1220 c 0,26,27
 880 1186 880 1186 862 1100 c 2,28,-1
 746 553 l 1,29,-1
 684 534 l 1,30,31
 623 552 623 552 623 619 c 0,32,33
 623 638 623 638 628 661 c 2,34,-1
 747 1219 l 2,35,36
 749 1228 749 1228 749 1234 c 0,37,38
 749 1251 749 1251 736 1263 c 128,-1,39
 723 1275 723 1275 702 1275 c 0,40,41
 688 1275 688 1275 670 1269 c 1,42,-1
 667 1299 l 1,43,-1
 833 1350 l 1,44,45
 867 1339 867 1339 881 1308 c 1,46,47
 942 1349 942 1349 1013 1349 c 0,48,49
 1126 1349 1126 1349 1188 1277 c 0,50,51
 1233 1226 1233 1226 1233 1151 c 0,52,53
 1233 1121 1233 1121 1226 1088 c 0,54,55
 1199 965 1199 965 1105 895 c 0,56,57
 1070 869 1070 869 1033 853 c 1,58,59
 1099 709 1099 709 1204 633 c 1,60,61
 1352 771 1352 771 1389 963 c 0,62,63
 1400 1020 1400 1020 1400 1067 c 0,64,65
 1400 1213 1400 1213 1324 1314 c 0,66,67
 1218 1453 1218 1453 1017 1453 c 0,0,1
1018 1530 m 0,68,69
 1260 1530 1260 1530 1387 1368 c 0,70,71
 1482 1247 1482 1247 1482 1097 c 0,72,73
 1482 1019 1482 1019 1473 964 c 0,74,75
 1433 718 1433 718 1234 553 c 0,76,77
 1032 386 1032 386 807 386 c 0,78,79
 565 386 565 386 438 548 c 0,80,81
 343 669 343 669 343 819 c 0,82,83
 343 897 343 897 352 952 c 0,84,85
 392 1199 392 1199 591 1363 c 0,86,87
 793 1530 793 1530 1018 1530 c 0,68,69
EndSplineSet
Validated: 1
EndChar

StartChar: macron
Encoding: 175 175 86
Width: 640
GlyphClass: 2
Flags: W
HStem: 1307 124<369.771 852.229>
VStem: 342 538
LayerCount: 2
Fore
SplineSet
880 1431 m 1,0,-1
 885 1388 l 1,1,2
 835 1307 835 1307 697 1307 c 2,3,-1
 342 1307 l 1,4,-1
 337 1350 l 1,5,6
 387 1431 387 1431 525 1431 c 2,7,-1
 880 1431 l 1,0,-1
EndSplineSet
Validated: 1
EndChar

StartChar: degree
Encoding: 176 176 87
Width: 696
GlyphClass: 2
Flags: W
HStem: 944 76<447.447 644.678> 1453 77<574.14 776.089>
VStem: 305 118<1038.09 1298.77> 799 118<1174.92 1434.94>
LayerCount: 2
Fore
SplineSet
535 1020 m 0,0,1
 596 1020 596 1020 657 1065 c 0,2,3
 719 1109 719 1109 757 1179 c 0,4,5
 781 1225 781 1225 793 1279 c 0,6,7
 799 1310 799 1310 799 1335 c 0,8,9
 799 1362 799 1362 792 1384 c 0,10,11
 769 1453 769 1453 687 1453 c 0,12,13
 626 1453 626 1453 564 1408 c 0,14,15
 503 1364 503 1364 465 1294 c 0,16,17
 440 1248 440 1248 429 1195 c 0,18,19
 423 1167 423 1167 423 1142 c 0,20,21
 423 1113 423 1113 431 1089 c 0,22,23
 454 1020 454 1020 535 1020 c 0,0,1
673 1530 m 0,24,25
 802 1530 802 1530 866 1452 c 0,26,27
 917 1390 917 1390 917 1306 c 0,28,29
 917 1273 917 1273 909 1237 c 0,30,31
 882 1108 882 1108 774 1022 c 0,32,33
 676 944 676 944 549 944 c 0,34,35
 418 944 418 944 356 1022 c 0,36,37
 305 1084 305 1084 305 1168 c 0,38,39
 305 1201 305 1201 313 1237 c 0,40,41
 341 1367 341 1367 448 1452 c 0,42,43
 546 1530 546 1530 673 1530 c 0,24,25
EndSplineSet
Validated: 1
EndChar

StartChar: plusminus
Encoding: 177 177 88
Width: 1158
GlyphClass: 2
Flags: W
HStem: 237 160<265.152 1026.85> 801 160<385.152 669 863 1146.85>
VStem: 630 129<471 538.584> 773 130<1223.42 1291>
DStem2: 549.813 237 709.118 237 0.207912 0.978148<348.481 576.456 773.294 1001.48>
LayerCount: 2
Fore
SplineSet
212 294 m 1,0,1
 268 397 268 397 448 397 c 2,2,-1
 1073 397 l 1,3,-1
 1080 340 l 1,4,5
 1024 237 1024 237 844 237 c 2,6,-1
 219 237 l 1,7,-1
 212 294 l 1,0,1
834 1310 m 1,8,9
 903 1285 903 1285 903 1187 c 0,10,11
 903 1148 903 1148 892 1096 c 2,12,-1
 863 961 l 1,13,-1
 1193 961 l 1,14,-1
 1200 904 l 1,15,16
 1144 801 1144 801 964 801 c 2,17,-1
 829 801 l 1,18,-1
 759 471 l 1,19,-1
 698 452 l 1,20,21
 630 476 630 476 630 575 c 0,22,23
 630 614 630 614 641 666 c 2,24,-1
 669 801 l 1,25,-1
 339 801 l 1,26,-1
 332 858 l 1,27,28
 388 961 388 961 568 961 c 2,29,-1
 703 961 l 1,30,-1
 773 1291 l 1,31,-1
 834 1310 l 1,8,9
EndSplineSet
Validated: 1
EndChar

StartChar: uni00B2
Encoding: 178 178 89
Width: 702
GlyphClass: 2
Flags: W
HStem: 833 104<480 799.352> 1538 100<582.083 769.472>
VStem: 353 137<1236.14 1442.22> 777 136<1309.09 1497.44>
LayerCount: 2
Fore
SplineSet
690 1638 m 0,0,1
 808 1638 808 1638 869 1565 c 0,2,3
 913 1512 913 1512 913 1438 c 0,4,5
 913 1408 913 1408 906 1375 c 0,6,7
 855 1134 855 1134 480 937 c 1,8,-1
 734 937 l 2,9,10
 769 937 769 937 813 993 c 1,11,-1
 863 993 l 1,12,-1
 803 884 l 2,13,14
 775 833 775 833 709 833 c 2,15,-1
 254 833 l 1,16,-1
 244 913 l 1,17,18
 465 1024 465 1024 596 1143 c 0,19,20
 741 1274 741 1274 772 1411 c 0,21,22
 777 1435 777 1435 777 1455 c 0,23,24
 777 1480 777 1480 769 1498 c 0,25,26
 752 1538 752 1538 696 1538 c 0,27,28
 646 1538 646 1538 599 1506 c 0,29,30
 515 1450 515 1450 494 1341 c 0,31,32
 490 1321 490 1321 490 1302 c 0,33,34
 490 1275 490 1275 499 1253 c 0,35,36
 516 1214 516 1214 567 1213 c 1,37,-1
 552 1114 l 1,38,39
 454 1121 454 1121 397 1188 c 0,40,41
 353 1239 353 1239 353 1314 c 0,42,43
 353 1344 353 1344 360 1378 c 0,44,45
 385 1493 385 1493 480 1566 c 0,46,47
 574 1638 574 1638 690 1638 c 0,0,1
EndSplineSet
Validated: 1
EndChar

StartChar: uni00B3
Encoding: 179 179 90
Width: 643
GlyphClass: 2
Flags: W
HStem: 823 100<416.657 598.067> 1524 104<473.652 722>
VStem: 694 136<1024.63 1204.37>
LayerCount: 2
Fore
SplineSet
878 1628 m 1,0,-1
 887 1558 l 1,1,2
 820 1421 820 1421 694 1336 c 1,3,4
 752 1317 752 1317 785 1277 c 0,5,6
 830 1223 830 1223 830 1147 c 0,7,8
 830 1116 830 1116 824 1084 c 0,9,10
 799 966 799 966 704 895 c 0,11,12
 609 823 609 823 493.5 823 c 128,-1,13
 378 823 378 823 326 884 c 128,-1,14
 274 945 274 945 269 1031 c 1,15,-1
 418 1078 l 1,16,17
 410 1038 410 1038 410 1009 c 0,18,19
 410 982 410 982 417 964 c 0,20,21
 433 923 433 923 486 923 c 128,-1,22
 539 923 539 923 584 955 c 0,23,24
 666 1015 666 1015 689 1120 c 0,25,26
 694 1142 694 1142 694 1161 c 0,27,28
 694 1185 694 1185 686 1205 c 0,29,30
 669 1247 669 1247 617 1247 c 0,31,32
 572 1247 572 1247 513 1215 c 1,33,-1
 501 1302 l 1,34,35
 657 1408 657 1408 722 1524 c 1,36,-1
 539 1524 l 2,37,38
 504 1524 504 1524 460 1468 c 1,39,-1
 411 1468 l 1,40,-1
 470 1577 l 2,41,42
 498 1628 498 1628 565 1628 c 2,43,-1
 878 1628 l 1,0,-1
EndSplineSet
Validated: 1
EndChar

StartChar: acute
Encoding: 180 180 91
Width: 479
GlyphClass: 2
Flags: W
HStem: 1190 370
VStem: 312 433
LayerCount: 2
Fore
SplineSet
546 1560 m 1,0,1
 745 1488 l 1,2,3
 539 1365 539 1365 436 1190 c 1,4,-1
 312 1234 l 1,5,6
 403 1439 403 1439 546 1560 c 1,0,1
EndSplineSet
Validated: 1
EndChar

StartChar: uni00B5
Encoding: 181 181 92
Width: 1328
GlyphClass: 2
Flags: W
HStem: -430 21G<78 173> -20 99<463.149 794.286> 57 34<1278.83 1323.26> 1021 99<770.578 934>
VStem: 1193 137<1036.51 1098.89>
DStem2: 8.5129 -430 168.961 -430 0.207912 0.978148<128.678 622.145> 867.023 -430 1037 -430 0.207912 0.978148<720.641 1480.21>
LayerCount: 2
Fore
SplineSet
664 -20 m 0,0,1
 414 -20 414 -20 291 146 c 1,2,-1
 173 -411 l 1,3,-1
 112 -430 l 1,4,5
 44 -406 44 -406 43 -307 c 0,6,7
 43 -268 43 -268 54 -216 c 2,8,-1
 217 550 l 2,9,10
 271 806 271 806 485 972 c 0,11,12
 673 1120 673 1120 934 1120 c 1,13,-1
 946 1021 l 1,14,15
 814 1021 814 1021 679 923 c 0,16,17
 543 824 543 824 464 675 c 0,18,19
 409 570 409 570 386 459 c 0,20,21
 373 396 373 396 373 342 c 0,22,23
 373 282 373 282 389 231 c 0,24,25
 437 79 437 79 616 79 c 0,26,27
 758 79 758 79 876 178 c 0,28,29
 1022 300 1022 300 1063 492 c 2,30,-1
 1193 1104 l 1,31,-1
 1243 1120 l 1,32,33
 1330 1094 1330 1094 1330 986 c 0,34,35
 1330 950 1330 950 1321 906 c 2,36,-1
 1169 191 l 2,37,38
 1165 171 1165 171 1164 154 c 0,39,40
 1164 82 1164 82 1247 82 c 0,41,42
 1285 82 1285 82 1322 91 c 1,43,-1
 1325 57 l 1,44,-1
 1077 -20 l 1,45,46
 1006 1 1006 1 993 80 c 1,47,48
 851 -20 851 -20 664 -20 c 0,0,1
EndSplineSet
Validated: 1
EndChar

StartChar: paragraph
Encoding: 182 182 93
Width: 1102
GlyphClass: 2
Flags: W
HStem: -20 21G<895.25 952>
VStem: 804 29<42.0391 84.5039>
DStem2: 767.452 -20 824.937 -20 0.207912 0.978148<140.721 858.766> 891 -20 947.961 -20 0.207912 0.978148<31.2674 1145.01>
LayerCount: 2
Fore
SplineSet
891 -20 m 1,0,-1
 1129 1100 l 1,1,-1
 1063 1100 l 1,2,-1
 833 17 l 1,3,4
 804 53 804 53 804 115 c 0,5,6
 804 150 804 150 813 194 c 2,7,-1
 946 820 l 1,8,9
 838 760 838 760 691 760 c 0,10,11
 495 760 495 760 410 860 c 0,12,13
 334 950 334 950 334 1063 c 0,14,15
 334 1103 334 1103 344 1146 c 0,16,17
 379 1313 379 1313 519 1422 c 0,18,19
 658 1530 658 1530 848 1530 c 16,20,21
 1044 1530 1044 1530 1129 1430 c 0,22,23
 1204 1341 1204 1341 1204 1227 c 0,24,25
 1204 1187 1204 1187 1195 1144 c 2,26,-1
 952 -1 l 1,27,-1
 891 -20 l 1,0,-1
EndSplineSet
Validated: 1
EndChar

StartChar: periodcentered
Encoding: 183 183 94
Width: 360
GlyphClass: 2
Flags: W
HStem: 624 264<262.46 419.602>
VStem: 208 266<677.518 834.482>
LayerCount: 2
Fore
SplineSet
369 888 m 128,-1,1
 423 888 423 888 453 850 c 0,2,3
 474 822 474 822 474 786 c 0,4,5
 474 772 474 772 471 756 c 0,6,7
 459 701 459 701 413 662.5 c 128,-1,8
 367 624 367 624 312 624 c 128,-1,9
 257 624 257 624 229 662 c 0,10,11
 208 690 208 690 208 726 c 0,12,13
 208 744 208 744 211 756 c 0,14,15
 223 811 223 811 269 849.5 c 128,-1,0
 315 888 315 888 369 888 c 128,-1,1
EndSplineSet
Validated: 1
EndChar

StartChar: cedilla
Encoding: 184 184 95
Width: 376
GlyphClass: 2
Flags: W
HStem: -460 138<-48 120.387> -20 20G<119.467 225>
VStem: 147 129<-289.993 -153.531>
LayerCount: 2
Fore
SplineSet
131 0 m 1,0,-1
 225 0 l 1,1,-1
 172 -84 l 1,2,3
 276 -124 276 -124 276 -214 c 0,4,5
 276 -236 276 -236 272 -253 c 0,6,7
 228 -460 228 -460 -48 -460 c 1,8,-1
 -49 -322 l 1,9,10
 127 -322 127 -322 145 -234 c 0,11,12
 147 -224 147 -224 147 -215 c 0,13,14
 147 -155 147 -155 52 -137 c 1,15,-1
 131 0 l 1,0,-1
EndSplineSet
Validated: 1
EndChar

StartChar: uni00B9
Encoding: 185 185 96
Width: 387
GlyphClass: 2
Flags: W
HStem: 1550 30<387.044 432.435>
VStem: 471 143<1327.35 1587.89>
DStem2: 320.831 819 460.961 819 0.207912 0.978148<78.7539 725.554>
LayerCount: 2
Fore
SplineSet
552 1631 m 1,0,1
 614 1616 614 1616 614 1555 c 0,2,3
 614 1536 614 1536 611 1522 c 2,4,-1
 465 838 l 1,5,-1
 403 819 l 1,6,7
 340 834 340 834 340 895 c 0,8,9
 340 909 340 909 344 928 c 2,10,-1
 470 1519 l 2,11,12
 471 1524 471 1524 471 1529 c 0,13,14
 471 1556 471 1556 433 1556 c 0,15,16
 415 1556 415 1556 388 1550 c 1,17,-1
 386 1580 l 1,18,-1
 552 1631 l 1,0,1
EndSplineSet
Validated: 1
EndChar

StartChar: ordmasculine
Encoding: 186 186 97
Width: 704
GlyphClass: 2
Flags: W
HStem: 715 124<243.771 790.229> 919 90<444.453 653.889> 1439 91<570.662 779.413>
VStem: 303 124<1024.34 1279.8> 796 126<1164.33 1424.53>
LayerCount: 2
Fore
SplineSet
818 839 m 1,0,-1
 823 796 l 1,1,2
 773 715 773 715 635 715 c 2,3,-1
 216 715 l 1,4,-1
 211 758 l 1,5,6
 261 839 261 839 399 839 c 2,7,-1
 818 839 l 1,0,-1
697 1439 m 0,8,9
 631 1439 631 1439 570 1394 c 0,10,11
 466 1318 466 1318 434 1178 c 0,12,13
 427 1148 427 1148 427 1123 c 0,14,15
 427 1096 427 1096 435 1073 c 0,16,17
 458 1009 458 1009 528 1009 c 0,18,19
 593 1009 593 1009 654 1054 c 0,20,21
 761 1132 761 1132 790 1270 c 0,22,23
 796 1301 796 1301 796 1326 c 0,24,25
 796 1353 796 1353 789 1374 c 0,26,27
 766 1439 766 1439 697 1439 c 0,8,9
679 1530 m 128,-1,29
 801 1530 801 1530 872 1444 c 0,30,31
 922 1383 922 1383 922 1298 c 0,32,33
 922 1263 922 1263 914 1225 c 0,34,35
 885 1090 885 1090 776 1004 c 0,36,37
 667 919 667 919 548 919 c 0,38,39
 426 919 426 919 354 1005 c 0,40,41
 303 1066 303 1066 303 1152 c 0,42,43
 303 1187 303 1187 311 1226 c 0,44,45
 339 1360 339 1360 449 1445 c 0,46,28
 557 1530 557 1530 679 1530 c 128,-1,29
EndSplineSet
Validated: 1
EndChar

StartChar: guillemotright
Encoding: 187 187 98
Width: 1173
GlyphClass: 2
Flags: W
DStem2: 677 1151 459 1219 0.440462 -0.897771<-147.214 258.404> 642 846 371 308 0.675362 0.737487<-554.255 0> 1077 1151 859 1219 0.440462 -0.897771<-147.214 258.404> 1042 846 771 308 0.675362 0.737487<-554.255 0>
LayerCount: 2
Fore
SplineSet
371 308 m 1,0,-1
 317 325 l 1,1,2
 300 374 300 374 300 392 c 0,3,4
 300 407 300 407 303 424 c 0,5,6
 318 494 318 494 397 580 c 2,7,-1
 642 846 l 1,8,-1
 459 1219 l 1,9,-1
 505 1267 l 1,10,11
 520 1270 520 1270 534 1270 c 0,12,13
 618 1270 618 1270 677 1151 c 2,14,-1
 796 910 l 1,15,16
 804 888 804 888 804 865 c 0,17,18
 804 849 804 849 800 831 c 0,19,20
 785 760 785 760 708 676 c 2,21,-1
 371 308 l 1,0,-1
771 308 m 1,22,-1
 717 325 l 1,23,24
 700 374 700 374 700 392 c 0,25,26
 700 407 700 407 703 424 c 0,27,28
 718 494 718 494 797 580 c 2,29,-1
 1042 846 l 1,30,-1
 859 1219 l 1,31,-1
 905 1267 l 1,32,33
 920 1270 920 1270 934 1270 c 0,34,35
 1018 1270 1018 1270 1077 1151 c 2,36,-1
 1196 910 l 1,37,38
 1204 888 1204 888 1204 865 c 0,39,40
 1204 849 1204 849 1200 831 c 0,41,42
 1185 760 1185 760 1108 676 c 2,43,-1
 771 308 l 1,22,-1
EndSplineSet
Validated: 1
EndChar

StartChar: onequarter
Encoding: 188 188 99
Width: 1553
GlyphClass: 2
Flags: W
HStem: 0 21G<395 481.541 1237.5 1327> 182 102<997 1229 1385 1408> 1449 30<465.566 510.436> 1510 20G<564.902 661.5>
VStem: 549 144<1230.97 1486.89> 1210 117<10 76.643> 1314 117<516.024 583>
DStem2: 245.09 -10 385.22 -10 0.207912 0.978148<823.048 1469.64> 437 238 470 0 0.499801 0.86614<-169.181 1448.12> 1187.79 -10 1323.19 -10 0.207912 0.978148<87.3941 196.372 328.577 567.393>
LayerCount: 2
Fore
SplineSet
410 0 m 1,0,1
 380 28 380 28 380 75 c 0,2,3
 380 93 380 93 384 113 c 0,4,5
 395 167 395 167 437 238 c 2,6,-1
 1171 1510 l 1,7,-1
 1231 1510 l 1,8,9
 1261 1482 1261 1482 1261 1435 c 0,10,11
 1261 1417 1261 1417 1257 1397 c 0,12,13
 1246 1343 1246 1343 1204 1272 c 2,14,-1
 470 0 l 1,15,-1
 410 0 l 1,0,1
1265 -10 m 1,16,17
 1210 8 1210 8 1210 74 c 0,18,19
 1210 94 1210 94 1215 118 c 2,20,-1
 1229 182 l 1,21,-1
 815 182 l 1,22,-1
 805 257 l 1,23,24
 1047 474 1047 474 1175 768 c 1,25,-1
 1331 817 l 1,26,27
 1201 463 1201 463 997 284 c 1,28,-1
 1250 284 l 1,29,-1
 1314 583 l 1,30,-1
 1376 603 l 1,31,32
 1431 584 1431 584 1431 519 c 0,33,34
 1431 499 1431 499 1426 474 c 2,35,-1
 1385 284 l 1,36,-1
 1463 284 l 1,37,-1
 1408 182 l 1,38,-1
 1364 182 l 1,39,-1
 1327 10 l 1,40,-1
 1265 -10 l 1,16,17
630 1530 m 1,41,42
 693 1515 693 1515 693 1454 c 0,43,44
 693 1439 693 1439 689 1421 c 2,45,-1
 544 737 l 1,46,-1
 482 718 l 1,47,48
 419 733 419 733 419 794 c 0,49,50
 419 809 419 809 423 827 c 2,51,-1
 548 1418 l 2,52,53
 549 1424 549 1424 549 1428 c 0,54,55
 549 1455 549 1455 511 1455 c 0,56,57
 493 1455 493 1455 467 1449 c 1,58,-1
 464 1479 l 1,59,-1
 630 1530 l 1,41,42
EndSplineSet
Validated: 1
EndChar

StartChar: onehalf
Encoding: 189 189 100
Width: 1605
GlyphClass: 2
Flags: W
HStem: 0 104<1106 1425.35> 705 100<1208.08 1395.47> 1449 30<465.566 510.436> 1510 20G<564.902 661.5>
VStem: 549 144<1230.97 1486.89> 979 137<403.137 608.014> 1403 136<476.094 664.436>
DStem2: 247.216 0 387.346 0 0.207912 0.978148<812.825 1459.42> 437 238 470 0 0.499801 0.86614<-169.181 1448.12>
LayerCount: 2
Fore
SplineSet
410 0 m 1,0,1
 380 28 380 28 380 75 c 0,2,3
 380 93 380 93 384 113 c 0,4,5
 395 167 395 167 437 238 c 2,6,-1
 1171 1510 l 1,7,-1
 1231 1510 l 1,8,9
 1261 1482 1261 1482 1261 1435 c 0,10,11
 1261 1417 1261 1417 1257 1397 c 0,12,13
 1246 1343 1246 1343 1204 1272 c 2,14,-1
 470 0 l 1,15,-1
 410 0 l 1,0,1
630 1530 m 1,16,17
 693 1515 693 1515 693 1454 c 0,18,19
 693 1439 693 1439 689 1421 c 2,20,-1
 544 737 l 1,21,-1
 482 718 l 1,22,23
 419 733 419 733 419 794 c 0,24,25
 419 809 419 809 423 827 c 2,26,-1
 548 1418 l 2,27,28
 549 1424 549 1424 549 1428 c 0,29,30
 549 1455 549 1455 511 1455 c 0,31,32
 493 1455 493 1455 467 1449 c 1,33,-1
 464 1479 l 1,34,-1
 630 1530 l 1,16,17
1316 805 m 0,35,36
 1434 805 1434 805 1495 732 c 0,37,38
 1539 679 1539 679 1539 605 c 0,39,40
 1539 575 1539 575 1532 542 c 0,41,42
 1481 301 1481 301 1106 104 c 1,43,-1
 1360 104 l 2,44,45
 1395 104 1395 104 1439 160 c 1,46,-1
 1489 160 l 1,47,-1
 1429 51 l 2,48,49
 1401 0 1401 0 1335 0 c 2,50,-1
 880 0 l 1,51,-1
 870 80 l 1,52,53
 1091 191 1091 191 1222 310 c 0,54,55
 1367 441 1367 441 1398 578 c 0,56,57
 1403 602 1403 602 1403 622 c 0,58,59
 1403 647 1403 647 1395 665 c 0,60,61
 1378 705 1378 705 1322 705 c 0,62,63
 1272 705 1272 705 1225 673 c 0,64,65
 1141 617 1141 617 1120 508 c 0,66,67
 1116 488 1116 488 1116 469 c 0,68,69
 1116 442 1116 442 1125 420 c 0,70,71
 1142 381 1142 381 1193 380 c 1,72,-1
 1178 281 l 1,73,74
 1080 288 1080 288 1023 355 c 0,75,76
 979 406 979 406 979 481 c 0,77,78
 979 511 979 511 986 545 c 0,79,80
 1011 662 1011 662 1106 733 c 0,81,82
 1200 805 1200 805 1316 805 c 0,35,36
EndSplineSet
Validated: 1
EndChar

StartChar: threequarters
Encoding: 190 190 101
Width: 1797
GlyphClass: 2
Flags: W
HStem: 0 21G<639 725.541 1481.5 1571> 182 102<1241 1473 1629 1652> 705 100<491.657 673.067> 1406 104<548.652 797>
VStem: 769 136<906.629 1086.37> 1454 117<10 76.643> 1558 117<516.024 583>
DStem2: 681 238 714 0 0.499801 0.86614<-169.181 1448.12> 1431.79 -10 1567.19 -10 0.207912 0.978148<87.3941 196.372 328.577 567.393>
LayerCount: 2
Fore
SplineSet
654 0 m 1,0,1
 624 28 624 28 624 75 c 0,2,3
 624 93 624 93 628 113 c 0,4,5
 639 167 639 167 681 238 c 2,6,-1
 1415 1510 l 1,7,-1
 1475 1510 l 1,8,9
 1505 1482 1505 1482 1505 1435 c 0,10,11
 1505 1417 1505 1417 1501 1397 c 0,12,13
 1490 1343 1490 1343 1448 1272 c 2,14,-1
 714 0 l 1,15,-1
 654 0 l 1,0,1
1509 -10 m 1,16,17
 1454 8 1454 8 1454 74 c 0,18,19
 1454 94 1454 94 1459 118 c 2,20,-1
 1473 182 l 1,21,-1
 1059 182 l 1,22,-1
 1049 257 l 1,23,24
 1291 474 1291 474 1419 768 c 1,25,-1
 1575 817 l 1,26,27
 1445 463 1445 463 1241 284 c 1,28,-1
 1494 284 l 1,29,-1
 1558 583 l 1,30,-1
 1620 603 l 1,31,32
 1675 584 1675 584 1675 519 c 0,33,34
 1675 499 1675 499 1670 474 c 2,35,-1
 1629 284 l 1,36,-1
 1707 284 l 1,37,-1
 1652 182 l 1,38,-1
 1608 182 l 1,39,-1
 1571 10 l 1,40,-1
 1509 -10 l 1,16,17
953 1510 m 1,41,-1
 962 1440 l 1,42,43
 895 1303 895 1303 769 1218 c 1,44,45
 827 1199 827 1199 860 1159 c 0,46,47
 905 1105 905 1105 905 1029 c 0,48,49
 905 998 905 998 899 966 c 0,50,51
 874 848 874 848 779 777 c 0,52,53
 684 705 684 705 568.5 705 c 128,-1,54
 453 705 453 705 401 766 c 128,-1,55
 349 827 349 827 344 913 c 1,56,-1
 493 960 l 1,57,58
 485 920 485 920 485 891 c 0,59,60
 485 864 485 864 492 846 c 0,61,62
 508 805 508 805 561 805 c 128,-1,63
 614 805 614 805 659 837 c 0,64,65
 741 897 741 897 764 1002 c 0,66,67
 769 1024 769 1024 769 1043 c 0,68,69
 769 1067 769 1067 761 1087 c 0,70,71
 744 1129 744 1129 692 1129 c 0,72,73
 647 1129 647 1129 588 1097 c 1,74,-1
 576 1184 l 1,75,76
 732 1290 732 1290 797 1406 c 1,77,-1
 614 1406 l 2,78,79
 579 1406 579 1406 535 1350 c 1,80,-1
 486 1350 l 1,81,-1
 545 1459 l 2,82,83
 573 1510 573 1510 640 1510 c 2,84,-1
 953 1510 l 1,41,-1
EndSplineSet
Validated: 1
EndChar

StartChar: questiondown
Encoding: 191 191 102
Width: 1314
GlyphClass: 2
Flags: W
HStem: -430 120<396.478 706.92> 856 264<812.398 969.602>
VStem: 149 192<-239.553 90.207> 758 266<909.518 1066.48>
LayerCount: 2
Fore
SplineSet
557 -430 m 24,0,1
 348 -430 348 -430 234 -298 c 0,2,3
 149 -200 149 -200 149 -60 c 0,4,5
 149 -5 149 -5 162 56 c 0,6,7
 240 422 240 422 718 740 c 1,8,-1
 959 740 l 1,9,10
 567 467 567 467 414 159 c 0,11,12
 365 60 365 60 351 -15 c 0,13,14
 341 -70 341 -70 341 -115 c 0,15,16
 341 -169 341 -169 356 -208 c 0,17,18
 398 -310 398 -310 529 -310 c 0,19,20
 647 -310 647 -310 747 -243 c 0,21,22
 860 -167 860 -167 924 -48 c 0,23,24
 967 33 967 33 987 126 c 1,25,-1
 1188 189 l 1,26,27
 1189 179 1189 179 1189 170 c 0,28,29
 1189 114 1189 114 1176 55 c 0,30,31
 1130 -163 1130 -163 954 -298 c 0,32,33
 781 -430 781 -430 557 -430 c 24,0,1
919 1120 m 128,-1,35
 973 1120 973 1120 1003 1082 c 0,36,37
 1024 1054 1024 1054 1024 1018 c 0,38,39
 1024 1004 1024 1004 1021 988 c 0,40,41
 1009 933 1009 933 963 894.5 c 128,-1,42
 917 856 917 856 863 856 c 128,-1,43
 809 856 809 856 779 894 c 0,44,45
 758 922 758 922 758 958 c 0,46,47
 758 972 758 972 761 988 c 0,48,49
 773 1043 773 1043 819 1081.5 c 128,-1,34
 865 1120 865 1120 919 1120 c 128,-1,35
EndSplineSet
Validated: 1
EndChar

StartChar: multiply
Encoding: 215 215 103
Width: 1092
GlyphClass: 2
Flags: W
DStem2: 728 858 408 978 0.617507 -0.786565<-271.59 0 148.123 419.726> 591 745 398 399 0.772221 0.635354<-350.284 -3.06727 177.589 522.768>
LayerCount: 2
Fore
SplineSet
445 1032 m 1,0,1
 475 1046 475 1046 504 1046 c 0,2,3
 580 1046 580 1046 654 954 c 2,4,-1
 728 858 l 1,5,-1
 1011 1091 l 1,6,-1
 1059 1065 l 1,7,8
 1064 1050 1064 1050 1064 1033 c 0,9,10
 1064 1021 1064 1021 1061 1009 c 0,11,12
 1045 933 1045 933 934 840 c 2,13,-1
 817 745 l 1,14,-1
 1001 512 l 1,15,-1
 963 458 l 1,16,17
 933 444 933 444 904 444 c 0,18,19
 828 444 828 444 755 536 c 2,20,-1
 680 632 l 1,21,-1
 398 399 l 1,22,-1
 349 425 l 1,23,24
 344 440 344 440 344 457 c 0,25,26
 344 469 344 469 347 481 c 0,27,28
 363 557 363 557 475 650 c 2,29,-1
 591 745 l 1,30,-1
 408 978 l 1,31,-1
 445 1032 l 1,0,1
EndSplineSet
Validated: 1
EndChar

StartChar: divide
Encoding: 247 247 104
Width: 1158
GlyphClass: 2
Flags: W
HStem: 182 263<559.308 716.98> 665 160<356.152 1117.85> 1024 264<752.184 910.602>
VStem: 505 266<235.369 391.144> 699 266<1077.52 1234.47>
LayerCount: 2
Fore
SplineSet
303 722 m 1,0,1
 359 825 359 825 539 825 c 2,2,-1
 1164 825 l 1,3,-1
 1171 768 l 1,4,5
 1115 665 1115 665 935 665 c 2,6,-1
 310 665 l 1,7,-1
 303 722 l 1,0,1
610 182 m 0,8,9
 554 182 554 182 526 220 c 0,10,11
 505 248 505 248 505 283 c 0,12,13
 505 300 505 300 508 313 c 0,14,15
 522 370 522 370 566 407 c 0,16,17
 611 445 611 445 666 445 c 0,18,19
 720 445 720 445 749 406 c 0,20,21
 771 377 771 377 771 343 c 0,22,23
 771 327 771 327 768 313 c 0,24,25
 756 258 756 258 710 220 c 0,26,27
 663 182 663 182 610 182 c 0,8,9
860 1288 m 0,28,29
 914 1288 914 1288 944 1250 c 0,30,31
 965 1222 965 1222 965 1186 c 0,32,33
 965 1172 965 1172 962 1156 c 0,34,35
 950 1101 950 1101 904 1062.5 c 128,-1,36
 858 1024 858 1024 803 1024 c 128,-1,37
 748 1024 748 1024 720 1062 c 0,38,39
 699 1090 699 1090 699 1126 c 0,40,41
 699 1144 699 1144 702 1156 c 0,42,43
 717 1214 717 1214 760 1250 c 0,44,45
 807 1288 807 1288 860 1288 c 0,28,29
EndSplineSet
Validated: 1
EndChar

StartChar: endash
Encoding: 8211 8211 105
Width: 1158
GlyphClass: 2
Flags: W
HStem: 665 160<356.152 1117.85>
LayerCount: 2
Fore
SplineSet
303 722 m 1,0,1
 359 825 359 825 539 825 c 2,2,-1
 1164 825 l 1,3,-1
 1171 768 l 1,4,5
 1115 665 1115 665 935 665 c 2,6,-1
 310 665 l 1,7,-1
 303 722 l 1,0,1
EndSplineSet
Validated: 1
EndChar

StartChar: emdash
Encoding: 8212 8212 106
Width: 1533
GlyphClass: 2
Flags: W
HStem: 665 160<356.152 1492.85>
LayerCount: 2
Fore
SplineSet
303 722 m 1,0,1
 359 825 359 825 539 825 c 2,2,-1
 1539 825 l 1,3,-1
 1546 768 l 1,4,5
 1490 665 1490 665 1310 665 c 2,6,-1
 310 665 l 1,7,-1
 303 722 l 1,0,1
EndSplineSet
Validated: 1
EndChar

StartChar: afii00208
Encoding: 8213 8213 107
Width: 1533
GlyphClass: 2
Flags: W
HStem: 665 160<356.152 1492.85>
LayerCount: 2
Fore
SplineSet
303 722 m 1,0,1
 359 825 359 825 539 825 c 2,2,-1
 1539 825 l 1,3,-1
 1546 768 l 1,4,5
 1490 665 1490 665 1310 665 c 2,6,-1
 310 665 l 1,7,-1
 303 722 l 1,0,1
EndSplineSet
Validated: 1
EndChar

StartChar: quoteleft
Encoding: 8216 8216 108
Width: 427
GlyphClass: 2
Flags: W
HStem: 978 572
VStem: 302 186<1108.64 1307.18>
LayerCount: 2
Fore
SplineSet
657 1550 m 1,0,1
 518 1400 518 1400 493 1282 c 0,2,3
 488 1256 488 1256 488 1232 c 0,4,5
 488 1123 488 1123 600 1047 c 1,6,-1
 381 978 l 1,7,8
 302 1066 302 1066 302 1162 c 0,9,10
 302 1187 302 1187 308 1213 c 0,11,12
 338 1352 338 1352 526 1509 c 1,13,-1
 657 1550 l 1,0,1
EndSplineSet
Validated: 1
EndChar

StartChar: quoteright
Encoding: 8217 8217 109
Width: 427
GlyphClass: 2
Flags: W
HStem: 978 572
VStem: 476 186<1219.8 1419.36>
LayerCount: 2
Fore
SplineSet
583 1550 m 1,0,1
 662 1462 662 1462 662 1366 c 0,2,3
 662 1341 662 1341 657 1315 c 0,4,5
 627 1176 627 1176 439 1019 c 1,6,-1
 307 978 l 1,7,8
 446 1128 446 1128 471 1246 c 0,9,10
 476 1272 476 1272 476 1296 c 0,11,12
 476 1405 476 1405 365 1481 c 1,13,-1
 583 1550 l 1,0,1
EndSplineSet
Validated: 1
EndChar

StartChar: quotesinglbase
Encoding: 8218 8218 110
Width: 427
GlyphClass: 2
Flags: W
HStem: -292 572
VStem: 206 186<-50.1953 149.359>
LayerCount: 2
Fore
SplineSet
314 280 m 5,0,1
 392 193 392 193 392 96 c 0,2,3
 392 71 392 71 387 45 c 0,4,5
 357 -94 357 -94 169 -251 c 1,6,-1
 37 -292 l 1,7,8
 176 -142 176 -142 201 -24 c 0,9,10
 206 2 206 2 206 26 c 0,11,12
 206 135 206 135 95 211 c 1,13,-1
 314 280 l 5,0,1
EndSplineSet
Validated: 1
EndChar

StartChar: quotereversed
Encoding: 8219 8219 111
Width: 427
GlyphClass: 2
Flags: W
HStem: 978 572
VStem: 324 156<1099.81 1337.99>
LayerCount: 2
Fore
SplineSet
502 1550 m 1,0,1
 692 1481 l 1,2,3
 516 1388 516 1388 486 1246 c 0,4,5
 480 1216 480 1216 480 1185 c 0,6,7
 480 1091 480 1091 536 978 c 1,8,-1
 422 1019 l 1,9,10
 324 1145 324 1145 324 1260 c 0,11,12
 324 1288 324 1288 330 1315 c 0,13,14
 355 1439 355 1439 502 1550 c 1,0,1
EndSplineSet
Validated: 1
EndChar

StartChar: quotedblleft
Encoding: 8220 8220 112
Width: 749
GlyphClass: 2
Flags: W
HStem: 978 572
VStem: 302 186<1108.64 1307.18> 624 186<1108.64 1307.18>
LayerCount: 2
Fore
SplineSet
657 1550 m 1,0,1
 518 1400 518 1400 493 1282 c 0,2,3
 488 1256 488 1256 488 1232 c 0,4,5
 488 1123 488 1123 600 1047 c 1,6,-1
 381 978 l 1,7,8
 302 1066 302 1066 302 1162 c 0,9,10
 302 1187 302 1187 308 1213 c 0,11,12
 338 1352 338 1352 526 1509 c 1,13,-1
 657 1550 l 1,0,1
979 1550 m 1,14,15
 840 1400 840 1400 815 1282 c 0,16,17
 810 1256 810 1256 810 1232 c 0,18,19
 810 1123 810 1123 922 1047 c 1,20,-1
 703 978 l 1,21,22
 624 1066 624 1066 624 1162 c 0,23,24
 624 1187 624 1187 630 1213 c 0,25,26
 660 1352 660 1352 848 1509 c 1,27,-1
 979 1550 l 1,14,15
EndSplineSet
Validated: 1
EndChar

StartChar: quotedblright
Encoding: 8221 8221 113
Width: 749
GlyphClass: 2
Flags: W
HStem: 978 572
VStem: 476 186<1219.8 1419.36> 798 186<1219.8 1419.36>
LayerCount: 2
Fore
SplineSet
905 1550 m 1,0,1
 984 1462 984 1462 984 1366 c 0,2,3
 984 1341 984 1341 979 1315 c 0,4,5
 949 1176 949 1176 761 1019 c 1,6,-1
 629 978 l 1,7,8
 768 1128 768 1128 793 1246 c 0,9,10
 798 1272 798 1272 798 1296 c 0,11,12
 798 1405 798 1405 687 1481 c 1,13,-1
 905 1550 l 1,0,1
583 1550 m 1,14,15
 662 1462 662 1462 662 1366 c 0,16,17
 662 1341 662 1341 657 1315 c 0,18,19
 627 1176 627 1176 439 1019 c 1,20,-1
 307 978 l 1,21,22
 446 1128 446 1128 471 1246 c 0,23,24
 476 1272 476 1272 476 1296 c 0,25,26
 476 1405 476 1405 365 1481 c 1,27,-1
 583 1550 l 1,14,15
EndSplineSet
Validated: 1
EndChar

StartChar: quotedblbase
Encoding: 8222 8222 114
Width: 749
GlyphClass: 2
Flags: W
HStem: -292 572
VStem: 206 186<-50.1953 149.359> 528 186<-50.1953 149.359>
LayerCount: 2
Fore
SplineSet
636 280 m 1,0,1
 714 193 714 193 714 96 c 0,2,3
 714 71 714 71 709 45 c 0,4,5
 679 -94 679 -94 491 -251 c 1,6,-1
 359 -292 l 1,7,8
 498 -142 498 -142 523 -24 c 0,9,10
 528 2 528 2 528 26 c 0,11,12
 528 135 528 135 417 211 c 1,13,-1
 636 280 l 1,0,1
314 280 m 1,14,15
 392 193 392 193 392 96 c 0,16,17
 392 71 392 71 387 45 c 0,18,19
 357 -94 357 -94 169 -251 c 1,20,-1
 37 -292 l 1,21,22
 176 -142 176 -142 201 -24 c 0,23,24
 206 2 206 2 206 26 c 0,25,26
 206 135 206 135 95 211 c 1,27,-1
 314 280 l 1,14,15
EndSplineSet
Validated: 1
EndChar

StartChar: dagger
Encoding: 8224 8224 115
Width: 1158
GlyphClass: 2
Flags: W
HStem: -20 21G<564.5 669> 1011 160<430.152 704 918 1191.85> 1510 20G<810 914.5>
VStem: 521 148<1.11133 66.4792> 810 148<1443.3 1508.89>
DStem2: 484.854 -20 664.854 -20 0.207912 0.978148<139.69 1054.03 1255.03 1482.33>
LayerCount: 2
Fore
SplineSet
608 -20 m 1,0,1
 521 6 521 6 521 114 c 0,2,3
 521 150 521 150 530 194 c 2,4,-1
 704 1011 l 1,5,-1
 384 1011 l 1,6,-1
 377 1068 l 1,7,8
 433 1171 433 1171 613 1171 c 2,9,-1
 738 1171 l 1,10,-1
 810 1511 l 1,11,-1
 871 1530 l 1,12,13
 958 1504 958 1504 958 1396 c 0,14,15
 958 1360 958 1360 949 1316 c 2,16,-1
 918 1171 l 1,17,-1
 1238 1171 l 1,18,-1
 1245 1114 l 1,19,20
 1189 1011 1189 1011 1009 1011 c 2,21,-1
 884 1011 l 1,22,-1
 669 -1 l 1,23,-1
 608 -20 l 1,0,1
EndSplineSet
Validated: 1
EndChar

StartChar: daggerdbl
Encoding: 8225 8225 116
Width: 1158
GlyphClass: 2
Flags: W
HStem: -20 21G<564.5 669> 339 160<287.152 561 775 1048.85> 1011 160<430.152 704 918 1191.85> 1510 20G<810 914.5>
VStem: 521 148<1.11133 66.6978> 810 148<1443.3 1508.89>
DStem2: 484.513 -20 664.692 -20 0.207912 0.978148<139.761 367.058 568.054 1054.1 1255.1 1482.4>
LayerCount: 2
Fore
SplineSet
608 -20 m 1,0,1
 521 6 521 6 521 114 c 0,2,3
 521 150 521 150 530 194 c 2,4,-1
 561 339 l 1,5,-1
 241 339 l 1,6,-1
 234 396 l 1,7,8
 290 499 290 499 470 499 c 2,9,-1
 595 499 l 1,10,-1
 704 1011 l 1,11,-1
 384 1011 l 1,12,-1
 377 1068 l 1,13,14
 433 1171 433 1171 613 1171 c 2,15,-1
 738 1171 l 1,16,-1
 810 1511 l 1,17,-1
 871 1530 l 1,18,19
 958 1504 958 1504 958 1396 c 0,20,21
 958 1360 958 1360 949 1316 c 2,22,-1
 918 1171 l 1,23,-1
 1238 1171 l 1,24,-1
 1245 1114 l 1,25,26
 1189 1011 1189 1011 1009 1011 c 2,27,-1
 884 1011 l 1,28,-1
 775 499 l 1,29,-1
 1095 499 l 1,30,-1
 1102 442 l 1,31,32
 1046 339 1046 339 866 339 c 2,33,-1
 741 339 l 1,34,-1
 669 -1 l 1,35,-1
 608 -20 l 1,0,1
EndSplineSet
Validated: 1
EndChar

StartChar: bullet
Encoding: 8226 8226 117
Width: 962
GlyphClass: 2
Flags: W
HStem: 415 680<541.037 741.296>
VStem: 302 679<655.625 856.238>
LayerCount: 2
Fore
SplineSet
569 415 m 0,0,1
 430 415 430 415 355 515 c 0,2,3
 302 587 302 587 302 679 c 0,4,5
 302 716 302 716 310 755 c 0,6,7
 340 894 340 894 458 995 c 0,8,9
 575 1095 575 1095 714 1095 c 128,-1,10
 853 1095 853 1095 927 995 c 0,11,12
 981 922 981 922 981 831 c 0,13,14
 981 794 981 794 972 755 c 0,15,16
 942 615 942 615 824.5 515 c 128,-1,17
 707 415 707 415 569 415 c 0,0,1
EndSplineSet
Validated: 1
EndChar

StartChar: ellipsis
Encoding: 8230 8230 118
Width: 1190
GlyphClass: 2
Flags: W
HStem: -20 264<125.398 282.602 541.398 698.602 955.398 1112.6>
VStem: 71 266<33.5176 190.482> 487 266<33.5176 190.482> 901 266<33.5176 190.482>
LayerCount: 2
Fore
SplineSet
1006 -20 m 128,-1,1
 952 -20 952 -20 922 18 c 0,2,3
 901 46 901 46 901 82 c 0,4,5
 901 96 901 96 904 112 c 0,6,7
 916 167 916 167 962 205.5 c 128,-1,8
 1008 244 1008 244 1062 244 c 128,-1,9
 1116 244 1116 244 1146 206 c 0,10,11
 1167 178 1167 178 1167 142 c 0,12,13
 1167 128 1167 128 1164 112 c 0,14,15
 1152 57 1152 57 1106 18.5 c 128,-1,0
 1060 -20 1060 -20 1006 -20 c 128,-1,1
592 -20 m 128,-1,17
 538 -20 538 -20 508 18 c 0,18,19
 487 46 487 46 487 82 c 0,20,21
 487 96 487 96 490 112 c 0,22,23
 502 167 502 167 548 205.5 c 128,-1,24
 594 244 594 244 648 244 c 128,-1,25
 702 244 702 244 732 206 c 0,26,27
 753 178 753 178 753 142 c 0,28,29
 753 128 753 128 750 112 c 0,30,31
 738 57 738 57 692 18.5 c 128,-1,16
 646 -20 646 -20 592 -20 c 128,-1,17
176 -20 m 128,-1,33
 122 -20 122 -20 92 18 c 0,34,35
 71 46 71 46 71 82 c 0,36,37
 71 96 71 96 74 112 c 0,38,39
 86 167 86 167 132 205.5 c 128,-1,40
 178 244 178 244 232 244 c 128,-1,41
 286 244 286 244 316 206 c 0,42,43
 337 178 337 178 337 142 c 0,44,45
 337 128 337 128 334 112 c 0,46,47
 322 57 322 57 276 18.5 c 128,-1,32
 230 -20 230 -20 176 -20 c 128,-1,33
EndSplineSet
Validated: 1
EndChar

StartChar: perthousand
Encoding: 8240 8240 119
Width: 2357
GlyphClass: 2
Flags: W
HStem: -20 88<1050.41 1271.14 1761.41 1982.14> 0 21G<558 644.541> 539 91<1185.05 1410.2 1896.05 2121.2> 880 88<558.397 778.636> 1439 91<692.549 917.696>
VStem: 398 135<990.152 1262.17> 890 135<90.2943 362.173> 941 136<1144.41 1415.79> 1433 136<244.41 515.948> 1601 135<90.2795 362.173> 2144 137<244.41 515.786>
DStem2: 600 238 633 0 0.499801 0.86614<-169.181 1448.12>
LayerCount: 2
Fore
SplineSet
654 968 m 0,0,1
 720 968 720 968 788 1017 c 0,2,3
 854 1065 854 1065 895 1141 c 0,4,5
 922 1191 922 1191 934 1249 c 0,6,7
 941 1285 941 1285 941 1313.5 c 128,-1,8
 941 1342 941 1342 934 1363 c 0,9,10
 907 1439 907 1439 820 1439 c 0,11,12
 754 1439 754 1439 686 1390 c 0,13,14
 623 1344 623 1344 579 1266 c 0,15,16
 551 1216 551 1216 539 1158 c 0,17,18
 533 1128 533 1128 533 1102 c 0,19,20
 533 1069 533 1069 542 1042 c 0,21,22
 567 968 567 968 654 968 c 0,0,1
1146 68 m 0,23,24
 1212 68 1212 68 1280 117 c 0,25,26
 1346 165 1346 165 1387 241 c 0,27,28
 1414 291 1414 291 1426 349 c 0,29,30
 1433 385 1433 385 1433 413.5 c 128,-1,31
 1433 442 1433 442 1426 463 c 0,32,33
 1399 539 1399 539 1312 539 c 0,34,35
 1246 539 1246 539 1178 490 c 0,36,37
 1115 444 1115 444 1071 366 c 0,38,39
 1043 316 1043 316 1031 258 c 0,40,41
 1025 228 1025 228 1025 202 c 0,42,43
 1025 169 1025 169 1034 142 c 0,44,45
 1059 68 1059 68 1146 68 c 0,23,24
1161 -20 m 0,46,47
 1015 -20 1015 -20 947 66 c 0,48,49
 890 135 890 135 890 229 c 0,50,51
 890 265 890 265 899 305 c 0,52,53
 930 449 930 449 1049 544 c 0,54,55
 1158 630 1158 630 1299 630 c 0,56,57
 1442 630 1442 630 1513 544 c 0,58,59
 1569 477 1569 477 1569 382 c 0,60,61
 1569 346 1569 346 1561 305 c 0,62,63
 1531 162 1531 162 1411 66 c 0,64,65
 1303 -20 1303 -20 1161 -20 c 0,46,47
806 1530 m 0,66,67
 949 1530 949 1530 1020 1444 c 0,68,69
 1077 1376 1077 1376 1077 1282 c 0,70,71
 1077 1246 1077 1246 1068 1205 c 0,72,73
 1038 1062 1038 1062 918 966 c 0,74,75
 810 880 810 880 668 880 c 0,76,77
 524 880 524 880 454 966 c 0,78,79
 398 1034 398 1034 398 1129 c 0,80,81
 398 1165 398 1165 406 1205 c 0,82,83
 437 1349 437 1349 556 1444 c 0,84,85
 665 1530 665 1530 806 1530 c 0,66,67
573 0 m 1,86,87
 543 28 543 28 543 75 c 0,88,89
 543 93 543 93 547 113 c 0,90,91
 558 167 558 167 600 238 c 2,92,-1
 1334 1510 l 1,93,-1
 1394 1510 l 1,94,95
 1424 1482 1424 1482 1424 1435 c 0,96,97
 1424 1417 1424 1417 1420 1397 c 0,98,99
 1409 1343 1409 1343 1367 1272 c 2,100,-1
 633 0 l 1,101,-1
 573 0 l 1,86,87
1857 68 m 0,102,103
 1923 68 1923 68 1991 117 c 0,104,105
 2057 165 2057 165 2098 241 c 0,106,107
 2125 291 2125 291 2137 349 c 0,108,109
 2144 385 2144 385 2144 413.5 c 128,-1,110
 2144 442 2144 442 2137 463 c 0,111,112
 2110 539 2110 539 2023 539 c 0,113,114
 1957 539 1957 539 1889 490 c 0,115,116
 1826 444 1826 444 1782 366 c 0,117,118
 1754 316 1754 316 1742 258 c 0,119,120
 1736 228 1736 228 1736 202 c 0,121,122
 1736 169 1736 169 1745 142 c 0,123,124
 1770 68 1770 68 1857 68 c 0,102,103
2010 630 m 0,125,126
 2153 630 2153 630 2224 544 c 0,127,128
 2281 476 2281 476 2281 382 c 0,129,130
 2281 345 2281 345 2272 305 c 0,131,132
 2242 162 2242 162 2122 66 c 0,133,134
 2014 -20 2014 -20 1872 -20 c 0,135,136
 1726 -20 1726 -20 1658 66 c 0,137,138
 1601 135 1601 135 1601 228 c 0,139,140
 1601 265 1601 265 1610 305 c 0,141,142
 1641 449 1641 449 1760 544 c 0,143,144
 1869 630 1869 630 2010 630 c 0,125,126
EndSplineSet
Validated: 1
EndChar

StartChar: minute
Encoding: 8242 8242 120
Width: 390
GlyphClass: 2
Flags: W
HStem: 1137 423
VStem: 299 359
LayerCount: 2
Fore
SplineSet
488 1560 m 1,0,-1
 658 1498 l 1,1,2
 549 1283 549 1283 395 1137 c 1,3,-1
 299 1171 l 1,4,5
 423 1344 423 1344 488 1560 c 1,0,-1
EndSplineSet
Validated: 1
EndChar

StartChar: second
Encoding: 8243 8243 121
Width: 683
GlyphClass: 2
Flags: W
HStem: 1137 423
VStem: 299 652
LayerCount: 2
Fore
SplineSet
781 1560 m 1,0,-1
 951 1498 l 1,1,2
 842 1283 842 1283 688 1137 c 1,3,-1
 592 1171 l 1,4,5
 716 1344 716 1344 781 1560 c 1,0,-1
488 1560 m 1,6,-1
 658 1498 l 1,7,8
 549 1283 549 1283 395 1137 c 1,9,-1
 299 1171 l 1,10,11
 423 1344 423 1344 488 1560 c 1,6,-1
EndSplineSet
Validated: 1
EndChar

StartChar: guilsinglleft
Encoding: 8249 8249 122
Width: 774
GlyphClass: 2
Flags: W
VStem: 305 504
DStem2: 467 732 313 668 0.440462 -0.897771<0 403.737> 738 1270 467 732 0.675362 0.737487<-579.791 -25.5362>
LayerCount: 2
Fore
SplineSet
738 1270 m 1,0,-1
 792 1253 l 1,1,2
 809 1204 809 1204 809 1186 c 0,3,4
 809 1171 809 1171 806 1154 c 0,5,6
 791 1084 791 1084 712 998 c 2,7,-1
 467 732 l 1,8,-1
 650 359 l 1,9,-1
 604 311 l 1,10,11
 589 308 589 308 575 308 c 0,12,13
 491 308 491 308 432 427 c 2,14,-1
 313 668 l 1,15,16
 305 690 305 690 305 713 c 0,17,18
 305 729 305 729 309 747 c 0,19,20
 324 818 324 818 401 902 c 2,21,-1
 738 1270 l 1,0,-1
EndSplineSet
Validated: 1
EndChar

StartChar: guilsinglright
Encoding: 8250 8250 123
Width: 773
GlyphClass: 2
Flags: W
VStem: 300 504
DStem2: 677 1151 459 1219 0.440462 -0.897771<-147.214 258.404> 642 846 371 308 0.675362 0.737487<-554.255 0>
LayerCount: 2
Fore
SplineSet
371 308 m 1,0,-1
 317 325 l 1,1,2
 300 374 300 374 300 392 c 0,3,4
 300 407 300 407 303 424 c 0,5,6
 318 494 318 494 397 580 c 2,7,-1
 642 846 l 1,8,-1
 459 1219 l 1,9,-1
 505 1267 l 1,10,11
 520 1270 520 1270 534 1270 c 0,12,13
 618 1270 618 1270 677 1151 c 2,14,-1
 796 910 l 1,15,16
 804 888 804 888 804 865 c 0,17,18
 804 849 804 849 800 831 c 0,19,20
 785 760 785 760 708 676 c 2,21,-1
 371 308 l 1,0,-1
EndSplineSet
Validated: 1
EndChar

StartChar: fraction
Encoding: 8260 8260 124
Width: 800
GlyphClass: 2
Flags: W
HStem: 0 21G<135 221.541>
DStem2: 177 238 210 0 0.499801 0.86614<-169.181 1448.12>
LayerCount: 2
Fore
SplineSet
150 0 m 1,0,1
 120 28 120 28 120 75 c 0,2,3
 120 93 120 93 124 113 c 0,4,5
 135 167 135 167 177 238 c 2,6,-1
 911 1510 l 1,7,-1
 971 1510 l 1,8,9
 1001 1482 1001 1482 1001 1435 c 0,10,11
 1001 1417 1001 1417 997 1397 c 0,12,13
 986 1343 986 1343 944 1272 c 2,14,-1
 210 0 l 1,15,-1
 150 0 l 1,0,1
EndSplineSet
Validated: 1
EndChar

StartChar: Euro
Encoding: 8364 8364 125
Width: 1731
GlyphClass: 2
Flags: W
HStem: -20 130<741.334 1172.32> 596 99<211.655 382 599 1153.35> 821 99<259.115 419 686 1193.35> 1398 132<1161.63 1579.32>
VStem: 381 188<331.34 596>
LayerCount: 2
Fore
SplineSet
1000 -20 m 128,-1,1
 694 -20 694 -20 516 183 c 0,2,3
 381 337 381 337 381 562 c 0,4,5
 381 579 381 579 382 596 c 1,6,-1
 183 596 l 1,7,-1
 181 614 l 1,8,9
 231 695 231 695 339 695 c 2,10,-1
 392 695 l 1,11,12
 396 724 396 724 402 755 c 0,13,14
 410 789 410 789 419 821 c 1,15,-1
 231 821 l 1,16,-1
 228 839 l 1,17,18
 279 920 279 920 387 920 c 2,19,-1
 452 920 l 1,20,21
 546 1164 546 1164 759 1327 c 0,22,23
 1023 1530 1023 1530 1329 1530 c 128,-1,24
 1635 1530 1635 1530 1813 1327 c 1,25,-1
 1730 1174 l 1,26,27
 1641 1398 1641 1398 1390 1398 c 0,28,29
 1192 1398 1192 1398 1000 1268 c 0,30,31
 801 1133 801 1133 686 920 c 1,32,-1
 1222 920 l 1,33,-1
 1224 902 l 1,34,35
 1174 821 1174 821 1066 821 c 2,36,-1
 641 821 l 1,37,38
 617 760 617 760 599 695 c 1,39,-1
 1182 695 l 1,40,-1
 1184 677 l 1,41,42
 1134 596 1134 596 1026 596 c 2,43,-1
 577 596 l 1,44,45
 569 541 569 541 569 492 c 0,46,47
 569 396 569 396 598 321 c 0,48,49
 681 110 681 110 940 110 c 0,50,51
 1163 110 1163 110 1359 258 c 1,52,-1
 1570 183 l 1,53,0
 1306 -20 1306 -20 1000 -20 c 128,-1,1
EndSplineSet
Validated: 1
EndChar

StartChar: afii61248
Encoding: 8453 8453 126
Width: 1995
GlyphClass: 2
Flags: W
HStem: -20 106<1300.19 1566.63> 0 21G<712 798.541> 688 106<1483.81 1749.59> 716 105<564.053 834.973> 1424 106<748.095 1023.08>
VStem: 377 140<865.985 1179.74> 1111 148<126.539 444.076> 1791 147<330.568 646.554>
DStem2: 754 238 787 0 0.499801 0.86614<-169.181 1448.12>
LayerCount: 2
Fore
SplineSet
1417 86 m 0,0,1
 1505 86 1505 86 1604 153 c 0,2,3
 1742 247 1742 247 1782 445 c 0,4,5
 1791 490 1791 490 1791 521 c 0,6,7
 1791 568 1791 568 1777 601 c 0,8,9
 1739 688 1739 688 1633 688 c 0,10,11
 1547 688 1547 688 1446 621 c 0,12,13
 1309 530 1309 530 1268 329 c 0,14,15
 1259 284 1259 284 1259 252 c 0,16,17
 1259 205 1259 205 1273 172 c 0,18,19
 1311 86 1311 86 1417 86 c 0,0,1
876 1530 m 128,-1,21
 1037 1530 1037 1530 1138 1414 c 1,22,-1
 1065 1292 l 1,23,24
 1036 1424 1036 1424 915 1424 c 0,25,26
 809 1424 809 1424 711 1357 c 0,27,28
 562 1256 562 1256 524 1064 c 0,29,30
 517 1029 517 1029 517 997 c 0,31,32
 517 953 517 953 531 917 c 0,33,34
 569 821 569 821 673 821 c 0,35,36
 774 821 774 821 872 887 c 1,37,-1
 1035 848 l 1,38,39
 875 716 875 716 701 716 c 0,40,41
 541 717 541 717 445 827 c 0,42,43
 377 905 377 905 377 1020 c 0,44,45
 377 1067 377 1067 389 1123 c 0,46,47
 429 1309 429 1309 572 1419.5 c 128,-1,20
 715 1530 715 1530 876 1530 c 128,-1,21
727 0 m 1,48,49
 697 28 697 28 697 75 c 0,50,51
 697 93 697 93 701 113 c 0,52,53
 712 167 712 167 754 238 c 2,54,-1
 1488 1510 l 1,55,-1
 1548 1510 l 1,56,57
 1578 1482 1578 1482 1578 1435 c 0,58,59
 1578 1417 1578 1417 1574 1397 c 0,60,61
 1561 1342 1561 1342 1521 1272 c 2,62,-1
 787 0 l 1,63,-1
 727 0 l 1,48,49
1438 -20 m 0,64,65
 1276 -20 1276 -20 1180 90 c 0,66,67
 1111 169 1111 169 1111 287 c 0,68,69
 1111 334 1111 334 1122 388 c 0,70,71
 1162 574 1162 574 1306.5 684 c 128,-1,72
 1451 794 1451 794 1613 794 c 0,73,74
 1773 794 1773 794 1869 683 c 0,75,76
 1938 603 1938 603 1938 486 c 0,77,78
 1938 439 1938 439 1927 386 c 0,79,80
 1887 200 1887 200 1743 90 c 128,-1,81
 1599 -20 1599 -20 1438 -20 c 0,64,65
EndSplineSet
Validated: 1
EndChar

StartChar: afii61289
Encoding: 8467 8467 127
Width: 958
GlyphClass: 2
Flags: W
HStem: -20 136<493.285 609.793> 0 21G<50 267.222> 1510 20G<957 1028>
LayerCount: 2
Fore
SplineSet
486 466 m 1,0,1
 648 708 648 708 737 860 c 0,2,3
 896 1134 896 1134 944 1359 c 1,4,5
 826 1238 826 1238 730 1067 c 0,6,7
 544 740 544 740 486 466 c 1,0,1
50 0 m 1,8,9
 205 158 205 158 304 282 c 1,10,11
 310 366 310 366 326 443 c 0,12,13
 366 629 366 629 459 848 c 0,14,15
 633 1251 633 1251 822 1434 c 0,16,17
 920 1530 920 1530 994 1530 c 0,18,19
 1062 1530 1062 1530 1086 1479 c 0,20,21
 1099 1453 1099 1453 1099 1410 c 0,22,23
 1099 1371 1099 1371 1088 1318 c 0,24,25
 1068 1226 1068 1226 1006 1072 c 0,26,27
 862 722 862 722 480 271 c 1,28,29
 480 116 480 116 536 116 c 0,30,31
 560 116 560 116 593.5 145 c 128,-1,32
 627 174 627 174 664 228 c 1,33,-1
 840 228 l 1,34,35
 736 100 736 100 659 40 c 128,-1,36
 582 -20 582 -20 498 -20 c 0,37,38
 378 -20 378 -20 324 90 c 1,39,-1
 251 0 l 1,40,-1
 50 0 l 1,8,9
EndSplineSet
Validated: 1
EndChar

StartChar: trademark
Encoding: 8482 8482 128
Width: 2354
GlyphClass: 2
Flags: W
HStem: 726 105<561.668 842.371 1251.72 1383 1945 2087.95> 1426 104<434.859 590 734.844 1143.35 1420.31 1695.93 1977.67 2283.22>
VStem: 382 135<875.118 1189.66> 1068 134<878.843 1189.57> 2321 135<1079.44 1389.94>
DStem2: 1604.79 725 1744.96 725 0.207912 0.978148<88.3419 588.378>
LayerCount: 2
Fore
SplineSet
1572 1540 m 128,-1,1
 1738 1540 1738 1540 1814 1411 c 1,2,3
 1934 1541 1934 1541 2130 1541 c 0,4,5
 2290 1541 2290 1541 2388 1429 c 0,6,7
 2456 1350 2456 1350 2456 1234 c 0,8,9
 2456 1187 2456 1187 2445 1133 c 0,10,11
 2406 948 2406 948 2255 837 c 0,12,13
 2105 726 2105 726 1945 726 c 1,14,-1
 1898 831 l 1,15,16
 2028 831 2028 831 2119 893 c 0,17,18
 2274 998 2274 998 2314 1192 c 0,19,20
 2321 1224 2321 1224 2321 1254 c 0,21,22
 2321 1297 2321 1297 2307 1338 c 0,23,24
 2275 1434 2275 1434 2157 1434 c 0,25,26
 2051 1434 2051 1434 1960 1371 c 0,27,28
 1869 1307 1869 1307 1840 1172 c 2,29,-1
 1749 744 l 1,30,-1
 1687 725 l 1,31,32
 1627 743 1627 743 1627 810 c 0,33,34
 1627 829 1627 829 1632 853 c 2,35,-1
 1700 1172 l 2,36,37
 1718 1255 1718 1255 1718 1304 c 0,38,39
 1718 1336 1718 1336 1710 1355 c 0,40,41
 1678 1434 1678 1434 1584 1434 c 0,42,43
 1496 1434 1496 1434 1405 1372 c 0,44,45
 1246 1265 1246 1265 1209 1074 c 0,46,47
 1202 1037 1202 1037 1202 1005 c 0,48,49
 1202 960 1202 960 1216 925 c 0,50,51
 1256 831 1256 831 1383 831 c 1,52,-1
 1430 726 l 1,53,54
 1251 727 1251 727 1145 836 c 0,55,56
 1068 915 1068 915 1068 1036 c 0,57,58
 1068 1080 1068 1080 1079 1132 c 0,59,60
 1119 1320 1119 1320 1263 1430 c 0,61,0
 1406 1540 1406 1540 1572 1540 c 128,-1,1
524 1530 m 2,62,-1
 1078 1530 l 2,63,64
 1113 1530 1113 1530 1157 1586 c 1,65,-1
 1206 1586 l 1,66,-1
 1147 1477 l 2,67,68
 1119 1426 1119 1426 1053 1426 c 2,69,-1
 907 1426 l 2,70,71
 799 1426 799 1426 713 1368 c 0,72,73
 562 1265 562 1265 524 1073 c 0,74,75
 517 1036 517 1036 517 1004 c 0,76,77
 517 961 517 961 530 926 c 0,78,79
 568 831 568 831 676 831 c 0,80,81
 779 831 779 831 876 896 c 1,82,-1
 1040 858 l 1,83,84
 872 726 872 726 709 726 c 128,-1,85
 546 726 546 726 450 838 c 0,86,87
 382 917 382 917 382 1033 c 0,88,89
 382 1080 382 1080 393 1134 c 0,90,91
 432 1319 432 1319 590 1426 c 1,92,-1
 499 1426 l 2,93,94
 464 1426 464 1426 420 1371 c 1,95,-1
 371 1371 l 1,96,-1
 431 1480 l 2,97,98
 459 1530 459 1530 524 1530 c 2,62,-1
EndSplineSet
Validated: 1
EndChar

StartChar: uni2126
Encoding: 8486 8486 129
Width: 1926
GlyphClass: 2
Flags: W
HStem: 0 152<236.01 502 1405 1722.99> 1398 132<1119.63 1545.42>
VStem: 342 185<342.915 747.213> 1720 188<766.291 1178.45>
LayerCount: 2
Fore
SplineSet
711 0 m 1,0,-1
 229 0 l 2,1,2
 126 0 126 0 116 74 c 1,3,-1
 230 284 l 1,4,-1
 262 274 l 1,5,6
 246 237 246 237 238 203 c 0,7,8
 236 194 236 194 236 185 c 0,9,10
 236 152 236 152 277 152 c 2,11,-1
 502 152 l 1,12,13
 342 338 342 338 342 582 c 0,14,15
 342 666 342 666 361 756 c 0,16,17
 436 1111 436 1111 717 1327 c 0,18,19
 981 1530 981 1530 1287 1530 c 128,-1,20
 1593 1530 1593 1530 1771 1327 c 0,21,22
 1908 1170 1908 1170 1908 945 c 0,23,24
 1908 857 1908 857 1887 759 c 0,25,26
 1802 356 1802 356 1405 152 c 1,27,-1
 1729 152 l 2,28,29
 1832 152 1832 152 1843 78 c 1,30,-1
 1728 -132 l 1,31,-1
 1696 -122 l 1,32,33
 1712 -90 1712 -90 1721 -50 c 0,34,35
 1723 -40 1723 -40 1723 -34 c 0,36,37
 1723 0 1723 0 1681 0 c 2,38,-1
 1165 0 l 1,39,-1
 1247 152 l 1,40,41
 1471 333 1471 333 1596 576 c 0,42,43
 1674 728 1674 728 1704 872 c 0,44,45
 1720 948 1720 948 1720 1016 c 0,46,47
 1720 1110 1720 1110 1690 1185 c 0,48,49
 1604 1398 1604 1398 1348 1398 c 0,50,51
 1150 1398 1150 1398 958 1268 c 0,52,53
 761 1135 761 1135 650 931 c 0,54,55
 575 794 575 794 542 636 c 0,56,57
 527 564 527 564 527 493 c 0,58,59
 527 400 527 400 556 323 c 0,60,61
 615 171 615 171 778 124 c 1,62,-1
 711 0 l 1,0,-1
EndSplineSet
Validated: 1
EndChar

StartChar: estimated
Encoding: 8494 8494 130
Width: 1330
GlyphClass: 2
Flags: W
HStem: -20 92<474.816 877.985> 525 80<477 1112> 1036 84<679.003 1065.2>
LayerCount: 2
Fore
SplineSet
1147 204 m 1,0,1
 1046 103 1046 103 964 58 c 0,2,3
 821 -20 821 -20 661 -20 c 0,4,5
 405 -20 405 -20 286 139 c 0,6,7
 201 252 201 252 201 407 c 0,8,9
 201 474 201 474 217 550 c 0,10,11
 268 788 268 788 451 952 c 24,12,13
 640 1120 640 1120 904 1120 c 0,14,15
 1153 1120 1153 1120 1269 964 c 272,16,17
 1359 843 1359 843 1359 677 c 0,18,19
 1359 605 1359 605 1342 525 c 1,20,-1
 460 525 l 1,21,-1
 389 192 l 1,22,23
 474 72 474 72 681 72 c 256,24,25
 804 72 804 72 908 132 c 0,26,27
 1001 186 1001 186 1068 266 c 1,28,-1
 1147 204 l 1,0,1
477 605 m 1,29,-1
 1112 605 l 1,30,-1
 1175 903 l 1,31,32
 1072 1036 1072 1036 886 1036 c 0,33,34
 695 1036 695 1036 542 914 c 1,35,-1
 477 605 l 1,29,-1
EndSplineSet
Validated: 1
EndChar

StartChar: partialdiff
Encoding: 8706 8706 131
Width: 1285
GlyphClass: 2
Flags: W
HStem: -20 153<437.241 699.292> 870 170<722.652 999.301> 1378 152<776.721 1115.99>
VStem: 214 191<164.14 478.052> 1178 184<934.086 1313.68>
LayerCount: 2
Fore
SplineSet
508 -20 m 0,0,1
 214 -20 214 -20 214 240 c 0,2,3
 214 300 214 300 230 375 c 0,4,5
 284 631 284 631 459 815 c 0,6,7
 675 1040 675 1040 893 1040 c 0,8,9
 1080 1040 1080 1040 1150 930 c 1,10,11
 1178 1063 1178 1063 1178 1153 c 0,12,13
 1178 1202 1178 1202 1170 1239 c 0,14,15
 1139 1378 1139 1378 971 1378 c 0,16,17
 840 1378 840 1378 695 1294 c 1,18,-1
 732 1468 l 1,19,20
 879 1530 879 1530 1028 1530 c 0,21,22
 1362 1530 1362 1530 1362 1173 c 0,23,24
 1362 1069 1362 1069 1334 934 c 0,25,26
 1251 545 1251 545 1022.5 262.5 c 128,-1,27
 794 -20 794 -20 508 -20 c 0,0,1
553 133 m 0,28,29
 691 133 691 133 833 286 c 128,-1,30
 975 439 975 439 1065 680 c 1,31,32
 1061 765 1061 765 1008.5 817.5 c 128,-1,33
 956 870 956 870 880 870 c 0,34,35
 720 870 720 870 587.5 710 c 128,-1,36
 455 550 455 550 416 369 c 0,37,38
 405 319 405 319 405 280 c 0,39,40
 405 133 405 133 553 133 c 0,28,29
EndSplineSet
Validated: 1
EndChar

StartChar: uni2206
Encoding: 8710 8710 132
Width: 1498
GlyphClass: 2
Flags: W
HStem: 0 122<225 1270> 1510 20G<1039.29 1246>
LayerCount: 2
Fore
SplineSet
973 1338 m 1,0,1
 559 790 559 790 225 122 c 1,2,-1
 1270 124 l 1,3,4
 1190 816 1190 816 973 1338 c 1,0,1
10 0 m 1,5,6
 405 818 405 818 895 1460 c 1,7,-1
 1097 1530 l 1,8,9
 1395 846 1395 846 1488 0 c 1,10,-1
 10 0 l 1,5,6
EndSplineSet
Validated: 1
EndChar

StartChar: product
Encoding: 8719 8719 133
Width: 1549
GlyphClass: 2
Flags: W
HStem: -430 21G<188.5 295.077 1137.5 1244.08> 1386 123<695 1444>
VStem: 145 169<-404 -336.647> 521 1149<360 1509> 1094 169<-404 -336.617>
DStem2: 108.853 -430 308.997 -430 0.207912 0.978148<139.69 1898.18> 1058 -430 1257.85 -430 0.207912 0.978148<139.66 1856.57>
LayerCount: 2
Fore
SplineSet
232 -430 m 1,0,1
 145 -404 145 -404 145 -296 c 0,2,3
 145 -260 145 -260 154 -216 c 2,4,-1
 521 1509 l 1,5,-1
 1670 1509 l 9,6,-1
 1263 -404 l 1,7,-1
 1181 -430 l 1,8,9
 1094 -404 1094 -404 1094 -296 c 0,10,11
 1094 -260 1094 -260 1103 -216 c 2,12,-1
 1444 1386 l 17,13,-1
 695 1386 l 1,14,-1
 314 -404 l 1,15,-1
 232 -430 l 1,0,1
EndSplineSet
Validated: 1
EndChar

StartChar: summation
Encoding: 8721 8721 134
Width: 1280
GlyphClass: 2
Flags: W
HStem: -410 128<341 1080.69> 1382 128<640 1321.22>
VStem: 449 189<973.213 1382>
LayerCount: 2
Fore
SplineSet
98 -410 m 1,0,-1
 84 -309 l 1,1,2
 509 95 509 95 668 513 c 1,3,4
 449 881 449 881 449 1409 c 1,5,-1
 506 1510 l 1,6,-1
 1247 1510 l 2,7,8
 1351 1510 1351 1510 1360 1436 c 2,9,-1
 1380 1271 l 1,10,-1
 1359 1271 l 1,11,12
 1318 1382 1318 1382 1227 1382 c 2,13,-1
 640 1382 l 1,14,15
 638 1344 638 1344 638 1306 c 0,16,17
 638 908 638 908 876 527 c 1,18,19
 731 95 731 95 341 -282 c 1,20,-1
 993 -282 l 2,21,22
 1084 -282 1084 -282 1173 -171 c 1,23,-1
 1194 -171 l 1,24,-1
 1104 -336 l 2,25,26
 1064 -410 1064 -410 959 -410 c 2,27,-1
 98 -410 l 1,0,-1
EndSplineSet
Validated: 1
EndChar

StartChar: uni2215
Encoding: 8725 8725 135
Width: 800
GlyphClass: 2
Flags: W
HStem: 0 21G<135 221.541>
DStem2: 177 238 210 0 0.499801 0.86614<-169.181 1448.12>
LayerCount: 2
Fore
SplineSet
150 0 m 1,0,1
 120 28 120 28 120 75 c 0,2,3
 120 93 120 93 124 113 c 0,4,5
 135 167 135 167 177 238 c 2,6,-1
 911 1510 l 1,7,-1
 971 1510 l 1,8,9
 1001 1482 1001 1482 1001 1435 c 0,10,11
 1001 1417 1001 1417 997 1397 c 0,12,13
 986 1343 986 1343 944 1272 c 2,14,-1
 210 0 l 1,15,-1
 150 0 l 1,0,1
EndSplineSet
Validated: 1
EndChar

StartChar: uni2219
Encoding: 8729 8729 136
Width: 360
GlyphClass: 2
Flags: W
HStem: 624 264<262.46 419.602>
VStem: 208 266<677.518 834.482>
LayerCount: 2
Fore
SplineSet
369 888 m 128,-1,1
 423 888 423 888 453 850 c 0,2,3
 474 822 474 822 474 786 c 0,4,5
 474 772 474 772 471 756 c 0,6,7
 459 701 459 701 413 662.5 c 128,-1,8
 367 624 367 624 312 624 c 128,-1,9
 257 624 257 624 229 662 c 0,10,11
 208 690 208 690 208 726 c 0,12,13
 208 744 208 744 211 756 c 0,14,15
 223 811 223 811 269 849.5 c 128,-1,0
 315 888 315 888 369 888 c 128,-1,1
EndSplineSet
Validated: 1
EndChar

StartChar: radical
Encoding: 8730 8730 137
Width: 1396
GlyphClass: 2
Flags: W
HStem: -20 21G<530 624.186> 682 34<168.735 213.403> 1510 20G<1482 1573.77>
LayerCount: 2
Fore
SplineSet
560 -20 m 1,0,1
 500 4 500 4 492 67 c 0,2,3
 452 400 452 400 329 645 c 0,4,5
 306 691 306 691 245 691 c 0,6,7
 206 691 206 691 170 682 c 1,8,-1
 167 716 l 1,9,-1
 413 792 l 1,10,11
 471 770 471 770 503 707 c 0,12,13
 608 502 608 502 643 215 c 1,14,15
 975 991 975 991 1391 1445 c 0,16,17
 1447 1506 1447 1506 1517 1530 c 1,18,-1
 1693 1468 l 1,19,-1
 1676 1434 l 1,20,21
 1643 1443 1643 1443 1605 1443 c 0,22,23
 1542 1443 1542 1443 1501 1397 c 0,24,25
 1080 926 1080 926 698 23 c 1,26,-1
 560 -20 l 1,0,1
EndSplineSet
Validated: 1
EndChar

StartChar: infinity
Encoding: 8734 8734 138
Width: 1476
GlyphClass: 2
Flags: W
HStem: 430 88<461.999 682.959 975.999 1196.96> 989 91<596.96 822.1 1110.72 1336.1>
VStem: 302 135<540.294 812.173> 845 106<694.133 812.867> 1359 136<694.41 965.786>
LayerCount: 2
Fore
SplineSet
1072 518 m 0,0,1
 1138 518 1138 518 1206 567 c 0,2,3
 1272 615 1272 615 1313 691 c 0,4,5
 1340 741 1340 741 1352 799 c 0,6,7
 1359 835 1359 835 1359 863.5 c 128,-1,8
 1359 892 1359 892 1352 913 c 0,9,10
 1325 989 1325 989 1238 989 c 0,11,12
 1172 989 1172 989 1104 940 c 0,13,14
 1041 894 1041 894 997 816 c 0,15,16
 969 766 969 766 957 708 c 0,17,18
 951 678 951 678 951 652 c 0,19,20
 951 619 951 619 960 592 c 0,21,22
 985 518 985 518 1072 518 c 0,0,1
558 518 m 0,23,24
 624 518 624 518 692 567 c 0,25,26
 758 615 758 615 799 691 c 0,27,28
 826 741 826 741 838 799 c 0,29,30
 845 835 845 835 845 863.5 c 128,-1,31
 845 892 845 892 838 913 c 0,32,33
 811 989 811 989 724 989 c 0,34,35
 658 989 658 989 590 940 c 0,36,37
 527 894 527 894 483 816 c 0,38,39
 455 766 455 766 443 708 c 0,40,41
 437 678 437 678 437 652 c 0,42,43
 437 619 437 619 446 592 c 0,44,45
 471 518 471 518 558 518 c 0,23,24
711 1080 m 0,46,47
 854 1080 854 1080 924 994 c 0,48,49
 934 981 934 981 944 967 c 1,50,51
 959 981 959 981 974 994 c 0,52,53
 1083 1080 1083 1080 1225 1080 c 0,54,55
 1368 1080 1368 1080 1438 994 c 0,56,57
 1495 926 1495 926 1495 832 c 0,58,59
 1495 796 1495 796 1486 755 c 0,60,61
 1456 612 1456 612 1337 516 c 0,62,63
 1229 430 1229 430 1086 430 c 0,64,65
 940 430 940 430 873 516 c 0,66,67
 863 529 863 529 853 543 c 1,68,69
 838 529 838 529 823 516 c 0,70,71
 715 430 715 430 572 430 c 0,72,73
 426 430 426 430 359 516 c 0,74,75
 302 585 302 585 302 679 c 0,76,77
 302 715 302 715 310 755 c 0,78,79
 341 899 341 899 460 994 c 0,80,81
 570 1080 570 1080 711 1080 c 0,46,47
EndSplineSet
Validated: 1
EndChar

StartChar: approxequal
Encoding: 8776 8776 139
Width: 1230
GlyphClass: 2
Flags: W
HStem: 339 166<789.695 1019.75> 565 166<437.354 665.841> 747 166<876.156 1106.65> 973 166<524.251 752.841>
LayerCount: 2
Fore
SplineSet
1234 723 m 1,0,-1
 1047 381 l 1,1,2
 973 339 973 339 889 339 c 0,3,4
 737 339 737 339 694 464 c 2,5,-1
 688 480 l 2,6,7
 658 565 658 565 559 565 c 256,8,9
 421 565 421 565 296 347 c 1,10,-1
 224 347 l 1,11,-1
 410 689 l 1,12,13
 484 731 484 731 568 731 c 0,14,15
 718 731 718 731 765 598 c 2,16,-1
 771 582 l 2,17,18
 798 505 798 505 898 505 c 256,19,20
 1036 505 1036 505 1162 723 c 1,21,-1
 1234 723 l 1,0,-1
1320 1131 m 1,22,-1
 1134 789 l 1,23,24
 1060 747 1060 747 976 747 c 0,25,26
 824 747 824 747 780 872 c 2,27,-1
 775 888 l 2,28,29
 745 973 745 973 646 973 c 256,30,31
 508 973 508 973 382 755 c 1,32,-1
 310 755 l 1,33,-1
 497 1097 l 1,34,35
 571 1139 571 1139 655 1139 c 0,36,37
 805 1139 805 1139 852 1006 c 2,38,-1
 857 990 l 2,39,40
 884 913 884 913 985 913 c 256,41,42
 1123 913 1123 913 1248 1131 c 1,43,-1
 1320 1131 l 1,22,-1
EndSplineSet
Validated: 1
EndChar

StartChar: notequal
Encoding: 8800 8800 140
Width: 1158
GlyphClass: 2
Flags: W
HStem: 484 160<318.152 534 732 1079.85> 846 160<395.152 743 941 1156.85>
DStem2: 472 377 491 225 0.499497 0.866315<-95.2 123.665 361.176 541.666 779.177 998.041>
LayerCount: 2
Fore
SplineSet
984 1265 m 1,0,-1
 1013 1264 l 1,1,2
 1033 1239 1033 1239 1033 1206 c 0,3,4
 1033 1193 1033 1193 1030 1179 c 0,5,6
 1022 1146 1022 1146 1003 1113 c 2,7,-1
 941 1006 l 1,8,-1
 1203 1006 l 1,9,-1
 1210 949 l 1,10,11
 1154 846 1154 846 974 846 c 2,12,-1
 849 846 l 1,13,-1
 732 644 l 1,14,-1
 1126 644 l 1,15,-1
 1133 587 l 1,16,17
 1077 484 1077 484 897 484 c 2,18,-1
 640 484 l 1,19,-1
 491 225 l 1,20,-1
 462 226 l 1,21,22
 442 251 442 251 442 284 c 0,23,24
 442 297 442 297 445 310 c 0,25,26
 452 341 452 341 472 377 c 2,27,-1
 534 484 l 1,28,-1
 272 484 l 1,29,-1
 265 541 l 1,30,31
 321 644 321 644 501 644 c 2,32,-1
 626 644 l 1,33,-1
 743 846 l 1,34,-1
 349 846 l 1,35,-1
 342 903 l 1,36,37
 398 1006 398 1006 578 1006 c 2,38,-1
 835 1006 l 1,39,-1
 984 1265 l 1,0,-1
EndSplineSet
Validated: 1
EndChar

StartChar: lessequal
Encoding: 8804 8804 141
Width: 1250
GlyphClass: 2
Flags: W
HStem: 144 160<246.152 1007.85>
DStem2: 596 873 327 832 0.888027 -0.459791<0 569.625> 516 1016 596 873 0.920363 0.391066<17.7066 791.982>
LayerCount: 2
Fore
SplineSet
1295 1347 m 1,0,-1
 1327 1303 l 1,1,2
 1303 1170 1303 1170 1139 1101 c 2,3,-1
 596 873 l 1,4,-1
 1175 589 l 1,5,-1
 1155 529 l 1,6,7
 1103 492 1103 492 1042 492 c 0,8,9
 984 492 984 492 918 526 c 2,10,-1
 327 832 l 1,11,12
 351 946 351 946 516 1016 c 2,13,-1
 1295 1347 l 1,0,-1
193 201 m 1,14,15
 249 304 249 304 429 304 c 2,16,-1
 1054 304 l 1,17,-1
 1061 247 l 1,18,19
 1005 144 1005 144 825 144 c 2,20,-1
 200 144 l 1,21,-1
 193 201 l 1,14,15
EndSplineSet
Validated: 1
EndChar

StartChar: greaterequal
Encoding: 8805 8805 142
Width: 1250
GlyphClass: 2
Flags: W
HStem: 144 160<296.152 1057.85>
DStem2: 502 738 346 492 0.920363 0.391066<-181.848 588.92>
LayerCount: 2
Fore
SplineSet
599 1347 m 0,0,1
 657 1347 657 1347 723 1313 c 2,2,-1
 1314 1007 l 1,3,4
 1290 893 1290 893 1125 823 c 2,5,-1
 346 492 l 1,6,-1
 314 536 l 1,7,8
 338 669 338 669 502 738 c 2,9,-1
 1045 966 l 1,10,-1
 466 1250 l 1,11,-1
 486 1310 l 1,12,13
 538 1347 538 1347 599 1347 c 0,0,1
243 201 m 1,14,15
 299 304 299 304 479 304 c 2,16,-1
 1104 304 l 1,17,-1
 1111 247 l 1,18,19
 1055 144 1055 144 875 144 c 2,20,-1
 250 144 l 1,21,-1
 243 201 l 1,14,15
EndSplineSet
Validated: 1
EndChar

StartChar: lozenge
Encoding: 9674 9674 143
Width: 1134
GlyphClass: 2
Flags: W
HStem: -20 21G<554.926 579.531> 1510 20G<875.965 899.605>
DStem2: 257 738 444 764 0.625536 0.780196<137.26 717.758> 444 764 257 738 0.374342 -0.927291<0 534.609> 641 267 563 -20 0.637091 0.770789<0 572.354> 892 1530 807 1217 0.355404 -0.934713<262.356 803.334>
LayerCount: 2
Fore
SplineSet
641 267 m 5,0,-1
 1001 712 l 5,1,-1
 807 1217 l 5,2,-1
 444 764 l 5,3,-1
 641 267 l 5,0,-1
563 -20 m 5,4,-1
 257 738 l 5,5,-1
 892 1530 l 5,6,-1
 1192 741 l 5,7,-1
 563 -20 l 5,4,-1
EndSplineSet
Validated: 1
EndChar

StartChar: four
Encoding: 52 52 144
Width: 1185
Flags: W
HStem: -20 21G<865 967.077> 360 124<369 872 1088 1162> 1100 20G<1046.92 1149>
VStem: 826 160<6 72.7756> 1028 160<1026.73 1094>
DStem2: 790.513 -20 981.229 -20 0.207912 0.978148<134.754 388.638 554.837 1070.39>
LayerCount: 2
Fore
SplineSet
904 -20 m 1,0,1
 826 6 826 6 826 109 c 0,2,3
 826 148 826 148 836 194 c 2,4,-1
 872 360 l 1,5,-1
 132 360 l 1,6,-1
 118 461 l 1,7,8
 585 878 585 878 848 1483 c 1,9,-1
 1064 1550 l 1,10,11
 790 852 790 852 369 484 c 1,12,-1
 898 484 l 1,13,-1
 1028 1094 l 1,14,-1
 1110 1120 l 1,15,16
 1188 1094 1188 1094 1188 991 c 0,17,18
 1188 953 1188 953 1178 906 c 2,19,-1
 1088 484 l 1,20,-1
 1229 484 l 1,21,-1
 1162 360 l 1,22,-1
 1062 360 l 1,23,-1
 986 6 l 1,24,-1
 904 -20 l 1,0,1
EndSplineSet
Validated: 1
EndChar

StartChar: ampersand
Encoding: 38 38 145
Width: 1779
Flags: W
HStem: -20 130<606.04 1064.22> 44 34<1726.63 1771.84> 634 128<466 999.617> 1398 132<1010.93 1439.71>
VStem: 239 182<329.375 632.281> 1626 182<712.988 881>
LayerCount: 2
Fore
SplineSet
858 -20 m 0,0,1
 552 -20 552 -20 374 183 c 0,2,3
 239 337 239 337 239 563 c 0,4,5
 239 653 239 653 260 755 c 0,6,7
 336 1111 336 1111 617 1327 c 0,8,9
 881 1530 881 1530 1187 1530 c 128,-1,10
 1493 1530 1493 1530 1671 1327 c 1,11,-1
 1584 1183 l 1,12,13
 1499 1398 1499 1398 1248 1398 c 0,14,15
 1040 1398 1040 1398 848 1268 c 0,16,17
 652 1135 652 1135 540 931 c 0,18,19
 496 851 496 851 466 762 c 1,20,-1
 1090 762 l 1,21,22
 1178 496 1178 496 1326 321 c 1,23,24
 1447 432 1447 432 1525 579 c 0,25,26
 1587 695 1587 695 1626 881 c 1,27,-1
 1808 936 l 1,28,29
 1807 850 1807 850 1786 755 c 0,30,31
 1714 415 1714 415 1450 200 c 1,32,33
 1517 145 1517 145 1593 105 c 0,34,35
 1662 69 1662 69 1695 69 c 0,36,37
 1725 69 1725 69 1771 78 c 1,38,-1
 1773 44 l 1,39,-1
 1566 -20 l 1,40,41
 1436 30 1436 30 1329 115 c 1,42,43
 1108 -20 1108 -20 858 -20 c 0,0,1
432 634 m 1,44,45
 421 582 421 582 421 529 c 0,46,47
 421 427 421 427 462 324 c 0,48,49
 548 110 548 110 798 110 c 0,50,51
 1036 110 1036 110 1211 229 c 1,52,53
 1069 391 1069 391 983 634 c 1,54,-1
 432 634 l 1,44,45
EndSplineSet
Validated: 1
EndChar

StartChar: afii61352
Encoding: 8470 8470 146
Width: 2348
Flags: W
HStem: -20 21G<244 338.696 1039 1349.37> 0 124<1635.77 2182.23> 204 90<1836.45 2045.89> 724 91<1962.66 2171.41> 1414 34<324.735 370.204 1521.39 1532.43> 1510 20G<527.146 622 1679.07 1770>
VStem: 218 131<3 70.584> 1641 155<1231.44 1479.07> 1695 124<309.344 564.802> 2188 126<449.326 709.535>
DStem2: 196.097 -20 343.637 -20 0.207912 0.978148<87.3912 1167.52> 1341.5 -20 1488.76 -20 0.207912 0.978148<170.731 1451.91>
LayerCount: 2
Fore
SplineSet
270 -20 m 1,0,1
 218 0 218 0 218 64 c 0,2,3
 218 86 218 86 223 109 c 2,4,-1
 489 1358 l 1,5,6
 465 1423 465 1423 401 1423 c 0,7,8
 363 1423 363 1423 326 1414 c 1,9,-1
 323 1448 l 1,10,-1
 593 1530 l 1,11,12
 651 1519 651 1519 674 1419 c 0,13,14
 859 608 859 608 1377 147 c 1,15,-1
 1640 1386 l 2,16,17
 1641 1391 1641 1391 1641 1401 c 0,18,19
 1641 1436 1641 1436 1597 1436 c 0,20,21
 1559 1436 1559 1436 1522 1427 c 1,22,-1
 1520 1461 l 1,23,-1
 1744 1530 l 1,24,25
 1796 1510 1796 1510 1796 1446 c 0,26,27
 1796 1425 1796 1425 1791 1401 c 2,28,-1
 1503 47 l 1,29,-1
 1284 -20 l 1,30,31
 794 405 794 405 580 1092 c 1,32,-1
 349 3 l 1,33,-1
 270 -20 l 1,0,1
2210 124 m 1,34,-1
 2215 81 l 1,35,36
 2165 0 2165 0 2027 0 c 2,37,-1
 1608 0 l 1,38,-1
 1603 43 l 1,39,40
 1653 124 1653 124 1791 124 c 2,41,-1
 2210 124 l 1,34,-1
2089 724 m 0,42,43
 2023 724 2023 724 1962 679 c 0,44,45
 1858 603 1858 603 1826 463 c 0,46,47
 1819 433 1819 433 1819 408 c 0,48,49
 1819 381 1819 381 1827 358 c 0,50,51
 1850 294 1850 294 1920 294 c 0,52,53
 1985 294 1985 294 2046 339 c 0,54,55
 2153 417 2153 417 2182 555 c 0,56,57
 2188 586 2188 586 2188 611 c 0,58,59
 2188 638 2188 638 2181 659 c 0,60,61
 2158 724 2158 724 2089 724 c 0,42,43
2071 815 m 128,-1,63
 2193 815 2193 815 2264 729 c 0,64,65
 2314 668 2314 668 2314 583 c 0,66,67
 2314 548 2314 548 2306 510 c 0,68,69
 2277 375 2277 375 2168 289 c 0,70,71
 2059 204 2059 204 1940 204 c 0,72,73
 1818 204 1818 204 1746 290 c 0,74,75
 1695 351 1695 351 1695 437 c 0,76,77
 1695 472 1695 472 1703 511 c 0,78,79
 1731 645 1731 645 1841 730 c 0,80,62
 1949 815 1949 815 2071 815 c 128,-1,63
EndSplineSet
Validated: 1
EndChar

StartChar: uni2117
Encoding: 8471 8471 147
Width: 1418
Flags: W
HStem: 386 77<624.878 999.312> 832 88<891 987.195> 1249 100<919.713 1091.65> 1269 30<668.566 701.562> 1453 77<825.688 1200.37>
VStem: 343 82<659.426 1055.31> 623 123<553 620.602> 1101 132<1029.62 1201.47> 1400 82<860.688 1256.57>
DStem2: 569.547 386 710.503 386 0.207912 0.978148<239.604 866.565>
LayerCount: 2
Fore
SplineSet
1018 1530 m 0,0,1
 1260 1530 1260 1530 1387 1368 c 0,2,3
 1482 1247 1482 1247 1482 1097 c 0,4,5
 1482 1019 1482 1019 1473 964 c 0,6,7
 1433 718 1433 718 1234 553 c 0,8,9
 1032 386 1032 386 807 386 c 0,10,11
 565 386 565 386 438 548 c 0,12,13
 343 669 343 669 343 819 c 0,14,15
 343 897 343 897 352 952 c 0,16,17
 392 1199 392 1199 591 1363 c 0,18,19
 793 1530 793 1530 1018 1530 c 0,0,1
1017 1453 m 0,20,21
 827 1453 827 1453 655 1312 c 0,22,23
 477 1166 477 1166 436 953 c 0,24,25
 425 896 425 896 425 849 c 0,26,27
 425 701 425 701 501 602 c 0,28,29
 608 463 608 463 808 463 c 0,30,31
 998 463 998 463 1170 604 c 0,32,33
 1348 750 1348 750 1389 963 c 0,34,35
 1400 1020 1400 1020 1400 1067 c 0,36,37
 1400 1213 1400 1213 1324 1314 c 0,38,39
 1218 1453 1218 1453 1017 1453 c 0,20,21
684 534 m 1,40,41
 623 552 623 552 623 619 c 0,42,43
 623 638 623 638 628 661 c 2,44,-1
 747 1219 l 2,45,46
 749 1227 749 1227 749 1234 c 0,47,48
 749 1249 749 1249 736 1263 c 0,49,50
 723 1275 723 1275 702 1275 c 0,51,52
 688 1275 688 1275 670 1269 c 1,53,-1
 667 1299 l 1,54,-1
 833 1350 l 1,55,56
 867 1339 867 1339 881 1308 c 1,57,58
 942 1349 942 1349 1013 1349 c 0,59,60
 1126 1349 1126 1349 1188 1277 c 0,61,62
 1233 1225 1233 1225 1233 1151 c 0,63,64
 1232 1122 1232 1122 1226 1088 c 0,65,66
 1202 972 1202 972 1103 902 c 128,-1,67
 1004 832 1004 832 891 832 c 1,68,-1
 850 920 l 1,69,70
 1002 939 1002 939 1061 1035 c 0,71,72
 1089 1081 1089 1081 1097 1120 c 0,73,74
 1101 1143 1101 1143 1101 1161 c 0,75,76
 1101 1185 1101 1185 1094 1202 c 0,77,78
 1074 1249 1074 1249 1017 1249 c 0,79,80
 969 1249 969 1249 928 1220 c 0,81,82
 880 1186 880 1186 862 1100 c 2,83,-1
 746 553 l 1,84,-1
 684 534 l 1,40,41
EndSplineSet
Validated: 1
EndChar

StartChar: integral
Encoding: 8747 8747 148
Width: 1532
Flags: W
HStem: -430 99<117.401 436.916> 1431 99<1329.08 1648.6>
DStem2: 584.809 -430 764.809 -430 0.207912 0.978148<287.426 1753.74>
LayerCount: 2
Fore
SplineSet
305 -430 m 0,0,1
 77 -430 77 -430 -50 -282 c 1,2,-1
 28 -140 l 1,3,4
 79 -331 79 -331 262 -331 c 0,5,6
 398 -331 398 -331 517 -232 c 0,7,8
 651 -120 651 -120 693 79 c 2,9,-1
 893 1021 l 2,10,11
 941 1245 941 1245 1065 1368 c 0,12,13
 1229 1530 1229 1530 1461 1530 c 0,14,15
 1689 1530 1689 1530 1816 1382 c 1,16,-1
 1738 1240 l 1,17,18
 1687 1431 1687 1431 1504 1431 c 0,19,20
 1368 1431 1368 1431 1249 1332 c 0,21,22
 1115 1220 1115 1220 1073 1021 c 2,23,-1
 873 79 l 2,24,25
 825 -145 825 -145 701 -268 c 0,26,27
 537 -430 537 -430 305 -430 c 0,0,1
EndSplineSet
Validated: 1
EndChar

StartChar: caron
Encoding: 711 711 149
Width: 640
Flags: W
HStem: 1190 370
VStem: 370 540
LayerCount: 2
Fore
SplineSet
553 1560 m 1,0,1
 603 1455 603 1455 603 1318 c 1,2,3
 636 1439 636 1439 752 1560 c 1,4,-1
 910 1502 l 1,5,6
 741 1399 741 1399 665 1233 c 1,7,-1
 526 1190 l 1,8,9
 506 1387 506 1387 370 1502 c 1,10,-1
 553 1560 l 1,0,1
EndSplineSet
Validated: 1
EndChar

StartChar: circumflex
Encoding: 710 710 150
Width: 640
Flags: W
HStem: 1190 370
VStem: 315 540
LayerCount: 2
Fore
SplineSet
699 1560 m 1,0,1
 719 1363 719 1363 855 1248 c 1,2,-1
 672 1190 l 1,3,4
 622 1295 622 1295 622 1432 c 1,5,6
 589 1311 589 1311 473 1190 c 1,7,-1
 315 1248 l 1,8,9
 484 1351 484 1351 560 1517 c 1,10,-1
 699 1560 l 1,0,1
EndSplineSet
Validated: 1
EndChar

StartChar: uni02C9
Encoding: 713 713 151
Width: 640
Flags: W
HStem: 1307 124<369.771 852.229>
VStem: 342 538
LayerCount: 2
Fore
SplineSet
880 1431 m 1,0,-1
 885 1388 l 1,1,2
 835 1307 835 1307 697 1307 c 2,3,-1
 342 1307 l 1,4,-1
 337 1350 l 1,5,6
 387 1431 387 1431 525 1431 c 2,7,-1
 880 1431 l 1,0,-1
EndSplineSet
Validated: 1
EndChar

StartChar: dotaccent
Encoding: 729 729 152
Width: 360
Flags: W
HStem: 1260 264<397.398 554.602>
VStem: 343 266<1313.52 1470.48>
LayerCount: 2
Fore
SplineSet
504 1524 m 128,-1,1
 558 1524 558 1524 588 1486 c 0,2,3
 609 1458 609 1458 609 1422 c 0,4,5
 609 1408 609 1408 606 1392 c 0,6,7
 594 1337 594 1337 548 1298.5 c 128,-1,8
 502 1260 502 1260 448 1260 c 128,-1,9
 394 1260 394 1260 364 1298 c 0,10,11
 343 1326 343 1326 343 1362 c 0,12,13
 343 1376 343 1376 346 1392 c 0,14,15
 358 1447 358 1447 404 1485.5 c 128,-1,0
 450 1524 450 1524 504 1524 c 128,-1,1
EndSplineSet
Validated: 1
EndChar

StartChar: ring
Encoding: 730 730 153
Width: 500
Flags: W
HStem: 1180 82<443.66 587.897> 1500 84<499.594 644.621>
VStem: 339 101<1281.02 1442.23> 649 100<1320.57 1480.3>
LayerCount: 2
Fore
SplineSet
502 1262 m 0,0,1
 536 1262 536 1262 570 1287 c 0,2,3
 601 1310 601 1310 624 1349 c 0,4,5
 638 1374 638 1374 645 1404 c 0,6,7
 649 1422 649 1422 649 1435 c 0,8,9
 649 1453 649 1453 645 1463 c 0,10,11
 631 1500 631 1500 586 1500 c 0,12,13
 552 1500 552 1500 519 1475 c 0,14,15
 487 1452 487 1452 464 1413 c 0,16,17
 450 1388 450 1388 444 1358 c 0,18,19
 440 1339 440 1339 440 1325 c 0,20,21
 440 1309 440 1309 444 1298 c 0,22,23
 457 1262 457 1262 502 1262 c 0,0,1
589 1584 m 0,24,25
 670 1584 670 1584 715 1525 c 0,26,27
 749 1481 749 1481 749 1426 c 0,28,29
 749 1405 749 1405 744 1383 c 0,30,31
 726 1299 726 1299 655 1240 c 0,32,33
 582 1180 582 1180 501 1180 c 256,34,35
 420 1180 420 1180 373 1240 c 0,36,37
 339 1283 339 1283 339 1338 c 0,38,39
 339 1359 339 1359 344 1383 c 0,40,41
 361 1465 361 1465 433 1525 c 0,42,43
 504 1584 504 1584 589 1584 c 0,24,25
EndSplineSet
Validated: 1
EndChar

StartChar: breve
Encoding: 728 728 154
Width: 670
Flags: W
HStem: 1220 109<481 754.316>
VStem: 328 611
LayerCount: 2
Fore
SplineSet
433 1501 m 1,0,-1
 463 1501 l 1,1,2
 457 1472 457 1472 457 1448 c 0,3,4
 457 1329 457 1329 606 1329 c 0,5,6
 751 1329 751 1329 909 1501 c 1,7,-1
 939 1501 l 9,8,-1
 833 1308 l 1,9,10
 702 1220 702 1220 561.5 1220 c 128,-1,11
 421 1220 421 1220 328 1308 c 1,12,-1
 433 1501 l 1,0,-1
EndSplineSet
Validated: 1
EndChar

StartChar: hungarumlaut
Encoding: 733 733 155
Width: 766
Flags: W
HStem: 1190 370
LayerCount: 2
Fore
SplineSet
833 1560 m 1,0,1
 1032 1488 l 1,2,3
 826 1365 826 1365 723 1190 c 1,4,-1
 599 1234 l 1,5,6
 690 1439 690 1439 833 1560 c 1,0,1
546 1560 m 1,7,-1
 745 1488 l 1,8,9
 539 1365 539 1365 436 1190 c 1,10,-1
 312 1234 l 1,11,12
 403 1439 403 1439 546 1560 c 1,7,-1
EndSplineSet
Validated: 1
EndChar

StartChar: tilde
Encoding: 732 732 156
Width: 670
Flags: W
HStem: 1230 133<651.306 816.358> 1372 133<435.642 599.694>
VStem: 315 622
LayerCount: 2
Fore
SplineSet
937 1490 m 1,0,-1
 815 1267 l 1,1,2
 772 1230 772 1230 720 1230 c 0,3,4
 627 1230 627 1230 600 1333 c 0,5,6
 589 1372 589 1372 537 1372 c 256,7,8
 449 1372 449 1372 345 1245 c 1,9,-1
 315 1245 l 1,10,-1
 437 1468 l 1,11,12
 480 1505 480 1505 531 1505 c 0,13,14
 624 1505 624 1505 651 1402 c 0,15,16
 662 1363 662 1363 715 1363 c 256,17,18
 803 1363 803 1363 907 1490 c 1,19,-1
 937 1490 l 1,0,-1
EndSplineSet
Validated: 1
EndChar

StartChar: ogonek
Encoding: 731 731 157
Width: 376
Flags: W
HStem: -460 138<159.436 228>
VStem: -10 153<-383 -148.465>
LayerCount: 2
Fore
SplineSet
251 63 m 1,0,-1
 287 0 l 1,1,2
 173 -85 173 -85 146 -211 c 0,3,4
 143 -224 143 -224 143 -235 c 0,5,6
 143 -322 143 -322 304 -322 c 1,7,-1
 228 -460 l 1,8,9
 -10 -460 -10 -460 -10 -306 c 0,10,11
 -10 -281 -10 -281 -4 -253 c 0,12,13
 37 -60 37 -60 251 63 c 1,0,-1
EndSplineSet
Validated: 1
EndChar

StartChar: uni1E9E
Encoding: 7838 7838 158
Width: 1285
Flags: W
HStem: -20 119<615 813.651> 1410 120<824.775 1107.3> 1415 34<324.735 368.84>
VStem: 232 148<1.11133 67.4487> 1104 193<424.854 764.761>
DStem2: 196.237 -20 375.738 -20 0.207912 0.978148<139.61 1343.58>
LayerCount: 2
Fore
SplineSet
319 -20 m 1,0,1
 232 6 232 6 232 114 c 0,2,3
 232 150 232 150 241 194 c 2,4,-1
 480 1315 l 2,5,6
 484 1335 484 1335 484 1352 c 0,7,8
 484 1424 484 1424 401 1424 c 0,9,10
 363 1424 363 1424 326 1415 c 1,11,-1
 323 1449 l 1,12,-1
 582 1530 l 1,13,14
 649 1510 649 1510 664 1438 c 1,15,16
 800 1530 800 1530 962 1530 c 0,17,18
 1171 1530 1171 1530 1285 1398 c 0,19,20
 1333 1342 1333 1342 1354 1272 c 1,21,22
 1095 1160 1095 1160 1027 934 c 1,23,24
 1143 904 1143 904 1214 821 c 0,25,26
 1297 724 1297 724 1297 584 c 0,27,28
 1297 528 1297 528 1284 465 c 0,29,30
 1238 247 1238 247 1062 112 c 0,31,32
 889 -20 889 -20 615 -20 c 1,33,-1
 600 99 l 1,34,35
 752 99 752 99 854 167 c 24,36,37
 968 243 968 243 1032 362 c 0,38,39
 1075 444 1075 444 1095 536 c 0,40,41
 1104 577 1104 577 1104 624 c 0,42,43
 1104 677 1104 677 1088 718 c 0,44,45
 1040 831 1040 831 917 831 c 1,46,-1
 886 964 l 1,47,48
 934 1173 934 1173 1156 1295 c 1,49,50
 1106 1410 1106 1410 990 1410 c 0,51,52
 885 1410 885 1410 792 1345 c 0,53,54
 644 1240 644 1240 607 1068 c 2,55,-1
 380 0 l 1,56,-1
 319 -20 l 1,0,1
EndSplineSet
Validated: 1
EndChar

StartChar: uni203D
Encoding: 8253 8253 159
Width: 1314
Flags: W
HStem: -20 264<578.398 735.602> 1100 20G<875.818 945.5> 1410 120<841.08 1151.3>
VStem: 524 266<33.5176 190.482> 1207 192<1009.79 1339.55>
DStem2: 655 408 833 554 0.227279 0.97383<182.635 693.457>
LayerCount: 2
Fore
SplineSet
991 1530 m 0,0,1
 1200 1530 1200 1530 1314 1398 c 0,2,3
 1399 1300 1399 1300 1399 1160 c 0,4,5
 1399 1105 1399 1105 1386 1044 c 0,6,7
 1308 678 1308 678 830 360 c 1,8,-1
 589 360 l 1,9,10
 623 384 623 384 655 408 c 1,11,12
 718 622 718 622 762 826 c 0,13,14
 794 978 794 978 812 1087 c 1,15,-1
 974 1120 l 1,16,17
 917 818 917 818 833 554 c 1,18,19
 1034 740 1034 740 1134 941 c 0,20,21
 1181 1036 1181 1036 1197 1115 c 0,22,23
 1207 1170 1207 1170 1207 1214 c 0,24,25
 1207 1268 1207 1268 1192 1306 c 0,26,27
 1149 1410 1149 1410 1019 1410 c 0,28,29
 901 1410 901 1410 801 1343 c 0,30,31
 688 1267 688 1267 624 1148 c 0,32,33
 581 1067 581 1067 561 974 c 1,34,-1
 360 911 l 1,35,36
 359 920 359 920 359 930 c 0,37,38
 359 986 359 986 372 1045 c 0,39,40
 418 1263 418 1263 594 1398 c 0,41,42
 767 1530 767 1530 991 1530 c 0,0,1
629 -20 m 128,-1,44
 575 -20 575 -20 545 18 c 0,45,46
 524 46 524 46 524 82 c 0,47,48
 524 96 524 96 527 112 c 0,49,50
 539 167 539 167 585 205.5 c 128,-1,51
 631 244 631 244 685 244 c 128,-1,52
 739 244 739 244 769 206 c 0,53,54
 790 178 790 178 790 142 c 0,55,56
 790 128 790 128 787 112 c 0,57,58
 775 57 775 57 729 18.5 c 128,-1,43
 683 -20 683 -20 629 -20 c 128,-1,44
EndSplineSet
Validated: 1
EndChar

StartChar: minus
Encoding: 8722 8722 160
Width: 1158
Flags: W
HStem: 665 160<356.152 1117.85>
LayerCount: 2
Fore
SplineSet
303 722 m 1,0,1
 359 825 359 825 539 825 c 2,2,-1
 1164 825 l 1,3,-1
 1171 768 l 1,4,5
 1115 665 1115 665 935 665 c 2,6,-1
 310 665 l 1,7,-1
 303 722 l 1,0,1
EndSplineSet
Validated: 1
EndChar

StartChar: W
Encoding: 87 87 161
Width: 2405
Flags: W
HStem: -20 21G<906 1001.58 1509 1604.58> 1413 34<318.735 363.981 921.735 966.981> 1480 30<1979 2012.72> 1510 20G<523.458 628.5 1126.46 1231.5>
VStem: 479 190<1006 1418.36> 1082 190<1000.83 1418.36> 2301 234<910.306 1292.96>
LayerCount: 2
Fore
SplineSet
937 -20 m 1,0,1
 875 -1 875 -1 841 58 c 0,2,3
 516 609 516 609 479 1376 c 0,4,5
 477 1422 477 1422 395 1422 c 0,6,7
 357 1422 357 1422 320 1413 c 1,8,-1
 317 1447 l 1,9,-1
 589 1530 l 1,10,11
 668 1513 668 1513 669 1419 c 0,12,13
 681 711 681 711 1092 28 c 1,14,-1
 937 -20 l 1,0,1
1540 -20 m 1,15,16
 1478 -1 1478 -1 1444 58 c 0,17,18
 1115 616 1115 616 1082 1376 c 0,19,20
 1080 1422 1080 1422 998 1422 c 0,21,22
 960 1422 960 1422 923 1413 c 1,23,-1
 920 1447 l 1,24,-1
 1192 1530 l 1,25,26
 1271 1513 1271 1513 1272 1419 c 0,27,28
 1284 711 1284 711 1695 28 c 1,29,-1
 1540 -20 l 1,15,16
1979 1510 m 1,30,31
 2535 1510 2535 1510 2535 1142 c 0,32,33
 2535 1080 2535 1080 2519 1008 c 0,34,35
 2421 556 2421 556 1732 116 c 1,36,-1
 1712 135 l 1,37,38
 2205 625 2205 625 2288 1009 c 0,39,40
 2301 1069 2301 1069 2301 1122 c 0,41,42
 2301 1390 2301 1390 1973 1480 c 1,43,-1
 1979 1510 l 1,30,31
EndSplineSet
Validated: 1
EndChar

StartChar: u
Encoding: 117 117 162
Width: 1328
Flags: W
HStem: -20 99<463.335 794.286> 57 34<1278.83 1323.26> 1021 99<770.578 934>
VStem: 202 171<216.854 567.115>
DStem2: 954.171 -20 1124.15 -20 0.207912 0.978148<301.482 1060.99>
LayerCount: 2
Fore
SplineSet
664 -20 m 0,0,1
 432 -20 432 -20 305 128 c 0,2,3
 202 249 202 249 202 416 c 0,4,5
 202 480 202 480 217 550 c 0,6,7
 270 803 270 803 485 972 c 0,8,9
 673 1120 673 1120 934 1120 c 1,10,-1
 946 1021 l 1,11,12
 814 1021 814 1021 679 923 c 0,13,14
 543 824 543 824 464 675 c 0,15,16
 409 570 409 570 386 459 c 0,17,18
 373 396 373 396 373 342 c 0,19,20
 373 282 373 282 389 231 c 0,21,22
 437 79 437 79 616 79 c 0,23,24
 758 79 758 79 876 178 c 0,25,26
 1022 300 1022 300 1063 492 c 2,27,-1
 1193 1104 l 1,28,-1
 1243 1120 l 1,29,30
 1330 1094 1330 1094 1330 986 c 0,31,32
 1330 948 1330 948 1321 906 c 2,33,-1
 1169 191 l 2,34,35
 1165 173 1165 173 1165 154 c 0,36,37
 1165 82 1165 82 1247 82 c 0,38,39
 1285 82 1285 82 1322 91 c 1,40,-1
 1325 57 l 1,41,-1
 1077 -20 l 1,42,43
 1006 1 1006 1 993 80 c 1,44,45
 851 -20 851 -20 664 -20 c 0,0,1
EndSplineSet
Validated: 1
EndChar

StartChar: q
Encoding: 113 113 163
Width: 1328
Flags: W
HStem: -431 24<971.799 996.336> -20 99<468.819 648> 1021 99<768.667 1098.95>
VStem: 202 171<216.854 568.176> 653 156<-323.379 -72.4277> 1188 172<526.074 883.146>
LayerCount: 2
Fore
SplineSet
660 -20 m 1,0,1
 432 -20 432 -20 305 128 c 0,2,3
 202 249 202 249 202 416 c 0,4,5
 202 479 202 479 217 550 c 0,6,7
 271 805 271 805 485 972 c 0,8,9
 674 1120 674 1120 902 1120 c 0,10,11
 1131 1120 1131 1120 1257 972 c 0,12,13
 1360 851 1360 851 1360 684 c 0,14,15
 1360 620 1360 620 1345 550 c 0,16,17
 1290 292 1290 292 1077 128 c 0,18,19
 945 26 945 26 910 -7 c 0,20,21
 832 -79 832 -79 815 -162 c 0,22,23
 809 -188 809 -188 809 -211 c 0,24,25
 809 -351 809 -351 1006 -407 c 1,26,-1
 982 -431 l 1,27,28
 653 -413 653 -413 653 -199 c 0,29,30
 653 -165 653 -165 661 -126 c 0,31,32
 685 -16 685 -16 756 66 c 0,33,34
 795 111 795 111 883 177 c 0,35,36
 1018 279 1018 279 1097 425 c 0,37,38
 1152 526 1152 526 1176 641 c 24,39,40
 1188 698 1188 698 1188 760 c 0,41,42
 1188 821 1188 821 1173 869 c 0,43,44
 1123 1021 1123 1021 946 1021 c 0,45,46
 814 1021 814 1021 679 923 c 0,47,48
 547 827 547 827 464 675 c 0,49,50
 410 574 410 574 386 459 c 0,51,52
 373 396 373 396 373 342 c 0,53,54
 373 282 373 282 389 231 c 0,55,56
 435 79 435 79 648 79 c 1,57,-1
 660 -20 l 1,0,1
EndSplineSet
Validated: 1
EndChar

StartChar: d
Encoding: 100 100 164
Width: 1328
VWidth: 2458
Flags: W
HStem: -20 99<463.335 794.286> 60 34<1279.59 1324.26> 1021 99<770.578 934> 1419 34<1083.74 1128.17> 1510 20G<1265.58 1373.5>
VStem: 202 171<216.854 567.115> 1243 174<1153.42 1422.25>
DStem2: 954.171 -20 1123.51 -20 0.207912 0.978148<301.482 1403.53>
LayerCount: 2
Fore
SplineSet
664 -20 m 0,0,1
 432 -20 432 -20 305 128 c 0,2,3
 202 249 202 249 202 416 c 0,4,5
 202 480 202 480 217 550 c 0,6,7
 270 803 270 803 485 972 c 0,8,9
 673 1120 673 1120 934 1120 c 1,10,-1
 946 1021 l 1,11,12
 814 1021 814 1021 679 923 c 0,13,14
 543 824 543 824 464 675 c 0,15,16
 409 570 409 570 386 459 c 0,17,18
 373 396 373 396 373 342 c 0,19,20
 373 282 373 282 389 231 c 0,21,22
 437 79 437 79 616 79 c 0,23,24
 758 79 758 79 876 178 c 0,25,26
 1022 300 1022 300 1063 492 c 2,27,-1
 1238 1316 l 2,28,29
 1243 1338 1243 1338 1243 1354 c 0,30,31
 1243 1428 1243 1428 1160 1428 c 0,32,33
 1122 1428 1122 1428 1085 1419 c 1,34,-1
 1082 1453 l 1,35,-1
 1330 1530 l 1,36,37
 1417 1504 1417 1504 1417 1396 c 0,38,39
 1417 1358 1417 1358 1408 1316 c 2,40,-1
 1169 194 l 2,41,42
 1165 175 1165 175 1165 157 c 0,43,44
 1165 85 1165 85 1248 85 c 0,45,46
 1286 85 1286 85 1323 94 c 1,47,-1
 1326 60 l 1,48,-1
 1067 -20 l 1,49,50
 1007 1 1007 1 993 80 c 1,51,52
 851 -20 851 -20 664 -20 c 0,0,1
EndSplineSet
Validated: 1
EndChar

StartChar: f
Encoding: 102 102 165
Width: 1056
Flags: W
HStem: -430 21G<188.5 293> 458 108<500 850.933> 1431 99<852.643 1172.6>
VStem: 145 148<-408.889 -343.294>
DStem2: 108.58 -430 288.25 -430 0.207912 0.978148<139.747 945.194 1055.62 1753.79>
LayerCount: 2
Fore
SplineSet
232 -430 m 1,0,1
 145 -404 145 -404 145 -296 c 0,2,3
 145 -260 145 -260 154 -216 c 2,4,-1
 417 1021 l 2,5,6
 465 1245 465 1245 589 1368 c 0,7,8
 753 1530 753 1530 985 1530 c 0,9,10
 1213 1530 1213 1530 1340 1382 c 1,11,-1
 1262 1240 l 1,12,13
 1211 1431 1211 1431 1028 1431 c 0,14,15
 890 1431 890 1431 773 1332 c 0,16,17
 639 1220 639 1220 597 1021 c 2,18,-1
 500 566 l 1,19,-1
 752 566 l 2,20,21
 843 566 843 566 932 677 c 1,22,-1
 953 677 l 1,23,-1
 874 532 l 2,24,25
 834 458 834 458 729 458 c 2,26,-1
 477 458 l 1,27,-1
 293 -411 l 1,28,-1
 232 -430 l 1,0,1
EndSplineSet
Validated: 1
EndChar

StartChar: g
Encoding: 103 103 166
Width: 1328
Flags: W
HStem: -430 21G<941 1041> -20 99<462.803 795.582> 1021 99<764.526 1089.37>
VStem: 202 171<216.854 564.426>
DStem2: 866.513 -430 1036.96 -430 0.207912 0.978148<134.693 497.874 602.219 817.756>
LayerCount: 2
Fore
SplineSet
660 -20 m 0,0,1
 432 -20 432 -20 305 128 c 0,2,3
 202 249 202 249 202 416 c 0,4,5
 202 480 202 480 217 550 c 0,6,7
 271 805 271 805 485 972 c 0,8,9
 674 1120 674 1120 902 1120 c 128,-1,10
 1130 1120 1130 1120 1257 972 c 1,11,-1
 1178 830 l 1,12,13
 1127 1021 1127 1021 946 1021 c 0,14,15
 809 1021 809 1021 680.5 924 c 128,-1,16
 552 827 552 827 469 675 c 0,17,18
 406 559 406 559 386 459 c 0,19,20
 373 396 373 396 373 342 c 0,21,22
 373 282 373 282 389 231 c 0,23,24
 437 79 437 79 616 79 c 0,25,26
 768 79 768 79 897 192 c 1,27,-1
 992 159 l 1,28,-1
 1053 448 l 1,29,-1
 1114 467 l 1,30,31
 1192 441 1192 441 1192 338 c 0,32,33
 1192 301 1192 301 1182 253 c 2,34,-1
 1041 -411 l 1,35,-1
 980 -430 l 1,36,37
 902 -404 902 -404 902 -301 c 0,38,39
 902 -264 902 -264 912 -216 c 2,40,-1
 970 57 l 1,41,42
 812 -20 812 -20 660 -20 c 0,0,1
EndSplineSet
Validated: 1
EndChar

StartChar: k
Encoding: 107 107 167
Width: 1351
Flags: W
HStem: -20 21G<275.5 369 910 1180.66> 53 34<1305.65 1350.84> 1100 20G<1137.88 1178.29> 1419 34<325.735 370.173> 1510 20G<507.584 616>
VStem: 232 137<1.11133 63.4965> 485 175<1167.55 1422.7>
DStem2: 195.387 -20 365.387 -20 0.207912 0.978148<139.787 1405.68> 612 726 769 718 0.814924 0.579567<107.777 673.275>
LayerCount: 2
Fore
SplineSet
1116 -20 m 1,0,1
 704 259 704 259 612 726 c 1,2,-1
 1166 1120 l 1,3,-1
 1217 1037 l 1,4,-1
 769 718 l 1,5,6
 856 368 856 368 1177 115 c 0,7,8
 1224 78 1224 78 1278 78 c 0,9,10
 1313 78 1313 78 1350 87 c 1,11,-1
 1352 53 l 1,12,-1
 1116 -20 l 1,0,1
319 -20 m 1,13,14
 232 6 232 6 232 114 c 0,15,16
 232 150 232 150 241 194 c 2,17,-1
 480 1319 l 2,18,19
 485 1341 485 1341 485 1356 c 0,20,21
 485 1428 485 1428 402 1428 c 0,22,23
 364 1428 364 1428 327 1419 c 1,24,-1
 324 1453 l 1,25,-1
 572 1530 l 1,26,27
 660 1504 660 1504 660 1397 c 0,28,29
 660 1362 660 1362 650 1319 c 2,30,-1
 369 -4 l 1,31,-1
 319 -20 l 1,13,14
EndSplineSet
Validated: 1
EndChar

StartChar: r
Encoding: 114 114 168
Width: 1056
Flags: W
HStem: -20 21G<275.5 369> 1009 34<238.157 283.173> 1021 99<764.795 1085.23>
VStem: 232 137<1.11133 63.4895>
DStem2: 195.535 -20 365.514 -20 0.207912 0.978148<139.816 899.327>
LayerCount: 2
Fore
SplineSet
319 -20 m 1,0,1
 232 6 232 6 232 114 c 0,2,3
 232 152 232 152 241 194 c 2,4,-1
 393 909 l 2,5,6
 399 937 399 937 399 946 c 0,7,8
 399 1018 399 1018 314 1018 c 0,9,10
 276 1018 276 1018 239 1009 c 1,11,-1
 237 1043 l 1,12,-1
 485 1120 l 1,13,14
 557 1099 557 1099 569 1020 c 1,15,16
 712 1120 712 1120 898 1120 c 0,17,18
 1126 1120 1126 1120 1253 972 c 1,19,-1
 1174 830 l 1,20,21
 1123 1021 1123 1021 941 1021 c 0,22,23
 803 1021 803 1021 686 922 c 0,24,25
 540 800 540 800 499 608 c 2,26,-1
 369 -4 l 1,27,-1
 319 -20 l 1,0,1
EndSplineSet
Validated: 1
EndChar

StartChar: t
Encoding: 116 116 169
Width: 1189
Flags: W
HStem: -20 99<501.303 833.685> 992 108<297.321 592 749.143 1294.63>
VStem: 241 171<217.084 569.506>
LayerCount: 2
Fore
SplineSet
699 -20 m 0,0,1
 469 -20 469 -20 344 128 c 0,2,3
 241 250 241 250 241 415 c 0,4,5
 241 477 241 477 255 546 c 0,6,7
 309 799 309 799 532 955 c 0,8,9
 560 975 560 975 592 992 c 1,10,-1
 398 992 l 2,11,12
 307 992 307 992 218 881 c 1,13,-1
 197 881 l 1,14,-1
 275 1026 l 2,15,16
 315 1100 315 1100 420 1100 c 2,17,-1
 1196 1100 l 2,18,19
 1287 1100 1287 1100 1375 1211 c 1,20,-1
 1396 1211 l 1,21,-1
 1318 1066 l 2,22,23
 1278 992 1278 992 1173 992 c 2,24,-1
 929 992 l 2,25,26
 803 992 803 992 710 923 c 0,27,28
 589 832 589 832 503 675 c 0,29,30
 449 574 449 574 425 459 c 0,31,32
 412 396 412 396 412 342 c 0,33,34
 412 282 412 282 428 231 c 0,35,36
 476 79 476 79 655 79 c 0,37,38
 807 79 807 79 936 192 c 1,39,-1
 1116 128 l 1,40,41
 928 -20 928 -20 699 -20 c 0,0,1
EndSplineSet
Validated: 1
EndChar

StartChar: y
Encoding: 121 121 170
Width: 1405
Flags: W
HStem: -430 21G<232.167 792.5> 1008 34<232.157 277.316> 1070 30<1025 1052.44> 1100 20G<418.385 522.5>
VStem: 393 170<654.177 1013.36> 1258 213<629.774 945.312>
LayerCount: 2
Fore
SplineSet
658 123 m 1,0,1
 588 145 588 145 563 201 c 0,2,3
 412 539 412 539 393 971 c 0,4,5
 391 1017 391 1017 308 1017 c 0,6,7
 270 1017 270 1017 233 1008 c 1,8,-1
 231 1042 l 1,9,-1
 483 1120 l 1,10,11
 562 1104 562 1104 563 1009 c 0,12,13
 571 591 571 591 779 161 c 1,14,-1
 658 123 l 1,0,1
1025 1100 m 1,15,16
 1471 1100 1471 1100 1471 825 c 0,17,18
 1471 783 1471 783 1461 735 c 0,19,20
 1342 176 1342 176 243 -430 c 1,21,-1
 230 -406 l 1,22,23
 1164 301 1164 301 1246 689 c 0,24,25
 1258 744 1258 744 1258 791 c 0,26,27
 1258 1006 1258 1006 1018 1070 c 1,28,-1
 1025 1100 l 1,15,16
EndSplineSet
Validated: 19457
EndChar

StartChar: z
Encoding: 122 122 171
Width: 1105
Flags: W
HStem: 0 128<120 857.99> 141 24<200.235 215.138> 992 108<435.067 847.081>
VStem: 914 208<678.406 928.547>
LayerCount: 2
Fore
SplineSet
50 0 m 1,0,-1
 120 128 l 1,1,-1
 853 128 l 2,2,3
 956 128 956 128 966 54 c 1,4,-1
 863 -136 l 1,5,-1
 831 -126 l 1,6,7
 847 -91 847 -91 856 -53 c 0,8,9
 858 -43 858 -43 858 -35 c 0,10,11
 858 0 858 0 817 0 c 2,12,-1
 50 0 l 1,0,-1
557 1100 m 2,13,-1
 653 1100 l 2,14,15
 1122 1100 1122 1100 1122 830 c 0,16,17
 1122 792 1122 792 1113 749 c 0,18,19
 1031 365 1031 365 208 141 c 1,20,-1
 195 165 l 1,21,22
 844 472 844 472 908 770 c 0,23,24
 914 798 914 798 914 823 c 0,25,26
 914 992 914 992 630 992 c 2,27,-1
 534 992 l 2,28,29
 443 992 443 992 354 881 c 1,30,-1
 333 881 l 1,31,-1
 412 1026 l 2,32,33
 452 1100 452 1100 557 1100 c 2,13,-1
EndSplineSet
Validated: 1
EndChar

StartChar: x
Encoding: 120 120 172
Width: 1157
Flags: W
HStem: -20 21G<903 1007.15> 0 30<410.156 460> 46 34<1110.3 1155.26> 1011 34<233.735 278.64> 1070 30<927 976.208> 1100 20G<410.933 505.5>
VStem: 118 195<71.5723 256.34> 1074 195<840.205 1026.65>
LayerCount: 2
Fore
SplineSet
942 -20 m 1,0,1
 864 -12 864 -12 818 49 c 0,2,3
 504 466 504 466 408 968 c 0,4,5
 398 1020 398 1020 310 1020 c 0,6,7
 271 1020 271 1020 235 1011 c 1,8,-1
 232 1045 l 1,9,-1
 476 1120 l 1,10,11
 535 1108 535 1108 556 1009 c 0,12,13
 657 528 657 528 971 118 c 0,14,15
 1007 71 1007 71 1079 71 c 0,16,17
 1117 71 1117 71 1154 80 c 1,18,-1
 1157 46 l 1,19,-1
 942 -20 l 1,0,1
927 1100 m 1,20,21
 1269 1100 1269 1100 1269 964 c 0,22,23
 1269 951 1269 951 1266 938 c 0,24,25
 1217 709 1217 709 794 530 c 1,26,-1
 780 554 l 1,27,28
 1045 787 1045 787 1070 909 c 0,29,30
 1074 927 1074 927 1074 942 c 0,31,32
 1074 1043 1074 1043 920 1070 c 1,33,-1
 927 1100 l 1,20,21
460 0 m 1,34,35
 118 0 118 0 118 136 c 0,36,37
 118 149 118 149 120 162 c 0,38,39
 155 336 155 336 474 472 c 1,40,-1
 488 448 l 1,41,42
 344 312 344 312 317 191 c 0,43,44
 313 173 313 173 313 158 c 0,45,46
 313 57 313 57 466 30 c 1,47,-1
 460 0 l 1,34,35
EndSplineSet
Validated: 1
EndChar

StartChar: U
Encoding: 85 85 173
Width: 1726
Flags: W
HStem: -20 132<601.184 1038.48> 64 34<1678.92 1723.26> 1400 130<1022.18 1232>
VStem: 239 188<331.459 746.737> 1369 195<47.6748 169.5>
DStem2: 1332.21 -20 1521.66 -20 0.207912 0.978148<463.54 1484.33>
LayerCount: 2
Fore
SplineSet
860 -20 m 0,0,1
 554 -20 554 -20 376 183 c 0,2,3
 239 339 239 339 239 566 c 0,4,5
 239 655 239 655 260 755 c 0,6,7
 335 1109 335 1109 619 1327 c 0,8,9
 883 1530 883 1530 1232 1530 c 1,10,-1
 1249 1400 l 1,11,12
 1051 1400 1051 1400 858 1271 c 0,13,14
 661 1139 661 1139 551 934 c 0,15,16
 476 797 476 797 443 638 c 0,17,18
 427 562 427 562 427 495 c 0,19,20
 427 402 427 402 458 325 c 0,21,22
 541 112 541 112 799 112 c 0,23,24
 1011 112 1011 112 1190 237 c 0,25,26
 1421 398 1421 398 1481 680 c 2,27,-1
 1656 1507 l 1,28,-1
 1728 1530 l 1,29,30
 1815 1504 1815 1504 1815 1396 c 0,31,32
 1815 1360 1815 1360 1806 1316 c 2,33,-1
 1568 198 l 2,34,35
 1564 178 1564 178 1564 161 c 0,36,37
 1564 89 1564 89 1647 89 c 0,38,39
 1685 89 1685 89 1722 98 c 1,40,-1
 1725 64 l 1,41,-1
 1455 -20 l 1,42,43
 1369 6 1369 6 1369 116 c 0,44,45
 1369 127 1369 127 1370 139 c 1,46,47
 1158 -20 1158 -20 860 -20 c 0,0,1
EndSplineSet
Validated: 1
EndChar

StartChar: D
Encoding: 68 68 174
Width: 1726
Flags: W
HStem: -20 130<815 1024.82> 1398 132<1008.52 1445.42> 1412 34<323.735 368.08>
VStem: 232 159<3 70.7478> 483 195<1340.5 1462.33> 1620 188<763.263 1178.6>
DStem2: 195.875 -20 385.327 -20 0.207912 0.978148<139.685 1160.48>
LayerCount: 2
Fore
SplineSet
319 -20 m 1,0,1
 232 6 232 6 232 114 c 0,2,3
 232 150 232 150 241 194 c 2,4,-1
 479 1312 l 2,5,6
 483 1332 483 1332 483 1349 c 0,7,8
 483 1421 483 1421 400 1421 c 0,9,10
 362 1421 362 1421 325 1412 c 1,11,-1
 322 1446 l 1,12,-1
 592 1530 l 1,13,14
 678 1504 678 1504 678 1394 c 0,15,16
 678 1383 678 1383 677 1371 c 1,17,18
 889 1530 889 1530 1187 1530 c 0,19,20
 1493 1530 1493 1530 1671 1327 c 0,21,22
 1808 1171 1808 1171 1808 944 c 0,23,24
 1808 855 1808 855 1786 755 c 0,25,26
 1711 401 1711 401 1428 183 c 0,27,28
 1164 -20 1164 -20 815 -20 c 1,29,-1
 798 110 l 1,30,31
 996 110 996 110 1189 239 c 0,32,33
 1386 371 1386 371 1496 576 c 0,34,35
 1571 713 1571 713 1604 872 c 0,36,37
 1620 950 1620 950 1620 1016 c 0,38,39
 1620 1110 1620 1110 1590 1185 c 0,40,41
 1504 1398 1504 1398 1248 1398 c 0,42,43
 1036 1398 1036 1398 857 1273 c 0,44,45
 626 1112 626 1112 566 830 c 2,46,-1
 391 3 l 1,47,-1
 319 -20 l 1,0,1
EndSplineSet
Validated: 1
EndChar

StartChar: M
Encoding: 77 77 175
Width: 2852
Flags: W
HStem: -20 130<614.75 841 1941 2150.82> 1398 132<1019.72 1417.86 2136.72 2571.42>
VStem: 239 187<329.68 744.255> 1358 169<6 73.3629> 2746 188<763.294 1178.7>
DStem2: 1321.69 -20 1521.69 -20 0.207912 0.978148<139.724 1134.13>
LayerCount: 2
Fore
SplineSet
1445 -20 m 1,0,1
 1358 6 1358 6 1358 114 c 0,2,3
 1358 150 1358 150 1367 194 c 2,4,-1
 1503 833 l 2,5,6
 1537 992 1537 992 1537 1097 c 0,7,8
 1537 1171 1537 1171 1520 1219 c 0,9,10
 1457 1398 1457 1398 1249 1398 c 0,11,12
 1050 1398 1050 1398 858 1268 c 0,13,14
 661 1135 661 1135 550 931 c 0,15,16
 476 796 476 796 442 636 c 0,17,18
 426 559 426 559 426 493 c 0,19,20
 426 400 426 400 457 323 c 0,21,22
 543 110 543 110 841 110 c 1,23,-1
 858 -20 l 1,24,25
 552 -20 552 -20 374 183 c 0,26,27
 239 337 239 337 239 563 c 0,28,29
 239 653 239 653 260 755 c 0,30,31
 336 1111 336 1111 617 1327 c 0,32,33
 881 1530 881 1530 1187 1530 c 0,34,35
 1459 1530 1459 1530 1608 1350 c 0,36,37
 1650 1299 1650 1299 1677 1239 c 1,38,39
 1729 1306 1729 1306 1793 1358 c 0,40,41
 2005 1530 2005 1530 2313 1530 c 0,42,43
 2619 1530 2619 1530 2797 1327 c 0,44,45
 2934 1171 2934 1171 2934 945 c 0,46,47
 2934 856 2934 856 2912 755 c 0,48,49
 2837 401 2837 401 2554 183 c 0,50,51
 2290 -20 2290 -20 1941 -20 c 1,52,-1
 1924 110 l 1,53,54
 2122 110 2122 110 2315 239 c 0,55,56
 2512 371 2512 371 2622 576 c 0,57,58
 2697 713 2697 713 2730 872 c 0,59,60
 2745 949 2745 949 2746 1016 c 0,61,62
 2746 1110 2746 1110 2716 1185 c 0,63,64
 2630 1398 2630 1398 2374 1398 c 0,65,66
 2164 1398 2164 1398 1983 1273 c 0,67,68
 1765 1122 1765 1122 1703 833 c 2,69,-1
 1527 6 l 1,70,-1
 1445 -20 l 1,0,1
EndSplineSet
Validated: 1
EndChar

StartChar: P
Encoding: 80 80 176
Width: 1726
Flags: W
HStem: -430 21G<188.5 293.739> -20 130<815 1024.82> 1398 132<1008.52 1445.42> 1412 34<323.735 368.08>
VStem: 145 158<-407 -339.572> 483 195<1340.5 1462.33> 1620 188<763.263 1178.6>
DStem2: 108.726 -430 298.179 -430 0.207912 0.978148<139.716 1579.64>
LayerCount: 2
Fore
SplineSet
232 -430 m 1,0,1
 145 -404 145 -404 145 -296 c 0,2,3
 145 -260 145 -260 154 -216 c 2,4,-1
 479 1312 l 2,5,6
 483 1332 483 1332 483 1349 c 0,7,8
 483 1421 483 1421 400 1421 c 0,9,10
 362 1421 362 1421 325 1412 c 1,11,-1
 322 1446 l 1,12,-1
 592 1530 l 1,13,14
 678 1504 678 1504 678 1394 c 0,15,16
 678 1383 678 1383 677 1371 c 1,17,18
 889 1530 889 1530 1187 1530 c 0,19,20
 1493 1530 1493 1530 1671 1327 c 0,21,22
 1808 1171 1808 1171 1808 944 c 0,23,24
 1808 855 1808 855 1786 755 c 0,25,26
 1711 401 1711 401 1428 183 c 0,27,28
 1164 -20 1164 -20 815 -20 c 1,29,-1
 798 110 l 1,30,31
 996 110 996 110 1189 239 c 0,32,33
 1386 371 1386 371 1496 576 c 0,34,35
 1571 713 1571 713 1604 872 c 0,36,37
 1620 948 1620 948 1620 1016 c 0,38,39
 1620 1110 1620 1110 1590 1185 c 0,40,41
 1504 1398 1504 1398 1248 1398 c 0,42,43
 1036 1398 1036 1398 857 1273 c 0,44,45
 626 1112 626 1112 566 830 c 2,46,-1
 303 -407 l 1,47,-1
 232 -430 l 1,0,1
EndSplineSet
Validated: 1
EndChar

StartChar: R
Encoding: 82 82 177
Width: 1474
Flags: W
HStem: -20 21G<275.5 381.609 1051 1275.1> 63 34<1431.06 1475.26> 1410 120<825.186 1116.15> 1412 34<323.735 368.08>
VStem: 232 159<3 70.4487> 1178 192<1002.33 1339.55>
DStem2: 195.875 -20 386.101 -20 0.207912 0.978148<139.746 1359.52>
LayerCount: 2
Fore
SplineSet
319 -20 m 1,0,1
 232 6 232 6 232 114 c 0,2,3
 232 152 232 152 241 194 c 2,4,-1
 479 1312 l 2,5,6
 483 1331 483 1331 483 1349 c 0,7,8
 483 1421 483 1421 400 1421 c 0,9,10
 362 1421 362 1421 325 1412 c 1,11,-1
 322 1446 l 1,12,-1
 592 1530 l 1,13,14
 659 1510 659 1510 674 1441 c 1,15,16
 807 1530 807 1530 962 1530 c 0,17,18
 1171 1530 1171 1530 1285 1398 c 0,19,20
 1370 1300 1370 1300 1370 1160 c 0,21,22
 1370 1105 1370 1105 1357 1044 c 0,23,24
 1309 817 1309 817 1135 691 c 0,25,26
 1050 630 1050 630 938 588 c 1,27,28
 1077 279 1077 279 1301 126 c 0,29,30
 1355 88 1355 88 1399 88 c 0,31,32
 1437 88 1437 88 1474 97 c 1,33,-1
 1477 63 l 1,34,-1
 1211 -20 l 1,35,36
 891 235 891 235 699 686 c 1,37,38
 838 686 838 686 928 746 c 0,39,40
 1039 819 1039 819 1105 941 c 0,41,42
 1150 1023 1150 1023 1168 1115 c 0,43,44
 1178 1168 1178 1168 1178 1210 c 0,45,46
 1178 1262 1178 1262 1163 1297 c 0,47,48
 1115 1410 1115 1410 990 1410 c 0,49,50
 885 1410 885 1410 792 1345 c 0,51,52
 656 1250 656 1250 618 1071 c 2,53,-1
 391 3 l 1,54,-1
 319 -20 l 1,0,1
EndSplineSet
Validated: 1
EndChar

StartChar: Z
Encoding: 90 90 178
Width: 1409
Flags: W
HStem: 0 148<131 1154.99> 1382 128<584.313 1113.27>
VStem: 1236 243<941.529 1275.13>
LayerCount: 2
Fore
SplineSet
50 0 m 1,0,-1
 131 148 l 1,1,-1
 1161 148 l 2,2,3
 1264 148 1264 148 1275 74 c 1,4,-1
 1160 -136 l 1,5,-1
 1128 -126 l 1,6,7
 1144 -91 1144 -91 1153 -53 c 0,8,9
 1155 -43 1155 -43 1155 -35 c 0,10,11
 1155 0 1155 0 1114 0 c 2,12,-1
 50 0 l 1,0,-1
706 1510 m 2,13,-1
 925 1510 l 2,14,15
 1479 1510 1479 1510 1479 1149 c 0,16,17
 1479 1091 1479 1091 1464 1023 c 0,18,19
 1352 494 1352 494 266 192 c 1,20,-1
 253 217 l 1,21,22
 1141 637 1141 637 1224 1027 c 0,23,24
 1236 1083 1236 1083 1236 1130 c 0,25,26
 1236 1382 1236 1382 897 1382 c 2,27,-1
 672 1382 l 2,28,29
 581 1382 581 1382 492 1271 c 1,30,-1
 471 1271 l 1,31,-1
 561 1436 l 2,32,33
 602 1510 602 1510 706 1510 c 2,13,-1
EndSplineSet
Validated: 1
EndChar

StartChar: K
Encoding: 75 75 179
Width: 1574
Flags: W
HStem: -20 21G<280.5 386.609 1051.5 1379.66> 62 34<1531.37 1575.26> 1412 34<328.735 373.08> 1510 20G<532.714 640.5 1441.91 1482.5>
VStem: 237 159<3 70.503> 488 196<1151.58 1462.16>
DStem2: 200.875 -20 390.875 -20 0.207912 0.978148<139.685 1398.26> 675 964 853 940 0.814633 0.579977<112.554 968.534>
LayerCount: 2
Fore
SplineSet
1316 -20 m 1,0,1
 787 327 787 327 675 964 c 1,2,-1
 1470 1530 l 1,3,-1
 1535 1426 l 1,4,-1
 853 940 l 1,5,6
 951 446 951 446 1401 120 c 0,7,8
 1446 87 1446 87 1502 87 c 0,9,10
 1537 87 1537 87 1574 96 c 1,11,-1
 1577 62 l 1,12,-1
 1316 -20 l 1,0,1
324 -20 m 1,13,14
 237 6 237 6 237 114 c 0,15,16
 237 150 237 150 246 194 c 2,17,-1
 484 1312 l 2,18,19
 488 1332 488 1332 488 1349 c 0,20,21
 488 1421 488 1421 405 1421 c 0,22,23
 367 1421 367 1421 330 1412 c 1,24,-1
 327 1446 l 1,25,-1
 597 1530 l 1,26,27
 684 1503 684 1503 684 1395 c 0,28,29
 684 1358 684 1358 674 1312 c 2,30,-1
 396 3 l 1,31,-1
 324 -20 l 1,13,14
EndSplineSet
Validated: 1
EndChar

StartChar: H
Encoding: 72 72 180
Width: 1726
Flags: W
HStem: -430 130<728 937.824> -20 21G<275.5 381.609> 988 132<922.443 1358.42> 1412 34<323.735 368.08> 1510 20G<527.714 635.5>
VStem: 232 159<3 70.9331> 483 196<1152.06 1414.73> 1533 188<351.821 768.602>
DStem2: 108.365 -430 298.327 -430 0.207912 0.978148<558.92 1168.31 1465.69 1817.5>
LayerCount: 2
Fore
SplineSet
319 -20 m 1,0,1
 232 6 232 6 232 114 c 0,2,3
 232 150 232 150 241 194 c 2,4,-1
 479 1312 l 2,5,6
 483 1332 483 1332 483 1349 c 0,7,8
 483 1421 483 1421 400 1421 c 0,9,10
 362 1421 362 1421 325 1412 c 1,11,-1
 322 1446 l 1,12,-1
 592 1530 l 1,13,14
 679 1502 679 1502 679 1394 c 0,15,16
 679 1357 679 1357 669 1312 c 2,17,-1
 595 965 l 1,18,19
 806 1120 806 1120 1100 1120 c 0,20,21
 1406 1120 1406 1120 1584 917 c 0,22,23
 1721 761 1721 761 1721 534 c 0,24,25
 1721 445 1721 445 1699 345 c 0,26,27
 1624 -9 1624 -9 1341 -227 c 0,28,29
 1077 -430 1077 -430 728 -430 c 1,30,-1
 711 -300 l 1,31,32
 909 -300 909 -300 1102 -171 c 0,33,34
 1299 -39 1299 -39 1409 166 c 0,35,36
 1485 307 1485 307 1517 462 c 0,37,38
 1533 540 1533 540 1533 606 c 0,39,40
 1533 700 1533 700 1503 775 c 0,41,42
 1417 988 1417 988 1161 988 c 0,43,44
 949 988 949 988 769 863 c 0,45,46
 539 702 539 702 479 420 c 2,47,-1
 391 3 l 1,48,-1
 319 -20 l 1,0,1
EndSplineSet
Validated: 1
EndChar

StartChar: B
Encoding: 66 66 181
Width: 1245
Flags: W
HStem: -20 119<565 763.651> 760 114<744 900.734> 1412 34<323.735 368.08> 1415 115<770.468 1051.99>
VStem: 232 159<3 70.6498> 1057 196<396.291 710.489> 1096 192<1080.95 1371.66>
DStem2: 195.357 -20 385.357 -20 0.207912 0.978148<139.793 1398.37>
LayerCount: 2
Fore
SplineSet
319 -20 m 1,0,1
 232 6 232 6 232 114 c 0,2,3
 232 150 232 150 241 194 c 2,4,-1
 450 1178 l 1,5,-1
 479 1312 l 2,6,7
 483 1332 483 1332 483 1349 c 0,8,9
 483 1421 483 1421 400 1421 c 0,10,11
 362 1421 362 1421 325 1412 c 1,12,-1
 322 1446 l 1,13,-1
 592 1530 l 1,14,15
 647 1513 647 1513 667 1465 c 1,16,17
 775 1530 775 1530 927 1530 c 0,18,19
 1099 1530 1099 1530 1202 1430 c 0,20,21
 1288 1347 1288 1347 1288 1228 c 0,22,23
 1288 1189 1288 1189 1279 1146 c 0,24,25
 1244 981 1244 981 1080 864 c 0,26,27
 1067 855 1067 855 1054 848 c 1,28,29
 1128 815 1128 815 1173 766 c 0,30,31
 1253 678 1253 678 1253 553 c 0,32,33
 1253 508 1253 508 1242 458 c 0,34,35
 1199 256 1199 256 1012 112 c 0,36,37
 839 -20 839 -20 565 -20 c 1,38,-1
 550 99 l 1,39,40
 703 99 703 99 809 167 c 0,41,42
 911 231 911 231 976 330 c 0,43,44
 1030 411 1030 411 1049 506 c 0,45,46
 1057 545 1057 545 1057 586 c 0,47,48
 1057 629 1057 629 1045 660 c 0,49,50
 1005 760 1005 760 868 760 c 2,51,-1
 744 760 l 1,52,-1
 729 874 l 1,53,54
 814 874 814 874 890 912 c 0,55,56
 965 949 965 949 1022 1032 c 0,57,58
 1073 1105 1073 1105 1089 1182 c 0,59,60
 1096 1216 1096 1216 1096 1247 c 0,61,62
 1096 1307 1096 1307 1069 1350 c 0,63,64
 1028 1415 1028 1415 927 1415 c 0,65,66
 837 1415 837 1415 771 1371 c 0,67,68
 666 1301 666 1301 640 1178 c 2,69,-1
 391 3 l 1,70,-1
 319 -20 l 1,0,1
EndSplineSet
Validated: 1
EndChar

StartChar: X
Encoding: 88 88 182
Width: 1449
Flags: W
HStem: -20 21G<1182 1285.51> 0 30<493.391 527> 51 34<1403.76 1448.26> 1416 34<319.735 364.234> 1480 30<1239 1272.14> 1510 20G<511.5 604.5>
VStem: 152 212<98.4375 310.315> 1400 208<1166.73 1412.61>
LayerCount: 2
Fore
SplineSet
1221 -20 m 1,0,1
 1143 -12 1143 -12 1097 49 c 0,2,3
 664 617 664 617 495 1380 c 0,4,5
 485 1425 485 1425 396 1425 c 0,6,7
 357 1425 357 1425 321 1416 c 1,8,-1
 318 1450 l 1,9,-1
 576 1530 l 1,10,11
 633 1518 633 1518 656 1419 c 0,12,13
 808 770 808 770 1264 112 c 0,14,15
 1289 76 1289 76 1372 76 c 0,16,17
 1410 76 1410 76 1447 85 c 1,18,-1
 1450 51 l 1,19,-1
 1221 -20 l 1,0,1
527 0 m 1,20,21
 152 0 152 0 152 175 c 0,22,23
 152 194 152 194 157 216 c 0,24,25
 203 433 203 433 593 637 c 1,26,-1
 607 613 l 1,27,28
 405 415 405 415 368 241 c 0,29,30
 364 220 364 220 364 201 c 0,31,32
 364 82 364 82 533 30 c 1,33,-1
 527 0 l 1,20,21
1239 1510 m 1,34,35
 1608 1510 1608 1510 1608 1313 c 0,36,37
 1608 1288 1608 1288 1602 1259 c 0,38,39
 1538 956 1538 956 987 752 c 1,40,-1
 973 776 l 1,41,42
 1356 1075 1356 1075 1395 1256 c 0,43,44
 1400 1281 1400 1281 1400 1303 c 0,45,46
 1400 1429 1400 1429 1233 1480 c 1,47,-1
 1239 1510 l 1,34,35
EndSplineSet
Validated: 1
EndChar

StartChar: ae
Encoding: 230 230 183
Width: 1902
Flags: W
HStem: -20 99<1214.32 1546.69> 0 30<514.022 550> 459 107<1170 1746.39> 1008 34<598.735 642.765> 1021 99<1516.19 1841.37>
VStem: 149 204<124.512 353.348>
LayerCount: 2
Fore
SplineSet
1412 -20 m 0,0,1
 1268 -20 1268 -20 1187 18 c 1,2,-1
 1065 -20 l 1,3,4
 1004 4 1004 4 997 67 c 0,5,6
 944 583 944 583 759 971 c 0,7,8
 737 1017 737 1017 675 1017 c 0,9,10
 637 1017 637 1017 600 1008 c 1,11,-1
 597 1042 l 1,12,-1
 846 1120 l 1,13,14
 907 1096 907 1096 936 1035 c 0,15,16
 998 902 998 902 1045 754 c 1,17,18
 1117 878 1117 878 1237 972 c 0,19,20
 1426 1120 1426 1120 1654 1120 c 128,-1,21
 1882 1120 1882 1120 2009 972 c 1,22,-1
 1930 830 l 1,23,24
 1879 1021 1879 1021 1698 1021 c 0,25,26
 1560 1021 1560 1021 1432 924 c 0,27,28
 1300 825 1300 825 1221 675 c 0,29,30
 1191 619 1191 619 1170 566 c 1,31,-1
 1645 566 l 2,32,33
 1736 566 1736 566 1825 677 c 1,34,-1
 1846 677 l 1,35,-1
 1767 532 l 2,36,37
 1727 458 1727 458 1622 458 c 2,38,-1
 1138 459 l 17,39,40
 1125 396 1125 396 1125 342 c 0,41,42
 1125 282 1125 282 1141 231 c 0,43,44
 1189 79 1189 79 1368 79 c 0,45,46
 1520 79 1520 79 1649 192 c 1,47,-1
 1829 128 l 1,48,49
 1641 -20 1641 -20 1412 -20 c 0,0,1
550 0 m 1,50,51
 149 0 149 0 149 204 c 0,52,53
 149 229 149 229 154 256 c 0,54,55
 208 511 208 511 703 815 c 1,56,-1
 716 791 l 1,57,58
 403 508 403 508 359 302 c 0,59,60
 353 272 353 272 353 244 c 0,61,62
 353 90 353 90 556 30 c 1,63,-1
 550 0 l 1,50,51
EndSplineSet
Validated: 1
EndChar

StartChar: N
Encoding: 78 78 184
Width: 1693
Flags: W
HStem: -20 21G<244 338.696 1039 1349.37> 1414 34<324.735 370.204 1521.39 1532.43> 1510 20G<527.146 622 1679.07 1770>
VStem: 218 131<3 70.584> 1641 155<1231.44 1479.07>
DStem2: 196.097 -20 343.637 -20 0.207912 0.978148<87.3912 1167.52> 1341.5 -20 1488.76 -20 0.207912 0.978148<170.731 1451.91>
LayerCount: 2
Fore
SplineSet
270 -20 m 1,0,1
 218 0 218 0 218 64 c 0,2,3
 218 86 218 86 223 109 c 2,4,-1
 489 1358 l 1,5,6
 465 1423 465 1423 401 1423 c 0,7,8
 363 1423 363 1423 326 1414 c 1,9,-1
 323 1448 l 1,10,-1
 593 1530 l 1,11,12
 651 1519 651 1519 674 1419 c 0,13,14
 859 608 859 608 1377 147 c 1,15,-1
 1640 1386 l 2,16,17
 1641 1391 1641 1391 1641 1401 c 0,18,19
 1641 1436 1641 1436 1597 1436 c 0,20,21
 1559 1436 1559 1436 1522 1427 c 1,22,-1
 1520 1461 l 1,23,-1
 1744 1530 l 1,24,25
 1796 1510 1796 1510 1796 1446 c 0,26,27
 1796 1425 1796 1425 1791 1401 c 2,28,-1
 1503 47 l 1,29,-1
 1284 -20 l 1,30,31
 794 405 794 405 580 1092 c 1,32,-1
 349 3 l 1,33,-1
 270 -20 l 1,0,1
EndSplineSet
Validated: 1
EndChar

StartChar: Dcroat
Encoding: 272 272 185
Width: 1726
Flags: W
HStem: -20 130<815 1024.82> 623 100<177.268 332 543 779.074> 1398 132<1008.52 1445.42> 1412 34<323.735 368.08>
VStem: 232 159<3 70.8498> 483 195<1340.5 1462.33> 1620 188<763.263 1178.6>
DStem2: 195.326 -20 385.326 -20 0.207912 0.978148<139.799 657.365 799.049 1160.59>
LayerCount: 2
Fore
SplineSet
319 -20 m 1,0,1
 232 6 232 6 232 114 c 0,2,3
 232 150 232 150 241 194 c 2,4,-1
 332 623 l 1,5,-1
 156 623 l 1,6,-1
 153 651 l 1,7,8
 203 723 203 723 303 723 c 2,9,-1
 354 723 l 1,10,-1
 479 1312 l 2,11,12
 483 1332 483 1332 483 1349 c 0,13,14
 483 1421 483 1421 400 1421 c 0,15,16
 362 1421 362 1421 325 1412 c 1,17,-1
 322 1446 l 1,18,-1
 592 1530 l 1,19,20
 678 1504 678 1504 678 1394 c 0,21,22
 678 1383 678 1383 677 1371 c 1,23,24
 889 1530 889 1530 1187 1530 c 0,25,26
 1493 1530 1493 1530 1671 1327 c 0,27,28
 1808 1171 1808 1171 1808 944 c 0,29,30
 1808 855 1808 855 1786 755 c 0,31,32
 1711 401 1711 401 1428 183 c 0,33,34
 1164 -20 1164 -20 815 -20 c 1,35,-1
 798 110 l 1,36,37
 996 110 996 110 1189 239 c 0,38,39
 1386 371 1386 371 1496 576 c 0,40,41
 1571 713 1571 713 1604 872 c 0,42,43
 1620 950 1620 950 1620 1016 c 0,44,45
 1620 1110 1620 1110 1590 1185 c 0,46,47
 1504 1398 1504 1398 1248 1398 c 0,48,49
 1036 1398 1036 1398 857 1273 c 0,50,51
 626 1112 626 1112 566 830 c 2,52,-1
 543 723 l 1,53,-1
 800 723 l 1,54,-1
 803 695 l 1,55,56
 754 623 754 623 653 623 c 2,57,-1
 522 623 l 1,58,-1
 391 3 l 1,59,-1
 319 -20 l 1,0,1
EndSplineSet
Validated: 1
EndChar

StartChar: dcroat
Encoding: 273 273 186
Width: 1328
VWidth: 2458
Flags: W
HStem: -20 99<463.335 794.286> 60 34<1279.59 1324.26> 554 100<820.194 1076 1267 1421.1> 1021 99<770.578 934> 1419 34<1083.74 1128.17> 1510 20G<1265.58 1373.5>
VStem: 202 171<216.854 567.115> 1243 174<1150.5 1422.25>
DStem2: 954.171 -20 1123.99 -20 0.207912 0.978148<301.482 586.786 724.312 1403.53>
LayerCount: 2
Fore
SplineSet
664 -20 m 0,0,1
 432 -20 432 -20 305 128 c 0,2,3
 202 249 202 249 202 416 c 0,4,5
 202 480 202 480 217 550 c 0,6,7
 270 803 270 803 485 972 c 0,8,9
 673 1120 673 1120 934 1120 c 1,10,-1
 946 1021 l 1,11,12
 814 1021 814 1021 679 923 c 0,13,14
 543 824 543 824 464 675 c 0,15,16
 409 570 409 570 386 459 c 0,17,18
 373 396 373 396 373 342 c 0,19,20
 373 282 373 282 389 231 c 0,21,22
 437 79 437 79 616 79 c 0,23,24
 758 79 758 79 876 178 c 0,25,26
 1022 300 1022 300 1063 492 c 2,27,-1
 1076 554 l 1,28,-1
 800 554 l 1,29,-1
 797 582 l 1,30,31
 844 654 844 654 946 654 c 2,32,-1
 1097 654 l 1,33,-1
 1238 1316 l 2,34,35
 1243 1338 1243 1338 1243 1354 c 0,36,37
 1243 1428 1243 1428 1160 1428 c 0,38,39
 1122 1428 1122 1428 1085 1419 c 1,40,-1
 1082 1453 l 1,41,-1
 1330 1530 l 1,42,43
 1417 1504 1417 1504 1417 1396 c 0,44,45
 1417 1358 1417 1358 1408 1316 c 2,46,-1
 1267 654 l 1,47,-1
 1443 654 l 1,48,-1
 1446 626 l 1,49,50
 1394 554 1394 554 1297 554 c 2,51,-1
 1246 554 l 1,52,-1
 1169 194 l 2,53,54
 1165 175 1165 175 1165 157 c 0,55,56
 1165 85 1165 85 1248 85 c 0,57,58
 1286 85 1286 85 1323 94 c 1,59,-1
 1326 60 l 1,60,-1
 1067 -20 l 1,61,62
 1007 1 1007 1 993 80 c 1,63,64
 851 -20 851 -20 664 -20 c 0,0,1
EndSplineSet
Validated: 1
EndChar

StartChar: oslash
Encoding: 248 248 187
Width: 1328
Flags: W
HStem: -20 99<566.274 793.333> 1021 99<768.667 995.531>
VStem: 202 171<216.496 568.176> 1188 172<526.02 883.415>
DStem2: 428 30 428 -153 0.500001 0.866025<-131.035 0.302908 114.399 1139.27 1252.9 1384.73>
LayerCount: 2
Fore
SplineSet
660 -20 m 0,0,1
 582 -20 582 -20 515 -3 c 1,2,-1
 428 -153 l 1,3,-1
 400 -152 l 1,4,5
 380 -127 380 -127 380 -94 c 0,6,7
 380 -81 380 -81 383 -68 c 0,8,9
 390 -37 390 -37 410 -1 c 2,10,-1
 428 30 l 1,11,12
 358 66 358 66 305 128 c 0,13,14
 202 249 202 249 202 416 c 0,15,16
 202 480 202 480 217 550 c 0,17,18
 271 805 271 805 485 972 c 0,19,20
 674 1120 674 1120 902 1120 c 0,21,22
 980 1120 980 1120 1046 1103 c 1,23,-1
 1133 1253 l 1,24,-1
 1162 1252 l 1,25,26
 1182 1227 1182 1227 1182 1194 c 0,27,28
 1182 1182 1182 1182 1179 1168 c 0,29,30
 1169 1129 1169 1129 1152 1101 c 2,31,-1
 1133 1070 l 1,32,33
 1203 1034 1203 1034 1257 972 c 0,34,35
 1360 851 1360 851 1360 684 c 0,36,37
 1360 620 1360 620 1345 550 c 0,38,39
 1291 295 1291 295 1077 128 c 0,40,41
 888 -20 888 -20 660 -20 c 0,0,1
616 79 m 0,42,43
 748 79 748 79 883 177 c 0,44,45
 1015 273 1015 273 1097 425 c 0,46,47
 1155 532 1155 532 1176 641 c 0,48,49
 1188 706 1188 706 1188 760 c 0,50,51
 1188 821 1188 821 1173 869 c 0,52,53
 1147 948 1147 948 1086 986 c 1,54,-1
 565 83 l 1,55,56
 589 79 589 79 616 79 c 0,42,43
476 113 m 1,57,-1
 997 1017 l 1,58,59
 973 1021 973 1021 946 1021 c 0,60,61
 814 1021 814 1021 679 923 c 128,-1,62
 544 825 544 825 464 675 c 0,63,64
 410 574 410 574 386 459 c 0,65,66
 373 396 373 396 373 342 c 0,67,68
 373 282 373 282 389 231 c 0,69,70
 415 151 415 151 476 113 c 1,57,-1
EndSplineSet
Validated: 1
EndChar

StartChar: kgreenlandic
Encoding: 312 312 188
Width: 1351
Flags: W
HStem: -20 21G<275.5 369 910 1180.66> 53 34<1305.65 1350.84> 1009 34<238.157 283.173> 1100 20G<420.584 528.5 1137.88 1178.29>
VStem: 232 137<1.11133 63.4679> 399 173<746.75 1012.39>
DStem2: 195.535 -20 365.535 -20 0.207912 0.978148<139.816 986.913> 612 726 769 718 0.814924 0.579567<107.777 673.275>
LayerCount: 2
Fore
SplineSet
1116 -20 m 1,0,1
 704 259 704 259 612 726 c 1,2,-1
 1166 1120 l 1,3,-1
 1217 1037 l 1,4,-1
 769 718 l 1,5,6
 856 368 856 368 1177 115 c 0,7,8
 1224 78 1224 78 1278 78 c 0,9,10
 1313 78 1313 78 1350 87 c 1,11,-1
 1352 53 l 1,12,-1
 1116 -20 l 1,0,1
319 -20 m 1,13,14
 232 6 232 6 232 114 c 0,15,16
 232 152 232 152 241 194 c 2,17,-1
 393 909 l 2,18,19
 399 937 399 937 399 946 c 0,20,21
 399 1018 399 1018 314 1018 c 0,22,23
 276 1018 276 1018 239 1009 c 1,24,-1
 237 1043 l 1,25,-1
 485 1120 l 1,26,27
 572 1094 572 1094 572 987 c 0,28,29
 572 951 572 951 563 909 c 2,30,-1
 369 -4 l 1,31,-1
 319 -20 l 1,13,14
EndSplineSet
Validated: 1
EndChar

StartChar: S
Encoding: 83 83 189
Width: 1241
Flags: W
HStem: -20 125<314.654 706.945> 774 120<639.949 964.156> 1415 115<798.037 1162>
VStem: 377 213<943.403 1211.45> 1035 216<415.232 709.501>
LayerCount: 2
Fore
SplineSet
517 -20 m 0,0,1
 271 -20 271 -20 125 117 c 1,2,-1
 208 270 l 1,3,4
 292 105 292 105 484 105 c 0,5,6
 623 105 623 105 758 172 c 0,7,8
 896 242 896 242 965 364 c 0,9,10
 1011 443 1011 443 1028 525 c 0,11,12
 1035 559 1035 559 1035 589 c 0,13,14
 1035 663 1035 663 991 709 c 0,15,16
 930 774 930 774 778 774 c 0,17,18
 574 774 574 774 466 874 c 0,19,20
 377 956 377 956 377 1073 c 0,21,22
 377 1108 377 1108 385 1146 c 0,23,24
 420 1313 420 1313 583 1422 c 0,25,26
 745 1530 745 1530 974 1530 c 0,27,28
 1209 1530 1209 1530 1315 1430 c 1,29,-1
 1231 1277 l 1,30,31
 1181 1415 1181 1415 1007 1415 c 0,32,33
 902 1415 902 1415 821 1382 c 0,34,35
 723 1342 723 1342 662 1258 c 0,36,37
 615 1194 615 1194 597 1108 c 0,38,39
 590 1075 590 1075 590 1052 c 0,40,41
 590 997 590 997 618 960 c 0,42,43
 668 894 668 894 809 894 c 0,44,45
 1038 894 1038 894 1149 793 c 0,46,47
 1251 700 1251 700 1251 562 c 0,48,49
 1251 518 1251 518 1241 470 c 0,50,51
 1195 252 1195 252 989 117 c 0,52,53
 780 -20 780 -20 517 -20 c 0,0,1
EndSplineSet
Validated: 1
EndChar

StartChar: Oslash
Encoding: 216 216 190
Width: 1726
Flags: W
HStem: -20 130<711.164 1025.55> 1398 132<1019.63 1334.99>
VStem: 239 187<329.68 744.255> 1620 188<763.263 1178.6>
DStem2: 559 42 560 -141 0.499661 0.866221<-131.043 0 139.916 1557.27 1698.55 1830.46>
LayerCount: 2
Fore
SplineSet
858 -20 m 0,0,1
 743 -20 743 -20 647 9 c 1,2,-1
 560 -141 l 1,3,-1
 531 -140 l 1,4,5
 511 -115 511 -115 511 -82 c 0,6,7
 511 -69 511 -69 514 -56 c 0,8,9
 525 -17 525 -17 541 11 c 2,10,-1
 559 42 l 1,11,12
 454 92 454 92 374 183 c 0,13,14
 239 337 239 337 239 563 c 0,15,16
 239 653 239 653 260 755 c 0,17,18
 336 1111 336 1111 617 1327 c 0,19,20
 881 1530 881 1530 1187 1530 c 0,21,22
 1303 1530 1303 1530 1400 1501 c 1,23,-1
 1487 1651 l 1,24,-1
 1516 1650 l 1,25,26
 1536 1625 1536 1625 1536 1592 c 0,27,28
 1536 1579 1536 1579 1533 1566 c 0,29,30
 1526 1534 1526 1534 1506 1499 c 2,31,-1
 1488 1467 l 1,32,33
 1592 1417 1592 1417 1671 1327 c 0,34,35
 1808 1171 1808 1171 1808 944 c 0,36,37
 1808 855 1808 855 1786 755 c 0,38,39
 1711 401 1711 401 1428 183 c 0,40,41
 1164 -20 1164 -20 858 -20 c 0,0,1
798 110 m 24,42,43
 994 110 994 110 1189 239 c 0,44,45
 1384 369 1384 369 1496 576 c 0,46,47
 1571 713 1571 713 1604 872 c 0,48,49
 1620 948 1620 948 1620 1016 c 0,50,51
 1620 1110 1620 1110 1590 1185 c 0,52,53
 1539 1312 1539 1312 1427 1363 c 1,54,-1
 709 117 l 1,55,56
 750 110 750 110 798 110 c 24,42,43
618 145 m 1,57,-1
 1337 1391 l 1,58,59
 1295 1398 1295 1398 1248 1398 c 0,60,61
 1050 1398 1050 1398 858 1268 c 0,62,63
 661 1135 661 1135 550 931 c 0,64,65
 476 796 476 796 442 636 c 0,66,67
 426 560 426 560 426 493 c 0,68,69
 426 400 426 400 457 323 c 0,70,71
 506 196 506 196 618 145 c 1,57,-1
EndSplineSet
Validated: 1
EndChar

StartChar: s
Encoding: 115 115 191
Width: 1011
Flags: W
HStem: -20 101<275.148 591.745> 557 108<509.665 762.642> 1027 93<619.299 902.991>
VStem: 303 185<687.983 900.674> 795 198<288.264 518.518>
LayerCount: 2
Fore
SplineSet
429 -20 m 0,0,1
 237 -20 237 -20 121 97 c 1,2,-1
 209 257 l 1,3,4
 241 81 241 81 408 81 c 0,5,6
 524 81 524 81 613 137 c 0,7,8
 683 181 683 181 738 266 c 0,9,10
 777 327 777 327 790 389 c 0,11,12
 795 413 795 413 795 433 c 0,13,14
 795 483 795 483 764 514 c 0,15,16
 721 557 721 557 618 557 c 0,17,18
 452 557 452 557 371 633 c 0,19,20
 303 696 303 696 303 782 c 0,21,22
 303 807 303 807 308 834 c 0,23,24
 335 959 335 959 457 1038 c 0,25,26
 582 1120 582 1120 764 1120 c 0,27,28
 929 1120 929 1120 1038 1040 c 1,29,-1
 955 890 l 1,30,31
 917 1027 917 1027 786 1027 c 0,32,33
 718 1027 718 1027 655 1001 c 0,34,35
 589 974 589 974 548 924 c 0,36,37
 505 871 505 871 492 808 c 0,38,39
 488 789 488 789 488 772 c 0,40,41
 488 734 488 734 508 707 c 0,42,43
 541 665 541 665 646 665 c 0,44,45
 826 665 826 665 915 586 c 0,46,47
 993 516 993 516 993 415 c 0,48,49
 993 385 993 385 986 351 c 0,50,51
 952 194 952 194 798 93 c 0,52,53
 625 -20 625 -20 429 -20 c 0,0,1
EndSplineSet
Validated: 1
EndChar

StartChar: OE
Encoding: 338 338 192
Width: 2553
Flags: W
HStem: -20 130<599.684 1027.12 1666.62 2094.32> 636 126<1540 2378.5> 1398 132<1019.37 1439.84 2087.17 2501.57>
VStem: 239 187<329.68 744.255> 1303 187<326.48 634.385>
LayerCount: 2
Fore
SplineSet
1922 -20 m 0,0,1
 1598 -20 1598 -20 1434 188 c 1,2,3
 1167 -20 1167 -20 858 -20 c 0,4,5
 552 -20 552 -20 374 183 c 0,6,7
 239 337 239 337 239 563 c 0,8,9
 239 653 239 653 260 755 c 0,10,11
 336 1111 336 1111 617 1327 c 0,12,13
 881 1530 881 1530 1186 1530 c 0,14,15
 1511 1530 1511 1530 1673 1321 c 1,16,17
 1941 1530 1941 1530 2251 1530 c 0,18,19
 2557 1530 2557 1530 2735 1327 c 1,20,-1
 2652 1174 l 1,21,22
 2564 1398 2564 1398 2312 1398 c 0,23,24
 2114 1398 2114 1398 1922 1268 c 0,25,26
 1726 1135 1726 1135 1614 931 c 0,27,28
 1570 851 1570 851 1540 762 c 1,29,-1
 2288 762 l 2,30,31
 2379 762 2379 762 2468 873 c 1,32,-1
 2489 873 l 1,33,-1
 2398 708 l 2,34,35
 2358 634 2358 634 2254 634 c 2,36,-1
 1506 636 l 17,37,38
 1490 560 1490 560 1490 493 c 0,39,40
 1490 400 1490 400 1521 323 c 0,41,42
 1604 110 1604 110 1862 110 c 0,43,44
 2085 110 2085 110 2281 258 c 1,45,-1
 2492 183 l 1,46,47
 2228 -20 2228 -20 1922 -20 c 0,0,1
798 110 m 0,48,49
 997 110 997 110 1189 239 c 0,50,51
 1269 293 1269 293 1335 359 c 1,52,53
 1303 453 1303 453 1303 563 c 0,54,55
 1303 653 1303 653 1324 755 c 0,56,57
 1383 1032 1383 1032 1566 1224 c 1,58,59
 1474 1398 1474 1398 1248 1398 c 0,60,61
 1050 1398 1050 1398 858 1268 c 0,62,63
 661 1135 661 1135 550 931 c 0,64,65
 476 796 476 796 442 636 c 0,66,67
 426 560 426 560 426 493 c 0,68,69
 426 400 426 400 457 323 c 0,70,71
 540 110 540 110 798 110 c 0,48,49
EndSplineSet
Validated: 1
EndChar

StartChar: oe
Encoding: 339 339 193
Width: 1868
Flags: W
HStem: -20 99<462.803 794.166 1180.36 1512.69> 459 107<1136 1712.39> 1021 99<768.667 1096.28 1485.07 1807.37>
VStem: 202 171<216.854 568.176> 920 171<205.67 457.059>
LayerCount: 2
Fore
SplineSet
1378 -20 m 0,0,1
 1169 -20 1169 -20 1045 104 c 1,2,3
 869 -20 869 -20 660 -20 c 0,4,5
 432 -20 432 -20 305 128 c 0,6,7
 202 249 202 249 202 416 c 0,8,9
 202 480 202 480 217 550 c 0,10,11
 271 805 271 805 485 972 c 0,12,13
 674 1120 674 1120 902 1120 c 0,14,15
 1112 1120 1112 1120 1235 996 c 1,16,17
 1411 1120 1411 1120 1620 1120 c 0,18,19
 1848 1120 1848 1120 1975 972 c 1,20,-1
 1896 830 l 1,21,22
 1845 1021 1845 1021 1664 1021 c 0,23,24
 1527 1021 1527 1021 1398.5 924 c 128,-1,25
 1270 827 1270 827 1187 675 c 0,26,27
 1157 619 1157 619 1136 566 c 1,28,-1
 1611 566 l 2,29,30
 1702 566 1702 566 1791 677 c 1,31,-1
 1812 677 l 1,32,-1
 1733 532 l 2,33,34
 1693 458 1693 458 1588 458 c 2,35,-1
 1104 459 l 17,36,37
 1091 396 1091 396 1091 342 c 0,38,39
 1091 282 1091 282 1107 231 c 0,40,41
 1155 79 1155 79 1334 79 c 0,42,43
 1486 79 1486 79 1615 192 c 1,44,-1
 1795 128 l 1,45,46
 1607 -20 1607 -20 1378 -20 c 0,0,1
616 79 m 0,47,48
 748 79 748 79 883 177 c 0,49,50
 921 205 921 205 955 237 c 1,51,52
 920 319 920 319 920 417 c 0,53,54
 920 480 920 480 935 550 c 0,55,56
 982 769 982 769 1145 922 c 1,57,58
 1085 1021 1085 1021 946 1021 c 0,59,60
 814 1021 814 1021 679 923 c 0,61,62
 547 827 547 827 464 675 c 0,63,64
 410 574 410 574 386 459 c 0,65,66
 373 396 373 396 373 342 c 0,67,68
 373 282 373 282 389 231 c 0,69,70
 437 79 437 79 616 79 c 0,47,48
EndSplineSet
Validated: 1
EndChar

StartChar: Tbar
Encoding: 358 358 194
Width: 1529
Flags: W
HStem: -20 130<642.305 1070.32> 703 100<192.47 289 531 796.416> 1382 128<393.313 810 1033.47 1710.38>
VStem: 278 188<332.355 701.391>
LayerCount: 2
Fore
SplineSet
898 -20 m 0,0,1
 587 -20 587 -20 414 183 c 0,2,3
 278 341 278 341 278 568 c 0,4,5
 278 633 278 633 289 703 c 1,6,-1
 173 703 l 1,7,-1
 170 731 l 1,8,9
 216 800 216 800 311 803 c 1,10,11
 395 1125 395 1125 676 1313 c 0,12,13
 736 1353 736 1353 810 1382 c 1,14,-1
 481 1382 l 2,15,16
 390 1382 390 1382 301 1271 c 1,17,-1
 280 1271 l 1,18,-1
 370 1436 l 2,19,20
 411 1510 411 1510 515 1510 c 2,21,-1
 1623 1510 l 2,22,23
 1714 1510 1714 1510 1803 1621 c 1,24,-1
 1824 1621 l 1,25,-1
 1733 1456 l 2,26,27
 1692 1382 1692 1382 1589 1382 c 2,28,-1
 1298 1382 l 2,29,30
 1067 1382 1067 1382 898 1268 c 0,31,32
 702 1135 702 1135 590 931 c 0,33,34
 557 870 557 870 531 803 c 1,35,-1
 817 803 l 1,36,-1
 820 775 l 1,37,38
 772 703 772 703 670 703 c 2,39,-1
 498 703 l 1,40,41
 489 670 489 670 482 636 c 0,42,43
 466 560 466 560 466 493 c 0,44,45
 466 400 466 400 497 323 c 0,46,47
 580 110 580 110 838 110 c 0,48,49
 1061 110 1061 110 1257 258 c 1,50,-1
 1468 183 l 1,51,52
 1204 -20 1204 -20 898 -20 c 0,0,1
EndSplineSet
Validated: 1
EndChar

StartChar: tbar
Encoding: 359 359 195
Width: 1189
Flags: W
HStem: -20 99<501.303 833.685> 492 100<148.47 246 465 751.464> 992 108<297.321 592 749.143 1294.63>
VStem: 241 171<217.138 491.156>
LayerCount: 2
Fore
SplineSet
699 -20 m 0,0,1
 469 -20 469 -20 344 128 c 0,2,3
 241 250 241 250 241 417 c 0,4,5
 241 454 241 454 246 492 c 1,6,-1
 129 492 l 1,7,-1
 126 520 l 1,8,9
 172 589 172 589 267 592 c 1,10,11
 330 814 330 814 532 955 c 0,12,13
 560 975 560 975 592 992 c 1,14,-1
 398 992 l 2,15,16
 307 992 307 992 218 881 c 1,17,-1
 197 881 l 1,18,-1
 275 1026 l 2,19,20
 315 1100 315 1100 420 1100 c 2,21,-1
 1196 1100 l 2,22,23
 1287 1100 1287 1100 1375 1211 c 1,24,-1
 1396 1211 l 1,25,-1
 1318 1066 l 2,26,27
 1278 992 1278 992 1173 992 c 2,28,-1
 929 992 l 2,29,30
 803 992 803 992 710 923 c 0,31,32
 589 832 589 832 503 675 c 0,33,34
 481 635 481 635 465 592 c 1,35,-1
 772 592 l 1,36,-1
 775 564 l 1,37,38
 727 492 727 492 626 492 c 2,39,-1
 433 492 l 1,40,41
 428 476 428 476 425 459 c 0,42,43
 412 396 412 396 412 342 c 0,44,45
 412 282 412 282 428 231 c 0,46,47
 476 79 476 79 655 79 c 0,48,49
 807 79 807 79 936 192 c 1,50,-1
 1116 128 l 1,51,52
 928 -20 928 -20 699 -20 c 0,0,1
EndSplineSet
Validated: 1
EndChar

StartChar: thorn
Encoding: 254 254 196
Width: 1328
Flags: W
HStem: -430 21G<188.5 282> -20 99<628 791.422> 1021 99<767.332 1098.17> 1419 34<325.735 370.173> 1510 20G<507.584 616>
VStem: 145 137<-408.889 -346.482> 486 174<1164.66 1422.39> 1188 172<531.448 883.146>
DStem2: 108.239 -430 278.366 -430 0.207912 0.978148<139.878 1318.52 1532.17 1825.23>
LayerCount: 2
Fore
SplineSet
232 -430 m 1,0,1
 145 -404 145 -404 145 -296 c 0,2,3
 145 -258 145 -258 154 -216 c 2,4,-1
 480 1319 l 2,5,6
 486 1347 486 1347 486 1356 c 0,7,8
 486 1428 486 1428 402 1428 c 0,9,10
 364 1428 364 1428 327 1419 c 1,11,-1
 324 1453 l 1,12,-1
 572 1530 l 1,13,14
 660 1504 660 1504 660 1397 c 0,15,16
 660 1366 660 1366 650 1319 c 2,17,-1
 590 1034 l 1,18,19
 725 1120 725 1120 898 1120 c 0,20,21
 1130 1120 1130 1120 1257 972 c 0,22,23
 1360 851 1360 851 1360 684 c 0,24,25
 1360 620 1360 620 1345 550 c 0,26,27
 1292 297 1292 297 1077 128 c 0,28,29
 889 -20 889 -20 628 -20 c 1,30,-1
 616 79 l 1,31,32
 748 79 748 79 883 177 c 0,33,34
 1017 274 1017 274 1097 425 c 0,35,36
 1153 531 1153 531 1176 641 c 24,37,38
 1188 698 1188 698 1188 760 c 0,39,40
 1188 821 1188 821 1173 869 c 0,41,42
 1123 1021 1123 1021 946 1021 c 0,43,44
 804 1021 804 1021 686 922 c 0,45,46
 540 800 540 800 499 608 c 2,47,-1
 282 -414 l 1,48,-1
 232 -430 l 1,0,1
EndSplineSet
Validated: 1
EndChar

